<svg xmlns="http://www.w3.org/2000/svg" xmlns:xlink="http://www.w3.org/1999/xlink" viewBox="0 0 812.98 558.08"><defs><style>.a,.c{fill:none;}.b{clip-path:url(#a);}.c{stroke:#f8cf61;stroke-linecap:round;stroke-linejoin:round;stroke-width:49px;}.d{fill:#edf3ff;}.e{fill:#ffc5c5;}.f{fill:#fcafaf;}.g{fill:#d5e1fa;}.h{fill:#383838;}.i{fill:#2b2b2b;}.j{fill:#3fc4bd;}.k{fill:#c7d6f2;}.l{fill:#32b5b3;}.m{fill:#061437;}.n{fill:#f56139;}.o{fill:#d12626;}.p{opacity:0.4;}.q{fill:#faad9b;}.r{fill:#2e363a;}.s{fill:#4a5258;}.t{fill:#3a4146;}.u{fill:#1939d1;}.v{fill:#fe6b4d;}.w{fill:#e1ebff;}.x{fill:#596eea;}.y{fill:#2943e2;}.z{opacity:0.5;}.aa{fill:#f4573d;}.ab{fill:#ff8261;}.ac{fill:#4052f2;}.ad{fill:#fff;}.ae{fill:#25a59f;}.af{fill:#e88a23;}.ag{fill:#ffb612;}.ah{fill:#ffd964;}.ai{fill:#7b393b;}.aj{fill:#844247;}.ak{fill:#5e2424;}.al{fill:#75352c;}.am{fill:#ffae1f;}.an{fill:#ffc536;}.ao{fill:#f7a500;}.ap{fill:#393e46;}.aq{fill:#ffbd39;}.ar{fill:#ffcf4e;}.as{opacity:0.2;}.at{opacity:0.05;}.au{fill:#cfde5f;}.av{fill:#e5e982;}.aw{fill:#e8d33f;}</style><clipPath id="a" transform="translate(-123.32 -1.11)"><rect class="a" x="42.8" y="-115.66" width="770.16" height="781.32"/></clipPath></defs><title>header-img</title><g class="b"><path class="c" d="M911.8,25.61H806.7a83.51,83.51,0,0,0-83.51,83.51h0V230.34c0,74.4-90,111.66-142.55,59L453.26,162C400.65,109.34,310.7,146.62,310.7,221V507.54" transform="translate(-123.32 -1.11)"/></g><ellipse class="d" cx="301.14" cy="530.71" rx="301.14" ry="27.37"/><path class="e" d="M352.36,488.2s0,4.73-.12,10c-.11,6.61-.3,14.09-.57,14.22-.5.23-14.51-.16-17.15-2.4-.92-.79-1.28-3.8-1.34-7.37-.09-4.93.37-10.94.6-13.66.08-.93.14-1.47.14-1.47l3.94.15Z" transform="translate(-123.32 -1.11)"/><path class="f" d="M352.36,488.2s0,4.73-.12,10c-6.44-2.92-14.36-.53-19.06,4.45-.09-4.93.37-10.94.6-13.66,1.21-.4,2.62-.86,4.08-1.32Z" transform="translate(-123.32 -1.11)"/><path class="g" d="M382.6,527.45c-1.11.15-47-1.38-48.85-2.09s-1.51-4-1.51-4L383,523.55S383.69,527.34,382.6,527.45Z" transform="translate(-123.32 -1.11)"/><path class="h" d="M383,523.54c-.78.72-50.76-2.19-50.76-2.19-3.73-5.33-.52-13.87.57-15.9.18-.34.3-.49.32-.44,2.23,4.94,16.48,7.62,16.81,6.08s1.78-7.32,3.56-6.7,18.26,11.23,23.71,13.39a12.87,12.87,0,0,1,5.07,3.23C383.29,522.18,383.41,523.16,383,523.54Z" transform="translate(-123.32 -1.11)"/><path class="i" d="M383,523.54c-.78.72-50.76-2.19-50.76-2.19-3.73-5.33-.52-13.87.57-15.9a11.55,11.55,0,0,0,4.1,9.28,21.78,21.78,0,0,0,10.43,4.8,68,68,0,0,0,11.75,1l23.19.53C383.29,522.18,383.41,523.16,383,523.54Z" transform="translate(-123.32 -1.11)"/><path class="j" d="M184.65,371.45A19.5,19.5,0,0,0,196.9,386.2c48.2,18.29,118.11,13,131.23,12.52,13.66-.53,14-3.7,12.14-8.76,0-.16-.12-.32-.18-.49-2.07-5.33-44.92-8.65-62.54-18.74s-13.45-39.14-22.33-73.67S233.3,260,231.89,259.34c-19.88-8.43-33.73-6.95-48.88,13.07C170.64,288.78,181,351.26,184.65,371.45Z" transform="translate(-123.32 -1.11)"/><polygon class="k" points="193.97 509.51 165.67 392.17 177.47 392.17 199.18 509.51 193.97 509.51"/><polygon class="k" points="79.96 509.51 101.67 392.17 113.47 392.17 85.17 509.51 79.96 509.51"/><rect class="k" x="135.78" y="392.16" width="7.59" height="117.35"/><path class="e" d="M284.49,491.34s0,4.72-.12,10c-.11,6.61-.29,14.08-.57,14.21-.49.24-14.51-.15-17.14-2.39-.93-.79-1.28-3.8-1.34-7.37-.09-4.94.36-11,.59-13.67.09-.92.14-1.46.14-1.46l3.95.14Z" transform="translate(-123.32 -1.11)"/><path class="f" d="M284.49,491.34s0,4.72-.12,10c-6.43-2.92-14.35-.53-19,4.45-.09-4.94.36-11,.59-13.67l4.09-1.32Z" transform="translate(-123.32 -1.11)"/><path class="g" d="M314.73,530.58c-1.1.16-47-1.37-48.85-2.08s-1.5-4-1.5-4l50.76,2.19S315.8,530.43,314.73,530.58Z" transform="translate(-123.32 -1.11)"/><path class="h" d="M315.14,526.68c-.78.72-50.76-2.19-50.76-2.19-3.73-5.34-.52-13.88.56-15.9.18-.34.3-.49.33-.44,2.22,4.94,16.47,7.62,16.81,6.07s1.78-7.31,3.56-6.69,18.25,11.22,23.71,13.39a13,13,0,0,1,5.06,3.22C315.43,525.34,315.55,526.34,315.14,526.68Z" transform="translate(-123.32 -1.11)"/><path class="i" d="M315.14,526.68c-.78.72-50.76-2.19-50.76-2.19-3.73-5.34-.52-13.88.56-15.9a11.59,11.59,0,0,0,4.1,9.28,21.9,21.9,0,0,0,10.44,4.8,67.94,67.94,0,0,0,11.74.94l23.19.53C315.43,525.34,315.55,526.34,315.14,526.68Z" transform="translate(-123.32 -1.11)"/><path class="l" d="M184.65,371.11a19.5,19.5,0,0,0,12.25,14.74c48.2,18.29,118.11,13,131.23,12.53,13.66-.53,14-3.7,12.14-8.76-4.21.24-8.42.48-12.63.66-17.33.71-34.89.5-51.92-3.1a108.62,108.62,0,0,1-27.27-9.51c-22-11.36-38.84-31.15-50.75-52.91-7.61-13.92-13.41-28.71-18.53-43.75C173.51,303.7,180.87,350.34,184.65,371.11Z" transform="translate(-123.32 -1.11)"/><path class="h" d="M246.7,346.55c1.21,19.13,12.41,31.72,18.87,36.54a12.87,12.87,0,0,0,3.77,2.16c2.56.66,24.16,4.75,38.78,7.49,7.71,1.46,13.48,2.53,13.48,2.53l10.61,95.6a2.68,2.68,0,0,0,2.66,2.39h15.79a2.69,2.69,0,0,0,2.69-2.59c.59-16.43,3.67-105.92-.39-116.38-4.47-11.52-66.84-32.74-66.84-32.74C249.52,329.49,246.7,346.55,246.7,346.55Z" transform="translate(-123.32 -1.11)"/><path class="i" d="M256.35,372.56a39.86,39.86,0,0,0,9.22,10.53,12.87,12.87,0,0,0,3.77,2.16c2.56.66,24.16,4.75,38.78,7.49A56.81,56.81,0,0,0,297.87,372c-9.63-12.36-23.4-20.86-37.63-27.39l-7.35,7.7A30,30,0,0,0,256.35,372.56Z" transform="translate(-123.32 -1.11)"/><path class="h" d="M197.94,348.34c2.1,18.87,14.14,31,17.38,32.24,3.75,1.52,50.59,16.51,50.59,16.51l-1.49,98.57,8.91,1.13.81.1,10.9,1.39s17.61-106.08,14.6-118.06-62.21-40.85-62.21-40.85c-13.27-8.54-23.63-8-30.43-5.69a13.48,13.48,0,0,0-7.57,6.54,6.33,6.33,0,0,0-.52,1.16A13.5,13.5,0,0,0,197.94,348.34Z" transform="translate(-123.32 -1.11)"/><path class="i" d="M198.91,341.4c4.21,17.06,15.15,28.16,18.67,29.59s38.51,12.65,52.22,17.06a7.28,7.28,0,0,1,5,7.05l-1.53,101.71.81.1,1.56-102.39a7.28,7.28,0,0,0-5-7c-13.52-4.34-49.34-15.86-52.75-17.23s-14.54-12.69-18.48-30A5.64,5.64,0,0,0,198.91,341.4Z" transform="translate(-123.32 -1.11)"/><path class="m" d="M206.39,201.54c-.14,0,9.28,8.44,14.62,9.14l4.78-3.66v8s18.43,4.5,24,3.94,18.43.7,18.43.7l2.67-8.16s1.26,6.33,3.09,8.16,20.53,0,20.53,0-10.4-8.72-10.83-27.14-1.54-38.25-20.81-42.33-31.08,7.31-34.88,16-6,18.71-8.15,21.38S206.39,201.54,206.39,201.54Z" transform="translate(-123.32 -1.11)"/><path class="e" d="M343.71,251,314.05,283.7,310.8,264l-2.35-10.32-23.2,10.8a129.67,129.67,0,0,0,3.14,18.06c3.34,14.24,9.48,31.42,18.94,29.69,13.37-2.42,39.47-40.25,47.4-51.93A60.15,60.15,0,0,1,343.71,251Z" transform="translate(-123.32 -1.11)"/><path class="f" d="M310.8,264c-9.86,3.11-17.06,9.7-22.41,18.54a129.67,129.67,0,0,1-3.14-18.06l23.2-10.8Z" transform="translate(-123.32 -1.11)"/><path class="n" d="M310.6,259.07c0-2.26-9.71-33.39-21.63-37.2-5-2.71-42.56-11.76-58.41-9.06s-33.5,5.89-39.61,15.4-3.38,26.35-3.38,26.35,29.64-2.14,26.7.59c-.55.51-1.71,3.28-3.21,7.47-1.38,3.85-3,8.89-4.8,14.45a3.92,3.92,0,0,1,2.73,4.35c-1.65,10.54-6.1,19.84-8.84,30.37.22,1.75-1.07,5.67-1,14.68,11.77-1.93,39.37-7.69,47.07,5,9.51,15.61,35.64,9.7,38.82,7.44.79-.58.78-5.92.31-13.65-1.39-23.12,1.3-56.19,1.3-56.19S310.6,261.34,310.6,259.07Z" transform="translate(-123.32 -1.11)"/><path class="o" d="M285.31,325.88a.65.65,0,0,1-.65-.61c-1.37-22.9,1.28-55.95,1.31-56.28a.65.65,0,0,1,.69-.59.65.65,0,0,1,.59.69c0,.33-2.66,33.29-1.3,56.1a.66.66,0,0,1-.6.69Z" transform="translate(-123.32 -1.11)"/><path class="o" d="M286.8,269.68a.64.64,0,0,1-.63-.5l-3.5-15.32a.65.65,0,0,1,.48-.77h0a.63.63,0,0,1,.76.46v0l3.51,15.31a.65.65,0,0,1-.48.78Z" transform="translate(-123.32 -1.11)"/><path class="n" d="M285.21,338.88c-27.1,6.72-54.09,18.65-90.38,13.76-2.4-1.11,9.91-71.78,16.44-90l5.31-4c-1.17,4.59-2.36,9.24-2.07,13.95s2.27,9.56,6.22,12.13c4.32,2.8,10.19,2.53,14.16,5.73,4.69,3.77,5.22,11.06,9.8,14.95,5.6,4.73,14.21,2.27,21.19,4.46,7.23,2.25,11.81,9.06,17.06,14.51,2.86,2.94-.85-1.32,2.58.94C286,333,286,338.34,285.21,338.88Z" transform="translate(-123.32 -1.11)"/><g class="p"><path class="n" d="M285.21,338.88c-27.1,6.72-54.09,18.65-90.38,13.76-2.4-1.11,9.91-71.78,16.44-90l5.31-4c-1.17,4.59-2.36,9.24-2.07,13.95s2.27,9.56,6.22,12.13c4.32,2.8,10.19,2.53,14.16,5.73,4.69,3.77,5.22,11.06,9.8,14.95,5.6,4.73,14.21,2.27,21.19,4.46,7.23,2.25,11.81,9.06,17.06,14.51,2.86,2.94-.85-1.32,2.58.94C286,333,286,338.34,285.21,338.88Z" transform="translate(-123.32 -1.11)"/></g><path class="o" d="M285.22,339.52a.58.58,0,0,1-.52-.27.64.64,0,0,1,.13-.89h0c.15-.21.72-1.92,0-13.08a.65.65,0,0,1,.6-.68h0a.63.63,0,0,1,.68.54v.06c.81,13.21-.06,13.84-.57,14.21A.61.61,0,0,1,285.22,339.52Z" transform="translate(-123.32 -1.11)"/><path class="e" d="M237.5,188.72c.13.75,0,23.6,0,23.6a61.23,61.23,0,0,0-12.93,1.59s7.21,23,26.21,21,16-19.12,16-19.12c-4.21-.77-8.14-1.45-11.25-1.91l.82-4.79s10.8,1.24,13.78-10.06,3.23-34.38,2.48-36.37-20.23-12-29.91-2.6-9.19,19.73-9.56,21.84-1.12,7.95,5,6.83" transform="translate(-123.32 -1.11)"/><path class="h" d="M266.05,179.34a.48.48,0,0,0,.38-.11.52.52,0,0,0,.08-.73A3,3,0,0,0,266,178a2.83,2.83,0,0,0-2.87-.28,3.13,3.13,0,0,0-.58.36.52.52,0,0,0,.65.82v0a2.16,2.16,0,0,1,.36-.22,1.79,1.79,0,0,1,1.81.17,2.42,2.42,0,0,1,.33.31A.49.49,0,0,0,266.05,179.34Z" transform="translate(-123.32 -1.11)"/><path class="h" d="M248.5,178.78a.48.48,0,0,0,.35-.18,1.83,1.83,0,0,1,.32-.3,1.79,1.79,0,0,1,1.81-.17,1.67,1.67,0,0,1,.38.25.52.52,0,0,0,.68-.79h0a3.51,3.51,0,0,0-.61-.39,2.81,2.81,0,0,0-3.36.74.52.52,0,0,0,.06.73A.53.53,0,0,0,248.5,178.78Z" transform="translate(-123.32 -1.11)"/><path class="h" d="M256.17,192.18a4.58,4.58,0,0,0,1.73-.12,1.06,1.06,0,0,0,.67-.57c1-1.87-.64-8.89-.66-9a.52.52,0,0,0-.65-.34.51.51,0,0,0-.35.65c.41,1.41,1.46,7.66.69,8.23a5,5,0,0,1-2.94-.33.52.52,0,0,0-.68.27.5.5,0,0,0,.24.67h0A6.46,6.46,0,0,0,256.17,192.18Z" transform="translate(-123.32 -1.11)"/><path class="f" d="M260.48,196.78a4.05,4.05,0,1,1-8.06-.83Z" transform="translate(-123.32 -1.11)"/><path class="h" d="M249.49,183.76c0,.7.46,1.26.93,1.23s.84-.62.8-1.33-.46-1.26-.95-1.23S249.45,183.05,249.49,183.76Z" transform="translate(-123.32 -1.11)"/><path class="h" d="M263.8,184.53c-.07.7.25,1.32.73,1.37s.92-.49,1-1.19-.25-1.32-.74-1.37S263.89,183.82,263.8,184.53Z" transform="translate(-123.32 -1.11)"/><path class="m" d="M256.48,172.12c-2.92,1.66-6.25,2.43-9.51,3.23s-6.59,1.7-9.38,3.57-5,4.91-5,8.27c-1.77-5.3-.64-11.26,2-16.15s5.17-10.79,9.56-14.24c3.21-2.51,8.38-2.91,12.38-3.63,3.65-.66,8.88.34,10.76,3.94-2.62,1.91-2.4,4.26-3.65,7A17.39,17.39,0,0,1,256.48,172.12Z" transform="translate(-123.32 -1.11)"/><path class="m" d="M275.53,184.57A15.81,15.81,0,0,0,271,175c-1.51-1.5-3.37-2.74-4.43-4.61a37.94,37.94,0,0,1-1.51-3.74,4.74,4.74,0,0,0-2.74-2.79l3.21-7.22c2.28-.14,7,3.48,8.71,5s2.09,4,2.24,6.26A72.55,72.55,0,0,1,275.53,184.57Z" transform="translate(-123.32 -1.11)"/><path class="f" d="M256.37,209.08l-.81,4.79c-9.14-.53-9.85-10.33-9.85-10.33C248.73,208.88,256.37,209.08,256.37,209.08Z" transform="translate(-123.32 -1.11)"/><path class="e" d="M274.92,260c-15.12,26.26-35.72,53.39-53.12,52.68-13.24-.56-26-33.85-31.36-49.8-1.69-5-2.65-8.34-2.65-8.34a184.7,184.7,0,0,1,27.93-.37l5.66,12.91L228,282.27c4.93-6.6,39.4-30.54,39.4-30.54Z" transform="translate(-123.32 -1.11)"/><path class="f" d="M221.37,267.1a77.82,77.82,0,0,0-30.94-4.2c-1.69-5-2.65-8.34-2.65-8.34a184.7,184.7,0,0,1,27.93-.37Z" transform="translate(-123.32 -1.11)"/><path class="q" d="M223.28,291.68h-.07a.64.64,0,0,1-.57-.71,13.14,13.14,0,0,1,5-9.23.65.65,0,0,1,.91.1.64.64,0,0,1-.09.91l-.09.06a12.11,12.11,0,0,0-4.47,8.29A.62.62,0,0,1,223.28,291.68Z" transform="translate(-123.32 -1.11)"/><path class="q" d="M311.56,290.65h-.14a.63.63,0,0,1-.49-.76h0c1.24-5.64,2.5-6.6,2.85-6.76a.66.66,0,0,1,.84.38.63.63,0,0,1-.25.77c-.09.08-1.1,1-2.18,5.89A.62.62,0,0,1,311.56,290.65Z" transform="translate(-123.32 -1.11)"/><path class="o" d="M215.71,254.84a.64.64,0,0,1-.62-.47l-2.59-8.82a.65.65,0,0,1,.51-.76.66.66,0,0,1,.73.39l2.59,8.83a.64.64,0,0,1-.44.8Z" transform="translate(-123.32 -1.11)"/><path class="e" d="M500.5,488.2s0,4.73.12,10c.11,6.61.29,14.09.57,14.22.5.23,14.51-.16,17.15-2.4.92-.79,1.28-3.8,1.33-7.37.1-4.93-.36-10.94-.59-13.66-.08-.93-.14-1.47-.14-1.47l-4,.15Z" transform="translate(-123.32 -1.11)"/><path class="f" d="M500.5,488.2s0,4.73.12,10c6.44-2.92,14.36-.53,19,4.45.1-4.93-.36-10.94-.59-13.66-1.21-.4-2.62-.86-4.09-1.32Z" transform="translate(-123.32 -1.11)"/><path class="g" d="M470.26,527.45c1.1.15,47-1.38,48.85-2.09s1.51-4,1.51-4l-50.76,2.19S469.17,527.34,470.26,527.45Z" transform="translate(-123.32 -1.11)"/><path class="h" d="M469.86,523.54c.78.72,50.76-2.19,50.76-2.19,3.73-5.33.52-13.87-.57-15.9-.18-.34-.3-.49-.32-.44-2.23,4.94-16.48,7.62-16.82,6.08s-1.77-7.32-3.55-6.7-18.26,11.23-23.71,13.39a12.87,12.87,0,0,0-5.07,3.23C469.57,522.18,469.45,523.16,469.86,523.54Z" transform="translate(-123.32 -1.11)"/><path class="i" d="M469.86,523.54c.78.72,50.76-2.19,50.76-2.19,3.73-5.33.52-13.87-.57-15.9a11.58,11.58,0,0,1-4.1,9.28,21.78,21.78,0,0,1-10.43,4.8,68,68,0,0,1-11.75,1l-23.19.53C469.57,522.18,469.45,523.16,469.86,523.54Z" transform="translate(-123.32 -1.11)"/><path class="j" d="M668.21,371.45A19.5,19.5,0,0,1,656,386.2c-48.2,18.29-118.11,13-131.23,12.52-13.67-.53-14-3.7-12.14-8.76a1.47,1.47,0,0,1,.18-.49c2.07-5.33,44.92-8.65,62.54-18.74s13.45-39.14,22.33-73.67S619.56,260,621,259.37c19.88-8.43,33.74-7,48.89,13.07a24.77,24.77,0,0,1,3.84,8.92C679.35,304,672,350.71,668.21,371.45Z" transform="translate(-123.32 -1.11)"/><polygon class="k" points="412.25 509.51 440.55 392.17 428.75 392.17 407.03 509.51 412.25 509.51"/><polygon class="k" points="526.25 509.51 504.54 392.17 492.74 392.17 521.04 509.51 526.25 509.51"/><rect class="k" x="462.85" y="392.16" width="7.59" height="117.35"/><path class="e" d="M568.37,491.34s0,4.72.11,10c.11,6.61.3,14.08.57,14.21.5.24,14.51-.15,17.15-2.39.93-.79,1.28-3.8,1.34-7.37.09-4.94-.37-11-.6-13.67-.08-.92-.14-1.46-.14-1.46l-3.94.14Z" transform="translate(-123.32 -1.11)"/><path class="f" d="M568.37,491.34s0,4.72.11,10c6.44-2.92,14.36-.53,19.06,4.45.09-4.94-.37-11-.6-13.67l-4.08-1.32Z" transform="translate(-123.32 -1.11)"/><path class="g" d="M538.13,530.58c1.1.16,47-1.37,48.85-2.08s1.5-4,1.5-4l-50.76,2.19S537,530.43,538.13,530.58Z" transform="translate(-123.32 -1.11)"/><path class="h" d="M537.72,526.68c.78.72,50.76-2.19,50.76-2.19,3.73-5.34.52-13.88-.57-15.9-.17-.34-.29-.49-.32-.44-2.23,4.94-16.48,7.62-16.81,6.07s-1.78-7.31-3.56-6.69S549,518.75,543.51,520.92a13,13,0,0,0-5.06,3.22C537.43,525.34,537.31,526.34,537.72,526.68Z" transform="translate(-123.32 -1.11)"/><path class="i" d="M537.72,526.68c.78.72,50.76-2.19,50.76-2.19,3.73-5.34.52-13.88-.57-15.9a11.56,11.56,0,0,1-4.09,9.28,21.9,21.9,0,0,1-10.44,4.8,67.94,67.94,0,0,1-11.74.94l-23.19.53C537.43,525.34,537.31,526.34,537.72,526.68Z" transform="translate(-123.32 -1.11)"/><path class="l" d="M668.21,371.11A19.5,19.5,0,0,1,656,385.85c-48.16,18.29-118.11,13-131.23,12.49-13.67-.53-14-3.7-12.14-8.76,4.21.24,8.42.48,12.63.66,17.32.71,34.88.5,51.91-3.1a108.16,108.16,0,0,0,27.28-9.51c22-11.36,38.84-31.15,50.75-52.91C662.77,310.8,668.57,296,673.69,281,679.35,303.7,672,350.34,668.21,371.11Z" transform="translate(-123.32 -1.11)"/><path class="h" d="M606.16,346.55c-1.21,19.13-12.42,31.72-18.87,36.54a12.87,12.87,0,0,1-3.77,2.16c-2.56.66-24.16,4.75-38.78,7.49-7.71,1.46-13.49,2.53-13.49,2.53l-10.6,95.6a2.68,2.68,0,0,1-2.66,2.39h-15.8a2.68,2.68,0,0,1-2.68-2.59c-.6-16.43-3.68-105.92.39-116.38,4.47-11.52,66.84-32.74,66.84-32.74C603.34,329.49,606.16,346.55,606.16,346.55Z" transform="translate(-123.32 -1.11)"/><path class="i" d="M596.51,372.56a39.86,39.86,0,0,1-9.22,10.53,12.87,12.87,0,0,1-3.77,2.16c-2.56.66-24.16,4.75-38.78,7.49A56.81,56.81,0,0,1,555,372c9.63-12.36,23.39-20.86,37.63-27.39l7.35,7.65A29.91,29.91,0,0,1,596.51,372.56Z" transform="translate(-123.32 -1.11)"/><path class="h" d="M654.92,348.34c-2.1,18.87-14.14,31-17.38,32.24C633.78,382.1,587,397.09,587,397.09l1.48,98.57-8.9,1.13-.81.1-10.92,1.45s-17.6-106.08-14.59-118.06,62.21-40.85,62.21-40.85c13.27-8.54,23.63-8,30.43-5.69a13.55,13.55,0,0,1,7.57,6.54,5.72,5.72,0,0,1,.52,1.16A13.6,13.6,0,0,1,654.92,348.34Z" transform="translate(-123.32 -1.11)"/><path class="i" d="M653.43,340.24c-4,17.31-15,28.61-18.48,30s-39.23,12.89-52.75,17.23a7.29,7.29,0,0,0-5,7l1.57,102.39.81-.1L578,395.1a7.28,7.28,0,0,1,5-7.05c13.8-4.41,48.8-15.71,52.27-17.06S649.74,358.46,654,341.4A5.72,5.72,0,0,0,653.43,340.24Z" transform="translate(-123.32 -1.11)"/><rect class="r" x="197.36" y="320.45" width="125.2" height="5.03" rx="0.95"/><path class="s" d="M350,321.26h92.93l3.84-14.58,12.72-48.34a3.67,3.67,0,0,0-2.21-4.68,3.83,3.83,0,0,0-1.42-.21H372.7a5.76,5.76,0,0,0-2.35.53,6.87,6.87,0,0,0-3.83,4.36Z" transform="translate(-123.32 -1.11)"/><path class="t" d="M350.26,321.57h92.93L447,307a71.82,71.82,0,0,1-8,.95,65.53,65.53,0,0,1-68.43-53.67,6.87,6.87,0,0,0-3.83,4.36Z" transform="translate(-123.32 -1.11)"/><path class="u" d="M321.54,229l-11.1,46.67a3.24,3.24,0,0,1-3,2.41H269.72a1.85,1.85,0,0,1-1.93-1.77,2,2,0,0,1,.09-.64L279,229a3.27,3.27,0,0,1,3-2.41H319.7a1.85,1.85,0,0,1,1.93,1.75A1.82,1.82,0,0,1,321.54,229Z" transform="translate(-123.32 -1.11)"/><path class="v" d="M297,244.92a1.94,1.94,0,0,0-.31.86,6,6,0,0,1-1.45,4.45,1.22,1.22,0,0,0-.17,1.69,1.47,1.47,0,0,1-.07,1.7,13.57,13.57,0,0,0-.87,1.4c-.33.69-.88,1.46-.78,2.08a3.92,3.92,0,0,1-1.91,4c-1.43.87-3,1.6-4.51,2.36s-3,1.47-4.58,2.2a35.65,35.65,0,0,1-4.73,2c-1.82.55-3.75.76-5.61,1.17h-.22a21.5,21.5,0,0,0-2.48.76l5.08-21.25,5.78-.6c1.69-.18,3.34-.36,5-.52a10.34,10.34,0,0,0,2.29-.14c1.59-.53,3.12-1.22,4.67-1.86.2-.08.32-.32.5-.49a4.22,4.22,0,0,1,3.4-1.5C297.12,243.25,297.5,244,297,244.92Z" transform="translate(-123.32 -1.11)"/><path class="g" d="M297.16,226.53l-15.11.06a3.58,3.58,0,0,1,3.21-3.93,3.48,3.48,0,0,1,.79,0C291.73,222.74,297.16,226.53,297.16,226.53Z" transform="translate(-123.32 -1.11)"/><path class="w" d="M312.3,275.47c-7.65-1.51-42.77-.76-42.77-.76s19.91-49.76,15.28-51.93l38.91-1.25C330.33,223.23,312.3,275.47,312.3,275.47Z" transform="translate(-123.32 -1.11)"/><path class="e" d="M363.87,251.75c-1.33,1.22-2.36,2.76-3.65,4a31.57,31.57,0,0,1-4.35,3.74,27.79,27.79,0,0,0-6,5.86c-.6.76-1.2,1.52-1.81,2.26l-4.83,5.87-.62.71-11.86-9c.88-.85,1.66-1.6,2.41-2.38,2.58-2.66,5.12-5.37,7.74-8a13,13,0,0,0,3.41-5.35c.84-2.84,1.57-5.7,2.4-8.55a4.83,4.83,0,0,1,2.41-2.87c1.38-.8,2.62-1.82,3.94-2.72.4-.22.8-.43,1.22-.62a1.43,1.43,0,0,0,.52-.36c.82-1,1.61-2.08,2.43-3.12l2.89-3.29c1.17-1.26,2.32-2.54,3.54-3.76a18.64,18.64,0,0,1,2.77-2.4,1.58,1.58,0,0,1,2.22.07l.09.1a2,2,0,0,1,0,2.46,61.14,61.14,0,0,1-5,6c-.69.69-.72,1.62-1.47,2.22a7.39,7.39,0,0,0-1.71,2.43,3.45,3.45,0,0,0,.46-.12q.53-.26,1.08-.48c1.91-.54,3.2.62,2.85,2.57-.09.56-.09.9.53,1.21,1.29.66,1.56,1.87.93,3.41-.24.57-.51,1.14-.78,1.75,1.32,1,1.05,2.32.73,3.61A9,9,0,0,1,363.87,251.75Z" transform="translate(-123.32 -1.11)"/><path class="e" d="M297,244.92a1.94,1.94,0,0,0-.31.86,6,6,0,0,1-1.45,4.45,1.22,1.22,0,0,0-.17,1.69,1.47,1.47,0,0,1-.07,1.7,13.57,13.57,0,0,0-.87,1.4c-.33.69-.88,1.46-.78,2.08a3.92,3.92,0,0,1-1.91,4c-1.43.87-3,1.6-4.51,2.36s-3,1.47-4.58,2.2a35.65,35.65,0,0,1-4.73,2c-1.82.55-3.75.76-5.61,1.17h-.22a21.5,21.5,0,0,0-2.48.76,16.11,16.11,0,0,0-4.65,2.68c-3.28,2.79-6.45,5.7-9.67,8.55-.63.57-1.29,1.11-2,1.72-1.41-5.38-2.8-10.66-4.14-15.72,2.65-1.6,5.18-3,7.55-4.6,2.07-1.39,3.94-3.08,5.94-4.59h.05a7.27,7.27,0,0,0,2.27-2.82c.57-1.2,1.14-2.43,1.81-3.56,1.15-2,2-4.08,3.82-5.59s2.54-3.77,4.88-4.58a3.17,3.17,0,0,0,1.12-.72l-1.86,7.86v.07h0l5.78-.6c1.69-.18,3.34-.36,5-.52a10.34,10.34,0,0,0,2.29-.14c1.59-.53,3.12-1.22,4.67-1.86.2-.08.32-.32.5-.49a4.22,4.22,0,0,1,3.4-1.5C297.12,243.25,297.5,244,297,244.92Z" transform="translate(-123.32 -1.11)"/><path class="e" d="M527.18,265.75c-3.45,2.47-6.81,4.88-10.26,7.38l-1.75-2.86c-.7-1.13-1.38-2.25-2.07-3.38-1.14-1.81-2.23-3.66-3.43-5.42a15.17,15.17,0,0,1-1.46-2.38,5.79,5.79,0,0,1-.45-1.13,4.71,4.71,0,0,0-2.13-2.74A28.35,28.35,0,0,0,497.8,252a6.49,6.49,0,0,1-1.69-.78c-.74-.42-1.39-.94-2.14-1.33a27.55,27.55,0,0,0-2.94-1.29,2.16,2.16,0,0,1-1.35-1.69,1.17,1.17,0,0,0-.48-.62c-.32-.26-.75-.4-1.07-.67-.58-.48-1.52-.91-1.32-1.81s-.21-1.28-.89-1.65a1.39,1.39,0,0,1-.72-1.84,2,2,0,0,1,.14-.25,17.94,17.94,0,0,0,1-1.57c.15-.3.23-.9.07-1-1.82-1.51-3.69-2.95-5.52-4.44-.28-.22-.64-.7-.54-.92a1.21,1.21,0,0,1,.92-.65,8.12,8.12,0,0,1,2.67.48,23.07,23.07,0,0,1,3.73,2,5,5,0,0,0,4.07,1.07c1-.21,1.39.31,1.31,1.36,0,.42,0,.7.48.82.81.23,1.63.49,2.44.76,1.31.43,2.62.87,3.94,1.28a1.19,1.19,0,0,0,.53,0,2,2,0,0,0,.17-.23,10.18,10.18,0,0,0-1.14-1.32c-1.2-1-2.48-1.95-3.68-3a4.36,4.36,0,0,1-1.78-4.06c.2-1.42,1.22-1.88,2.35-1a31,31,0,0,1,2.65,2.47,16.82,16.82,0,0,0,4.14,3.52,9.57,9.57,0,0,1,2,1.16,52.78,52.78,0,0,1,4.19,4,21.68,21.68,0,0,1,2.71,3.68c1.13,1.87,1.93,3.88,3.37,5.58.34.41.65.83.94,1.26.62.92,1.17,1.91,1.75,2.85a52.17,52.17,0,0,0,7.41,9.88A22.57,22.57,0,0,1,527.18,265.75Z" transform="translate(-123.32 -1.11)"/><path class="f" d="M527.18,265.75c-3.45,2.47-6.81,4.88-10.26,7.38l-1.75-2.86c-.7-1.13-1.38-2.25-2.07-3.38-1.14-1.81-2.23-3.66-3.43-5.42a15.17,15.17,0,0,1-1.46-2.38l.68-.14a10.75,10.75,0,0,0,6.64-5.63,13.49,13.49,0,0,0,.82-2c.62.92,1.17,1.91,1.75,2.85a52.17,52.17,0,0,0,7.41,9.88C526.06,264.56,526.59,265.13,527.18,265.75Z" transform="translate(-123.32 -1.11)"/><path class="m" d="M645.07,249.34h27.2a157,157,0,0,1-31.22-72.58l-31.83,35.58a78.56,78.56,0,0,0,28.42,32.78A74.66,74.66,0,0,0,645.07,249.34Z" transform="translate(-123.32 -1.11)"/><path class="m" d="M624.62,200.11c.07,9-1.64,18.48-7.06,25.74a30.32,30.32,0,0,1-15.11,10.65,32.38,32.38,0,0,1-18.53.14c-1.36-.38-2.68-.86-4-1.36l-4.06-3.39c-.42.34-.85.67-1.29,1-2.21-1-4.37-2.07-6.61-3a50.7,50.7,0,0,0,16.9-38h8.29v-3.45Z" transform="translate(-123.32 -1.11)"/><path class="m" d="M642.62,181.91a.43.43,0,0,1,0-.16c-1.18-3.55-2.53-7.62-4.2-11.45-3.67-8.43-15.09-19.44-33.71-15.5S585,177.92,584.58,195.73a43.82,43.82,0,0,1-.78,7.32h62.61C644,196.17,643.34,189.22,642.62,181.91Z" transform="translate(-123.32 -1.11)"/><path class="e" d="M629.23,192.34c-.09,1.23,0,17.17,1.24,35.78l-18.14,1.1L611,211.94s-10.44,1.2-13.32-9.72-3.12-33.24-2.4-35.16,19.56-11.64,28.92-2.52,8.88,19.08,9.24,21.12S634.45,192.91,629.23,192.34Z" transform="translate(-123.32 -1.11)"/><path class="h" d="M601.64,183a.56.56,0,0,1-.37-.11.51.51,0,0,1-.07-.71,2.84,2.84,0,0,1,.5-.48,2.71,2.71,0,0,1,2.77-.26,2.93,2.93,0,0,1,.56.35.49.49,0,0,1,.08.69h0a.48.48,0,0,1-.69.08h0c-.11-.08-.23-.15-.35-.22a1.77,1.77,0,0,0-1.76.17,2.2,2.2,0,0,0-.31.3A.49.49,0,0,1,601.64,183Z" transform="translate(-123.32 -1.11)"/><path class="h" d="M618.61,182.42a.46.46,0,0,1-.34-.18A2.8,2.8,0,0,0,618,182a1.75,1.75,0,0,0-1.75-.17,2.92,2.92,0,0,0-.37.24.51.51,0,0,1-.71-.06.49.49,0,0,1,.06-.69h0a3.22,3.22,0,0,1,.58-.38,2.71,2.71,0,0,1,2.77.26,2.56,2.56,0,0,1,.48.45.51.51,0,0,1-.06.71A.52.52,0,0,1,618.61,182.42Z" transform="translate(-123.32 -1.11)"/><path class="h" d="M611.19,195.34a4.09,4.09,0,0,1-1.67-.11,1,1,0,0,1-.65-.55c-1-1.81.62-8.6.64-8.66a.52.52,0,0,1,1,.3c-.4,1.36-1.41,7.4-.67,8a4.94,4.94,0,0,0,2.84-.31.51.51,0,0,1,.66.26h0a.49.49,0,0,1-.26.66h0A6.46,6.46,0,0,1,611.19,195.34Z" transform="translate(-123.32 -1.11)"/><path class="f" d="M607,199.83a3.92,3.92,0,1,0,7.8-.81Z" transform="translate(-123.32 -1.11)"/><path class="h" d="M617.65,187.24c0,.68-.44,1.22-.9,1.19s-.81-.61-.77-1.29.44-1.22.91-1.19S617.69,186.55,617.65,187.24Z" transform="translate(-123.32 -1.11)"/><path class="h" d="M603.8,188c.07.68-.24,1.28-.7,1.32s-.89-.47-1-1.15.24-1.27.71-1.32S603.73,187.34,603.8,188Z" transform="translate(-123.32 -1.11)"/><path class="m" d="M610.89,176a34.85,34.85,0,0,0,9.2,3.13,28.38,28.38,0,0,1,9.07,3.45c2.7,1.8,4.85,4.74,4.88,8,1.71-5.12.62-10.88-2-15.61s-5-10.43-9.24-13.76c-3.1-2.43-8.1-2.82-12-3.52-3.52-.64-8.58.33-10.39,3.82,2.52,1.84,2.31,4.11,3.52,6.81A16.83,16.83,0,0,0,610.89,176Z" transform="translate(-123.32 -1.11)"/><path class="m" d="M592.48,188a15.24,15.24,0,0,1,4.35-9.25c1.47-1.45,3.26-2.65,4.29-4.45a35.54,35.54,0,0,0,1.46-3.62,4.56,4.56,0,0,1,2.65-2.7l-3.1-7c-2.21-.13-6.73,3.36-8.43,4.79s-2,3.85-2.16,6A70,70,0,0,0,592.48,188Z" transform="translate(-123.32 -1.11)"/><path class="f" d="M621.3,206.57s-.68,9.47-9.52,10L611,212S618.38,211.74,621.3,206.57Z" transform="translate(-123.32 -1.11)"/><path class="x" d="M663,234.09c-1.45,8.77-4.69,32.62-5.92,43-.32-.52-.48-.8-.48-.8a36.45,36.45,0,0,0-1.34,4.19c-.28,1.06-.5,2.15-.72,3.29-3.87,20.85,2.06,53.71,2.06,53.71-4.56,6.51-74.45,15.68-70.8,0a73.05,73.05,0,0,0,1.55-13.76c.48-14.56-1.55-34.1-1.55-34.1s-.11.14-.31.43c-1,1.38-5,2-9.55,7.44l.48-47.75c.93-1.8,1.83-3.43,2.69-4.76,5.28-8.21,16.2-12.52,23.34-14.54,3-.85,5.26-1.29,6.23-1.47l.51-.09s26.61-2.71,30.54-2.9h.48a2.51,2.51,0,0,0,.84.27,17.16,17.16,0,0,1,1.88.32,108.4,108.4,0,0,1,13.66,4.11A25.79,25.79,0,0,1,663,234.09Z" transform="translate(-123.32 -1.11)"/><path class="y" d="M585.45,290.7a.63.63,0,0,1-.61-.44c-3.14-9.54-1.28-17.47,6-25.72a.66.66,0,0,1,.91-.06.65.65,0,0,1,0,.91h0c-7,7.87-8.77,15.41-5.78,24.46a.65.65,0,0,1-.42.82h0Z" transform="translate(-123.32 -1.11)"/><g class="z"><path class="x" d="M656.56,337.49c-4.56,6.51-74.45,15.68-70.8,0a73.05,73.05,0,0,0,1.55-13.76,22,22,0,0,0,12.59,3.72c6.21,0,12.22-2.25,17.72-5.13a75.82,75.82,0,0,0,36.83-44l.77,2.17c-.27,1.06-.51,2.16-.72,3.29C650.63,304.64,656.56,337.49,656.56,337.49Z" transform="translate(-123.32 -1.11)"/></g><path class="x" d="M578.38,294.89s-19.8,21.58-29.89,23.16-39-55-39-55l10.69-8.32,31.29,35.86,24.73-40.25Z" transform="translate(-123.32 -1.11)"/><path class="e" d="M613.48,336.05a3.93,3.93,0,0,1,2.93-1.77,1.69,1.69,0,0,0,.63-.13c1.29-.82,2.61-1.62,3.83-2.54a9.07,9.07,0,0,0,1.31-1.64c1-1.19,2-2.35,3-3.52l3.49-4.05c-.4-.08-.8-.2-1.19-.24a7.8,7.8,0,0,0-3.42.45,3.72,3.72,0,0,1-3.61-1,1.36,1.36,0,0,1-.45-1.06c0-.25.56-.46.9-.6a8.55,8.55,0,0,0,2-.69c1.82-1.35,4-.79,6-1.31s4.15-.08,6.22.07c1.21.08,2.42.29,3.63.48a6.76,6.76,0,0,0,3.31-.21l.21-.06,5.47-2.63c2.81,4.11,5.44,8.33,8,12.62-5.38,1.88-9.39,3.16-10.68,3.57-1.13,1.08-2.18,2.26-3.4,3.22a35.2,35.2,0,0,1-4,2.5c-1.34.79-2.68,1.56-4,2.31a39.43,39.43,0,0,1-4.14,2.14,3.53,3.53,0,0,1-4-.63c-.41-.41-1.28-.39-2-.5a13.07,13.07,0,0,0-1.53-.08,1.27,1.27,0,0,1-1.31-.84,1.14,1.14,0,0,0-1.37-.75,5.43,5.43,0,0,1-4.11-1.24,1.76,1.76,0,0,0-.81-.2C613.33,337.56,613,336.89,613.48,336.05Z" transform="translate(-123.32 -1.11)"/><path class="x" d="M716.39,295.1c-4.77,8.59-68,38.18-68,38.18l-5.5-16.94,36.91-22.66-22.75-16.43c1.88-16,3.82-30.75,5.92-43C664.37,235,721.16,286.52,716.39,295.1Z" transform="translate(-123.32 -1.11)"/><path class="y" d="M642.89,317a.63.63,0,0,1-.63-.66.66.66,0,0,1,.3-.54l36.07-22.16-22-15.86a.65.65,0,0,1-.08-.91.66.66,0,0,1,.84-.14l22.75,16.43a.66.66,0,0,1,.26.55.61.61,0,0,1-.3.52l-36.9,22.67A.5.5,0,0,1,642.89,317Z" transform="translate(-123.32 -1.11)"/><path class="e" d="M640.34,229c0,6.47-8.45,22.33-19,22.33-9.73,0-17.83-15.11-19-20.92,3-.85,5.26-1.29,6.23-1.47l.51-.09s26.61-2.71,30.54-2.9A7.7,7.7,0,0,1,640.34,229Z" transform="translate(-123.32 -1.11)"/><path class="f" d="M640.34,229c0,6.47-8.45,22.33-19,22.33-3.38,0-6.54-1.82-9.29-4.42a12.32,12.32,0,0,0,7.36,2.79c10.51,0,19-15.85,19-22.33a7.26,7.26,0,0,0-.12-1.31c.62-.06,1.1-.1,1.42-.11A7.68,7.68,0,0,1,640.34,229Z" transform="translate(-123.32 -1.11)"/><path class="f" d="M600.71,328.9v6.22c0,2.38-1.93,4.31-3.5,5.13H195.89c-3.2-.82-5.13-2.75-5.13-5.13V328.9a4.31,4.31,0,0,1,4.3-4.32H596.39a4.32,4.32,0,0,1,4.32,4.3Z" transform="translate(-123.32 -1.11)"/><path class="w" d="M591.22,340v8.36a6,6,0,0,1-6,6.06H206.3a6.06,6.06,0,0,1-6.06-6.06V340Z" transform="translate(-123.32 -1.11)"/><rect class="k" x="76.92" y="338.86" width="390.98" height="5.34"/><polygon class="k" points="45.74 531.26 113.23 353.25 100.63 353.25 33.14 531.26 45.74 531.26"/><polygon class="k" points="234.6 531.26 167.11 353.25 154.51 353.25 222 531.26 234.6 531.26"/><rect class="k" x="73.12" y="425.79" width="119.63" height="10.51"/><polygon class="k" points="322.83 531.26 390.32 353.25 377.71 353.25 310.22 531.26 322.83 531.26"/><polygon class="k" points="511.69 531.26 444.2 353.25 431.59 353.25 499.08 531.26 511.69 531.26"/><rect class="k" x="350.21" y="425.79" width="119.63" height="10.51"/><circle class="w" cx="511.69" cy="83.91" r="33.13"/><circle class="w" cx="373.4" cy="180.39" r="33.13"/><path class="l" d="M498.16,166.48h0a8.66,8.66,0,0,1-11.83-3.08h0A8.66,8.66,0,0,1,498.16,166.48Z" transform="translate(-123.32 -1.11)"/><path class="i" d="M501,161.15c.06.7-.67,1.15-1.16,1.65a5.7,5.7,0,0,0-1.19,3.18l-1.23,7.89-.55-2.11a19.85,19.85,0,0,1,1.18-9.59,4.87,4.87,0,0,1,.68-1.27,1.66,1.66,0,0,1,1.26-.61A1,1,0,0,1,501,161.15Z" transform="translate(-123.32 -1.11)"/><path class="v" d="M515.58,180.74a23.76,23.76,0,0,1-4.65,14.48,8.85,8.85,0,0,1-3.83,3.26,8.62,8.62,0,0,1-3.6.37,26.28,26.28,0,0,1-3.07-.39,16.3,16.3,0,0,0-6.07,0,26.28,26.28,0,0,1-3.07.39,8.62,8.62,0,0,1-3.6-.37,8.85,8.85,0,0,1-3.83-3.26,12.29,12.29,0,0,1-.81-1.18,23.67,23.67,0,0,1-3.84-13.3,16,16,0,0,1,1.11-5.92,9.77,9.77,0,0,1,3.76-4.61,11.08,11.08,0,0,1,6.67-1.38,32.71,32.71,0,0,1,6.64,1.48,32.86,32.86,0,0,1,6.64-1.48,11.12,11.12,0,0,1,6.68,1.38,9.08,9.08,0,0,1,1,.72,10.35,10.35,0,0,1,2.78,3.89A15.81,15.81,0,0,1,515.58,180.74Z" transform="translate(-123.32 -1.11)"/><path class="aa" d="M515.58,180.74a23.76,23.76,0,0,1-4.65,14.48,8.85,8.85,0,0,1-3.83,3.26,8.62,8.62,0,0,1-3.6.37,26.28,26.28,0,0,1-3.07-.39,16.3,16.3,0,0,0-6.07,0,26.28,26.28,0,0,1-3.07.39,8.62,8.62,0,0,1-3.6-.37,8.85,8.85,0,0,1-3.83-3.26,12.29,12.29,0,0,1-.81-1.18,19.76,19.76,0,0,0,12-1.17,26.77,26.77,0,0,0,16.66-21.94,10.35,10.35,0,0,1,2.78,3.89A15.81,15.81,0,0,1,515.58,180.74Z" transform="translate(-123.32 -1.11)"/><path class="ab" d="M481.06,181a11.58,11.58,0,0,1,2.94-7.37,8.45,8.45,0,0,1,7.32-2.65,3.71,3.71,0,0,1,2.06,1,1.85,1.85,0,0,1,.39,2.12c-.51.9-1.72,1-2.73,1.22a9.37,9.37,0,0,0-6.09,5.35,18.73,18.73,0,0,0-1.28,3.92c-.16.69-.18,3.16-.88,3.43C481.42,188.46,481,181.88,481.06,181Z" transform="translate(-123.32 -1.11)"/><path class="ac" d="M659.15,82.08a13.66,13.66,0,0,1-.2,1.43A23.89,23.89,0,0,1,618.1,95.75a22.68,22.68,0,0,1-1.84-2.19,23.85,23.85,0,0,1-4.56-11.35.28.28,0,0,1,0-.13Z" transform="translate(-123.32 -1.11)"/><path class="ad" d="M635.42,75.43c-13.1,0-23.72,2.91-23.72,6.49s10.62,6.5,23.72,6.5,23.73-2.91,23.73-6.5S648.53,75.43,635.42,75.43Zm0,12.48c-13.68,0-23.21-3.16-23.21-6s9.53-6,23.21-6,23.22,3.15,23.22,6-9.54,6-23.22,6Z" transform="translate(-123.32 -1.11)"/><path class="ae" d="M635.42,75.94c-13.68,0-23.21,3.15-23.21,6s9.53,6,23.21,6,23.22-3.16,23.22-6S649.1,75.94,635.42,75.94Z" transform="translate(-123.32 -1.11)"/><path class="j" d="M631,77.9l-.55.46a1.8,1.8,0,0,1-.1.83.62.62,0,0,1-.12.19c1.87-.83,3.89-2.57,3.24-.69-.77,2.28-4.84,3.54-7,3l-.14-.07a20.84,20.84,0,0,1-3.13-2.73c-2.28-2.24-1.73-3-.17-1.93,1,.69,1.92,1.4,2.44,1.71a4.84,4.84,0,0,1-.58-.82,2.23,2.23,0,0,1-.3-1.47h0c-1.39-2.31-1.73-3.58-.66-3.61.59,0,1.17.9,1.64,1.85a.19.19,0,0,1,.07-.14,2.87,2.87,0,0,0,.36-1.41h0q-.18-.63-.36-1.17c-.63-1.89.22-2.63,1.53-.85a.52.52,0,0,1,.37,0,.94.94,0,0,1,.57.64,2.34,2.34,0,0,0,.39.81.53.53,0,0,0,.28.16,4.83,4.83,0,0,0-.48-3.73c-1.07-2.1-.81-3.87,1.21-2.29a3.14,3.14,0,0,1,1.15,1.83,1,1,0,0,1,.79.42h0a1.63,1.63,0,0,1,0,1.3,2.81,2.81,0,0,0-.19,1.31h0c1-1.34,2-2.91,2.43-1.75s-1.19,3.29-2.56,4.94a1.28,1.28,0,0,0,.11.35l.09.31c1.07-.89,2.26-1.82,2.67-1.8C634.8,73.58,634,75.34,631,77.9Z" transform="translate(-123.32 -1.11)"/><path class="l" d="M631,77.9l-.55.46a1.8,1.8,0,0,1-.1.83.62.62,0,0,1-.12.19c1.87-.83,3.89-2.57,3.24-.69-.77,2.28-4.84,3.54-7,3l-.14-.07a3.16,3.16,0,0,0,.75-1.56,4.84,4.84,0,0,1,.76-2c.41-.49,1-.76,1.41-1.26a3.68,3.68,0,0,0,.55-1.36c.49-2,1-3.93,1.48-5.89q.1-.36.18-.75h0a1.63,1.63,0,0,1,0,1.3,2.81,2.81,0,0,0-.19,1.31h0c1-1.34,2-2.91,2.43-1.75S632.47,73,631.1,74.6a1.28,1.28,0,0,0,.11.35l.09.31c1.07-.89,2.26-1.82,2.67-1.8C634.8,73.58,634,75.34,631,77.9Z" transform="translate(-123.32 -1.11)"/><path class="y" d="M659,83.51A23.89,23.89,0,0,1,618.1,95.75c7,1.72,14.24,2.56,21.29,1.24C647.45,95.49,655.23,90.76,659,83.51Z" transform="translate(-123.32 -1.11)"/><path class="j" d="M656.8,80h0a2.84,2.84,0,0,1,1.09-.75,1.61,1.61,0,0,0,.91-.9h0a1,1,0,0,0-.24-.87,3,3,0,0,0,.57-2.09c-.21-2.56-1.68-1.54-2.51.67a4.78,4.78,0,0,1-2.4,2.88c-.37-.69,1.1-1.87,0-2.24.42-2.17-.71-2.29-1.66-.55L652,77.2h0a3.09,3.09,0,0,1-1.29.71h-.15c.38-1,.67-2,.25-2.46-.75-.76-1.45.35-2.2,2.94h0a2.18,2.18,0,0,0-.88,1.21,4.35,4.35,0,0,0-.21,1c-.13-.58-.22-1.73-.4-2.95-.28-1.87-1.21-1.76-1.3,1.44a22.11,22.11,0,0,0,.12,4.15.38.38,0,0,0,0,.15,7.91,7.91,0,0,0,4.56,3.18,17,17,0,0,0,3-.62c-.09-.45-1.91-.77-3.31-1.38a1.36,1.36,0,0,0,.89-.53l.71.09c3.9.52,5.81-.08,5.26-.72-.26-.32-1.75-.56-3.13-.75a5.73,5.73,0,0,0,.35-.59c2.15-.11,4.82-.39,5.37-1.47S658.41,79.8,656.8,80Z" transform="translate(-123.32 -1.11)"/><path class="l" d="M656.8,80h0a2.84,2.84,0,0,1,1.09-.75,1.61,1.61,0,0,0,.91-.9h0l-.67.37-5.33,2.88a3.76,3.76,0,0,1-1.36.52c-.63.06-1.25-.22-1.89-.19a5,5,0,0,0-2,.8,3,3,0,0,1-1.65.51.38.38,0,0,0,0,.15A7.87,7.87,0,0,0,651,86.66a.63.63,0,0,1,.61-.27,2.66,2.66,0,0,0,1.14-.25c.26-.08.52-.17.77-.27-.24-.42-2-.73-3.27-1.31a1.36,1.36,0,0,0,.89-.53l.71.09c3.9.52,5.81-.08,5.26-.72-.26-.32-1.75-.56-3.13-.75a5.73,5.73,0,0,0,.35-.59c2.15-.11,4.82-.39,5.37-1.47S658.41,79.8,656.8,80Z" transform="translate(-123.32 -1.11)"/><path class="j" d="M644.44,78.25l-.21.69a1.8,1.8,0,0,1,.36.75.81.81,0,0,1,0,.22c1.13-1.71,1.88-4.26,2.36-2.33.57,2.33-2.17,5.6-4.27,6.35h-.16a20.38,20.38,0,0,1-4.11-.6c-3.13-.65-3.07-1.58-1.19-1.53,1.24,0,2.38.14,3,.12a4.66,4.66,0,0,1-.93-.38,2.15,2.15,0,0,1-1-1.08h0c-2.42-1.2-3.39-2.08-2.51-2.69.49-.34,1.47.13,2.38.68v-.16a3,3,0,0,0-.47-1.38h0c-.33-.29-.64-.55-.94-.79-1.55-1.25-1.23-2.33.83-1.54a.56.56,0,0,1,.22-.24,1,1,0,0,1,.83.23,2.11,2.11,0,0,0,.75.47.65.65,0,0,0,.34,0,4.9,4.9,0,0,0-2.43-2.87c-2-1.2-2.77-2.83-.22-2.59a3.15,3.15,0,0,1,2,.93,1,1,0,0,1,.9-.09h0a1.66,1.66,0,0,1,.73,1.06,2.79,2.79,0,0,0,.55,1.21h0c.1-1.65.1-3.52,1.1-2.78s.78,3.41.51,5.54l.29.23.23.22a9,9,0,0,1,1.28-3C645.37,72.52,645.63,74.5,644.44,78.25Z" transform="translate(-123.32 -1.11)"/><path class="l" d="M644.44,78.25l-.21.69a1.8,1.8,0,0,1,.36.75.81.81,0,0,1,0,.22c1.13-1.71,1.88-4.26,2.36-2.33.57,2.33-2.17,5.6-4.27,6.35h-.16a3.24,3.24,0,0,0-.2-1.71,4.68,4.68,0,0,1-.45-2.09c.08-.63.46-1.19.51-1.82a4,4,0,0,0-.27-1.44q-1-2.88-1.93-5.76c-.08-.24-.16-.48-.25-.73h0a1.66,1.66,0,0,1,.73,1.06,2.79,2.79,0,0,0,.55,1.21h0c.1-1.65.1-3.52,1.1-2.78s.78,3.41.51,5.54l.29.23.23.22a9,9,0,0,1,1.28-3C645.37,72.52,645.63,74.5,644.44,78.25Z" transform="translate(-123.32 -1.11)"/><path class="j" d="M615.8,80.21c-.12-.24-.23-.46-.33-.64a1.57,1.57,0,0,1-.78-.28.81.81,0,0,1-.16-.16c.39,2,1.64,4.36,0,3.31-2-1.26-2.38-5.51-1.41-7.52l.11-.12a22.3,22.3,0,0,1,3.35-2.45c2.69-1.73,3.3-1,1.92.26-.9.84-1.8,1.57-2.21,2a6.31,6.31,0,0,1,.93-.39,2.27,2.27,0,0,1,1.5,0h0c2.57-.84,3.87-.89,3.68.16-.12.58-1.15.94-2.18,1.18l.12.11a3,3,0,0,0,1.31.66h0a11.45,11.45,0,0,0,1.22-.09c2-.2,2.51.8.49,1.68a.59.59,0,0,1,0,.37,1,1,0,0,1-.76.42,2.35,2.35,0,0,0-.87.2.56.56,0,0,0-.22.24,4.79,4.79,0,0,0,3.74.35c2.29-.57,4,.07,2,1.69a3,3,0,0,1-2,.71,1,1,0,0,1-.59.69h0a1.59,1.59,0,0,1-1.27-.25,2.9,2.9,0,0,0-1.24-.48h0c1.09,1.25,2.4,2.58,1.17,2.75s-2.94-1.89-4.25-3.59h-.36a1.82,1.82,0,0,1-.33,0c.63,1.25,1.27,2.62,1.16,3C619.1,85,617.53,83.72,615.8,80.21Z" transform="translate(-123.32 -1.11)"/><path class="l" d="M615.8,80.21c-.12-.24-.23-.46-.33-.64a1.57,1.57,0,0,1-.78-.28.81.81,0,0,1-.16-.16c.39,2,1.64,4.36,0,3.31-2-1.26-2.38-5.51-1.41-7.52l.11-.12a3.1,3.1,0,0,0,1.35,1.08,4.71,4.71,0,0,1,1.77,1.18c.39.51.51,1.17.92,1.66a3.54,3.54,0,0,0,1.2.83l5.33,2.79.69.34h0a1.59,1.59,0,0,1-1.27-.25A2.9,2.9,0,0,0,622,82h0c1.09,1.25,2.4,2.58,1.17,2.75s-2.94-1.89-4.25-3.59a2.16,2.16,0,0,0-.36,0,1.82,1.82,0,0,1-.33,0c.63,1.25,1.27,2.62,1.16,3C619.1,85,617.53,83.72,615.8,80.21Z" transform="translate(-123.32 -1.11)"/><path class="j" d="M631.32,84.27a4.8,4.8,0,0,1-3.56,1.2.56.56,0,0,1,.11-.32,2.32,2.32,0,0,1,.71-.53.93.93,0,0,0,.52-.68.6.6,0,0,0-.12-.36c1.49-1.63.6-2.32-1.13-1.34-.33.19-.69.38-1.08.58h0a2.89,2.89,0,0,1-1.46-.07h-.16c.85-.64,1.65-1.38,1.51-2-.24-1-1.42-.46-3.42,1.35h0a2.28,2.28,0,0,0-1.39.57,5.28,5.28,0,0,0-.69.73c.19-.57.72-1.6,1.2-2.73.74-1.73-.11-2.13-1.86.54a22.23,22.23,0,0,0-2.07,3.6V85a5.13,5.13,0,0,0,.14,1.24,29.76,29.76,0,0,0,8.49,1.29,36.1,36.1,0,0,1,4.41.14.91.91,0,0,0,.56-.26h0a1,1,0,0,0,.25-.86A3.16,3.16,0,0,0,633.86,85C635,82.73,633.18,82.82,631.32,84.27Z" transform="translate(-123.32 -1.11)"/><path class="l" d="M627,87.48a36.1,36.1,0,0,1,4.41.14.91.91,0,0,0,.56-.26h-.77L625.13,87a3.58,3.58,0,0,1-1.44-.27c-.56-.28-1-.84-1.51-1.14a4.85,4.85,0,0,0-2.1-.36,3,3,0,0,1-1.67-.44V85a5.13,5.13,0,0,0,.14,1.24A29.87,29.87,0,0,0,627,87.48Z" transform="translate(-123.32 -1.11)"/><path class="aa" d="M637.71,81.07a3.5,3.5,0,0,1-.79,1c-.28.23-.82.13-1.37-.13s-.69-.55-.79-1.26a1.32,1.32,0,0,1,.59-1.2,3,3,0,0,0-.4.21,1.56,1.56,0,0,0,.15,2.15,1.39,1.39,0,0,0,.27.21c.44.27,1.18.54,1.58.15a4.17,4.17,0,0,0,.89-1.15c0-.15.23-.5.38-.52C638.12,80.5,637.88,80.73,637.71,81.07Z" transform="translate(-123.32 -1.11)"/><polygon class="af" points="517.58 77.45 517.58 77.45 517.58 77.45 517.58 77.45"/><path class="aa" d="M639.91,81a1.1,1.1,0,0,1-1.28-.23.56.56,0,0,0-.33-.21h0c.17.2.35.85,1.27.65.64-.14,1.71-.79,1.78-1.66a1.14,1.14,0,0,0-.3-.8,1,1,0,0,1,.19.74A2.22,2.22,0,0,1,639.91,81Z" transform="translate(-123.32 -1.11)"/><path class="aa" d="M640.13,76.05c-.06.44-.43.7-.85.89a.65.65,0,0,0-.44.53.61.61,0,0,1,.28-.27,5.37,5.37,0,0,1,.69-.31.88.88,0,0,0,.4-.54,2.34,2.34,0,0,1,.07-.32,1.3,1.3,0,0,0-.11-.8,2.24,2.24,0,0,0-.33-.43A1.75,1.75,0,0,1,640.13,76.05Z" transform="translate(-123.32 -1.11)"/><path class="aa" d="M635.08,78.83a1.32,1.32,0,0,1-1.28-.49c-.37-.42-.5-.76-.15-1.62s1-1.64,1.24-1.62a1.93,1.93,0,0,1,.88.44A2,2,0,0,0,635,75h-.26a.75.75,0,0,0-.2.1,4.1,4.1,0,0,0-1.18,2,1.78,1.78,0,0,0,0,.65A1.6,1.6,0,0,0,634.87,79c.38,0,.6-.17.72-.15h0C635.47,78.81,635.56,78.77,635.08,78.83Z" transform="translate(-123.32 -1.11)"/><path class="v" d="M638.3,80.55Z" transform="translate(-123.32 -1.11)"/><path class="v" d="M640.9,78.56a1.68,1.68,0,0,1,.18.21A.91.91,0,0,0,640.9,78.56Z" transform="translate(-123.32 -1.11)"/><path class="v" d="M639.8,77.34s.52,0,1-1.24c.27-.75-.4-1.7-1.25-2.31h0a2.55,2.55,0,0,0-1.9-.55c-.91.25-1.33,2-1.33,2l-1-.71-.1-.07c-.87-.63-2.23,1.12-2.44,2.81a1.32,1.32,0,0,0,0,.56c.26,1.2,1.92,1.45,1.92,1.45a1.88,1.88,0,0,0-.22,2.64,1.82,1.82,0,0,0,.42.36l.18.1c2.52,1.24,2.91-1.29,3.21-1,1,.86,3,.1,3.52-1.65S639.8,77.34,639.8,77.34Zm-4.91-2.42H635a2,2,0,0,1,.8.54c.12.11.22.21.31.28.36.29.51-.26.51-.26a1.88,1.88,0,0,1,1.43-1.67,2.3,2.3,0,0,1,1.61.76l.18.19a2.24,2.24,0,0,1,.33.43,1.3,1.3,0,0,1,.11.8,1.65,1.65,0,0,1-.07.32.88.88,0,0,1-.4.54,5.37,5.37,0,0,0-.69.31.61.61,0,0,0-.28.27.28.28,0,0,0,0,.13.3.3,0,0,0,.06.14c.17.18.6.1.83.08a2.66,2.66,0,0,1,1.18.74h0a.91.91,0,0,1,.18.21,1.14,1.14,0,0,1,.3.8c-.07.87-1.14,1.52-1.78,1.66-.92.2-1.1-.45-1.27-.65h-.08c-.15,0-.33.37-.38.52a4.17,4.17,0,0,1-.89,1.15c-.4.39-1.14.12-1.58-.15a1.39,1.39,0,0,1-.27-.21A1.56,1.56,0,0,1,635,79.7a3,3,0,0,1,.4-.21c.19-.1.36-.21.34-.44s-.06-.19-.12-.2-.34.1-.72.15a1.6,1.6,0,0,1-1.54-1.26,1.78,1.78,0,0,1,0-.65,4.1,4.1,0,0,1,1.18-2,.75.75,0,0,1,.2-.1Z" transform="translate(-123.32 -1.11)"/><path class="v" d="M639.53,73.82c.85.61,1.52,1.56,1.25,2.31-.47,1.28-1,1.24-1,1.24s2.59.66,2,2.4-2.56,2.51-3.52,1.65c-.3-.27-.69,2.26-3.21,1l-.18-.1a2.6,2.6,0,0,0,.45-.28c.44.27,1.18.54,1.58.15a4.17,4.17,0,0,0,.89-1.15c.06-.18.32-.67.49-.48s.35.85,1.27.65c.64-.14,1.71-.79,1.78-1.66s-1.37-1.77-1.66-1.75-.66.1-.83-.08l.23-.54a5.37,5.37,0,0,1,.69-.31,1.39,1.39,0,0,0,.36-1.66,3,3,0,0,0-.51-.62A4.11,4.11,0,0,0,639.53,73.82Z" transform="translate(-123.32 -1.11)"/><path class="v" d="M635.22,74.52l.1.07L635,75a.58.58,0,0,0-.46.11,4.1,4.1,0,0,0-1.18,2c-.21.28-.4.56-.56.8a1.32,1.32,0,0,1,0-.56C633,75.64,634.35,73.89,635.22,74.52Z" transform="translate(-123.32 -1.11)"/><path class="ag" d="M651.86,84.73c-.28.23-.81.13-1.35-.13s-.68-.54-.78-1.24a1.29,1.29,0,0,1,.58-1.18,1.39,1.39,0,0,0-.61,1.87,1.22,1.22,0,0,0,.36.45c.37.38,1.38.81,1.83.36a3.92,3.92,0,0,0,.88-1.14.73.73,0,0,1,.38-.51C652.88,83.1,652.59,84.12,651.86,84.73Z" transform="translate(-123.32 -1.11)"/><polygon class="af" points="532.47 80.15 532.47 80.15 532.47 80.15 532.47 80.15"/><path class="ag" d="M653.54,83.43a.43.43,0,0,0-.32-.2,1,1,0,0,0,1.28.67c1.09-.24,2.3-1.37,1.47-2.43a1,1,0,0,1,.18.72C656,83.41,654.05,84.25,653.54,83.43Z" transform="translate(-123.32 -1.11)"/><path class="ag" d="M655,78.78c-.06.44-.43.69-.84.88a.64.64,0,0,0-.43.52c.1-.27.65-.44,1-.57s.41-.62.47-.85a1.28,1.28,0,0,0-.11-.79,2.18,2.18,0,0,0-.33-.42A1.69,1.69,0,0,1,655,78.78Z" transform="translate(-123.32 -1.11)"/><path class="ag" d="M648.8,81c-.37-.42-.49-.76-.15-1.61s1-1.61,1.23-1.6a2.17,2.17,0,0,1,.87.44,2,2,0,0,0-.8-.53h-.25a.75.75,0,0,0-.2.1,4.2,4.2,0,0,0-1.17,2,1.72,1.72,0,0,0,0,.64,1.55,1.55,0,0,0,1.52,1.24c.37,0,.59-.17.7-.15h0C650.07,81.41,649.53,81.82,648.8,81Z" transform="translate(-123.32 -1.11)"/><path class="ah" d="M653.22,83.23Z" transform="translate(-123.32 -1.11)"/><path class="ah" d="M655.8,81.26l.18.21A1.68,1.68,0,0,0,655.8,81.26Z" transform="translate(-123.32 -1.11)"/><path class="ah" d="M654.69,80.08s.51,0,1-1.22c.26-.74-.39-1.68-1.24-2.27h0a2.52,2.52,0,0,0-1.87-.54c-.9.25-1.31,2-1.31,2l-1-.69-.1-.08c-.87-.62-2.21,1.1-2.42,2.77a1.75,1.75,0,0,0,0,.56c.26,1.19,1.9,1.43,1.9,1.43a1.84,1.84,0,0,0-.29,2.58,1.79,1.79,0,0,0,.49.42c2.26,1.4,3.24-1,3.34-.91,1,.85,2.94.1,3.48-1.62S654.69,80.08,654.69,80.08Zm-4.84-2.38H650a2,2,0,0,1,.8.53C652,79.43,651,77,653,76.6a2.2,2.2,0,0,1,1.59.75,1.57,1.57,0,0,1,.18.19,2.18,2.18,0,0,1,.33.42,1.28,1.28,0,0,1,.11.79,1.65,1.65,0,0,1-.07.32.89.89,0,0,1-.4.53c-.2.09-.47.18-.68.3a.64.64,0,0,0-.27.27.17.17,0,0,0,0,.14.23.23,0,0,0,.06.12c.17.18.59.11.83.09a2.61,2.61,0,0,1,1.16.73h0a1.68,1.68,0,0,1,.18.21,1.21,1.21,0,0,1,.3.79c-.08.85-1.14,1.5-1.77,1.64-.9.19-1.08-.45-1.25-.65h0c-.16,0-.34.37-.38.51a3.92,3.92,0,0,1-.88,1.14c-.39.39-1.12.12-1.56-.15a1.39,1.39,0,0,1-.27-.21,1.52,1.52,0,0,1-.14-2.11,1.47,1.47,0,0,1,.39-.21c.19-.1.36-.21.33-.44s0-.19-.12-.2-.33.11-.7.15a1.55,1.55,0,0,1-1.52-1.24,1.72,1.72,0,0,1,0-.64,4.2,4.2,0,0,1,1.17-2,.75.75,0,0,1,.2-.1Z" transform="translate(-123.32 -1.11)"/><path class="ah" d="M654.43,76.59c.85.59,1.5,1.53,1.24,2.27-.47,1.27-1,1.22-1,1.22s2.56.65,2,2.38-2.53,2.47-3.48,1.62c-.29-.26-.68,2.24-3.17,1l-.17-.09a3,3,0,0,0,.44-.28c.44.27,1.17.54,1.56.15a3.92,3.92,0,0,0,.88-1.14c0-.17.32-.66.48-.47s.35.84,1.25.65c.63-.14,1.69-.79,1.77-1.64s-1.36-1.75-1.64-1.73-.66.09-.83-.09a5,5,0,0,0,.23-.53c.21-.12.48-.21.68-.3A1.38,1.38,0,0,0,655,78a3,3,0,0,0-.51-.61A3.37,3.37,0,0,0,654.43,76.59Z" transform="translate(-123.32 -1.11)"/><path class="ah" d="M650.19,77.27l.1.08-.33.36a.6.6,0,0,0-.45.1,4.2,4.2,0,0,0-1.17,2l-.55.79a1.75,1.75,0,0,1,0-.56C648,78.34,649.32,76.65,650.19,77.27Z" transform="translate(-123.32 -1.11)"/><path class="ag" d="M625.26,82.08a3.46,3.46,0,0,1-.78,1c-.28.24-.81.13-1.35-.12s-.68-.54-.79-1.25a1.34,1.34,0,0,1,.58-1.18,2.82,2.82,0,0,0-.38.21,1.53,1.53,0,0,0,.14,2.12,1.39,1.39,0,0,0,.27.21c.43.26,1.16.53,1.55.15a4.13,4.13,0,0,0,.89-1.14c0-.15.22-.49.37-.51C625.66,81.51,625.42,81.75,625.26,82.08Z" transform="translate(-123.32 -1.11)"/><polygon class="af" points="505.08 78.5 505.08 78.5 505.08 78.5 505.08 78.5"/><path class="ag" d="M627.42,82a1.08,1.08,0,0,1-1.26-.23.46.46,0,0,0-.32-.2h0c.16.19.35.84,1.25.64.63-.14,1.69-.78,1.76-1.64a1.12,1.12,0,0,0-.3-.79,1.08,1.08,0,0,1,.19.73A2.19,2.19,0,0,1,627.42,82Z" transform="translate(-123.32 -1.11)"/><path class="ag" d="M627.65,77.13a1.23,1.23,0,0,1-.84.87.65.65,0,0,0-.44.52.7.7,0,0,1,.28-.26c.22-.11.45-.22.68-.31a.85.85,0,0,0,.39-.53l.08-.32a1.32,1.32,0,0,0-.12-.78,2.67,2.67,0,0,0-.32-.43A1.77,1.77,0,0,1,627.65,77.13Z" transform="translate(-123.32 -1.11)"/><path class="ag" d="M622.66,79.87a1.29,1.29,0,0,1-1.23-.52c-.37-.42-.49-.76-.16-1.6s1-1.62,1.23-1.6a2.07,2.07,0,0,1,.88.43,2.13,2.13,0,0,0-.8-.52h-.26a1.24,1.24,0,0,0-.2.1,4.19,4.19,0,0,0-1.16,2,1.38,1.38,0,0,0,0,.64,1.55,1.55,0,0,0,1.52,1.25c.37,0,.58-.17.7-.15h0C623,79.85,623.13,79.81,622.66,79.87Z" transform="translate(-123.32 -1.11)"/><path class="ah" d="M625.8,81.57Z" transform="translate(-123.32 -1.11)"/><path class="ah" d="M628.4,79.61a1.12,1.12,0,0,1,.18.2A1.12,1.12,0,0,0,628.4,79.61Z" transform="translate(-123.32 -1.11)"/><path class="ah" d="M627.31,78.43s.51,0,1-1.23c.27-.73-.39-1.67-1.23-2.27h0a2.43,2.43,0,0,0-1.87-.54c-.91.24-1.31,2-1.31,2l-1-.7-.1-.07c-.86-.62-2.2,1.1-2.41,2.77a1.28,1.28,0,0,0,0,.55c.26,1.19,1.9,1.43,1.9,1.43a1.83,1.83,0,0,0,.19,3l.18.1c2.49,1.23,2.88-1.27,3.16-1,1,.86,2.94.11,3.48-1.62S627.31,78.43,627.31,78.43ZM622.47,76h.11a2.13,2.13,0,0,1,.8.52,2,2,0,0,0,.3.28c.35.28.5-.26.5-.26a1.85,1.85,0,0,1,1.41-1.64c.45-.1,1.11.31,1.59.75l.18.18a2.67,2.67,0,0,1,.32.43,1.32,1.32,0,0,1,.12.78,1.67,1.67,0,0,1-.08.32.85.85,0,0,1-.39.53c-.23.09-.46.2-.68.31a.7.7,0,0,0-.28.26.33.33,0,0,0,0,.14.26.26,0,0,0,.06.13c.16.18.59.11.82.09a2.45,2.45,0,0,1,1.16.73h0a1.52,1.52,0,0,1,.48,1c-.07.86-1.13,1.5-1.76,1.64-.9.2-1.09-.45-1.25-.64h-.08c-.15,0-.33.36-.37.51a4.13,4.13,0,0,1-.89,1.14c-.39.38-1.12.11-1.55-.15a1.39,1.39,0,0,1-.27-.21,1.53,1.53,0,0,1-.14-2.12,2.82,2.82,0,0,1,.38-.21c.2-.09.37-.21.34-.43s0-.19-.12-.2-.33.1-.7.15A1.55,1.55,0,0,1,621,78.81a1.38,1.38,0,0,1,0-.64,4.19,4.19,0,0,1,1.16-2,1.24,1.24,0,0,1,.2-.1Z" transform="translate(-123.32 -1.11)"/><path class="ah" d="M627.05,74.93c.84.6,1.5,1.54,1.23,2.27-.46,1.27-1,1.23-1,1.23s2.56.65,2,2.37-2.53,2.48-3.48,1.62c-.28-.26-.67,2.24-3.16,1l-.18-.1c.14-.07.29-.17.45-.27.43.26,1.16.53,1.55.15a4.13,4.13,0,0,0,.89-1.14c0-.18.31-.66.48-.47s.35.84,1.25.64c.63-.14,1.69-.78,1.76-1.64s-1.36-1.75-1.64-1.72-.66.09-.82-.09c.08-.17.15-.35.23-.53s.45-.22.68-.31a1.35,1.35,0,0,0,.35-1.63,2.62,2.62,0,0,0-.5-.61A5.2,5.2,0,0,0,627.05,74.93Z" transform="translate(-123.32 -1.11)"/><path class="ah" d="M622.8,75.62l.1.07-.32.37a.54.54,0,0,0-.46.1,4.19,4.19,0,0,0-1.16,2c-.2.28-.39.55-.55.79a1.28,1.28,0,0,1,0-.55C620.6,76.72,621.94,75,622.8,75.62Z" transform="translate(-123.32 -1.11)"/><path class="v" d="M640,79.25c-2.38.17-6.84,2.3-3.07,5.35s8.88.57,9.39-1.53C646.71,81.41,644.41,78.94,640,79.25Z" transform="translate(-123.32 -1.11)"/><path class="aa" d="M637.08,81.58c-.25-.23.31-1.26,2.31-1.69s3.49.18,3.34.38a2.6,2.6,0,0,1-2.34,1.48C638.59,82,637.39,81.85,637.08,81.58Z" transform="translate(-123.32 -1.11)"/><path class="aa" d="M644,81.13c.29-.11,2,1.08,1.15,2.23s-2,1.86-2.84,1.63-1.08-1.48-.46-2.36A4.78,4.78,0,0,1,644,81.13Z" transform="translate(-123.32 -1.11)"/><path class="aa" d="M636.51,82.34a6.07,6.07,0,0,1,3.53.25c1.08.52,1.49,2.25,1.18,2.58s-2.68-.19-3.6-.79S636.24,82.71,636.51,82.34Z" transform="translate(-123.32 -1.11)"/><path class="ab" d="M637.8,80.81c-.33.2.66.92.81.74S638.08,80.65,637.8,80.81Z" transform="translate(-123.32 -1.11)"/><path class="ab" d="M638.87,80.34c-.19,0,.29,1.39.75,1.26S639.21,80.25,638.87,80.34Z" transform="translate(-123.32 -1.11)"/><path class="ab" d="M640.16,80.1c-.2.05,0,.88.42.85S640.35,80,640.16,80.1Z" transform="translate(-123.32 -1.11)"/><path class="ab" d="M641.55,80c-.46,0-.39,1.17,0,1.2S642.18,80,641.55,80Z" transform="translate(-123.32 -1.11)"/><path class="ab" d="M638.94,82.73c-.07-.15-1.88,0-1.73.31S639.09,83,638.94,82.73Z" transform="translate(-123.32 -1.11)"/><path class="ab" d="M640.35,83.78c.22,0,.17,1.2-.34,1S640.14,83.75,640.35,83.78Z" transform="translate(-123.32 -1.11)"/><path class="ab" d="M639.8,83.25c.21.1-1,1.28-1.56,1S639.54,83.14,639.8,83.25Z" transform="translate(-123.32 -1.11)"/><path class="ab" d="M642.91,82.48c.07-.27,2,0,1.9.28S642.8,82.85,642.91,82.48Z" transform="translate(-123.32 -1.11)"/><path class="ab" d="M643.25,82c.11.16,1.37,0,1.23-.25S643.13,81.85,643.25,82Z" transform="translate(-123.32 -1.11)"/><path class="ab" d="M642.44,82.93c-.09.09,1.31.84,1.42.62S642.66,82.71,642.44,82.93Z" transform="translate(-123.32 -1.11)"/><path class="ab" d="M641.94,83.26c-.31.12.12,1.12.47,1S642.38,83.08,641.94,83.26Z" transform="translate(-123.32 -1.11)"/><path class="v" d="M623.64,77.34c-2.38.17-6.84,2.31-3.07,5.36s8.87.56,9.39-1.54C630.37,79.52,628.07,77.05,623.64,77.34Z" transform="translate(-123.32 -1.11)"/><path class="aa" d="M620.74,79.68c-.26-.23.31-1.25,2.31-1.68s3.49.18,3.34.38a2.63,2.63,0,0,1-2.34,1.48C622.25,80.12,621.05,80,620.74,79.68Z" transform="translate(-123.32 -1.11)"/><path class="aa" d="M627.7,79.23c.28-.1,2,1.08,1.15,2.24s-2,1.85-2.85,1.63-1.07-1.49-.46-2.37A5,5,0,0,1,627.7,79.23Z" transform="translate(-123.32 -1.11)"/><path class="aa" d="M620.17,80.49a5.92,5.92,0,0,1,3.53.24c1.08.53,1.48,2.26,1.18,2.58s-2.68-.19-3.6-.79S619.9,80.81,620.17,80.49Z" transform="translate(-123.32 -1.11)"/><path class="ab" d="M621.47,78.92c-.33.2.65.91.81.74S621.74,78.76,621.47,78.92Z" transform="translate(-123.32 -1.11)"/><path class="ab" d="M622.53,78.43c-.19,0,.29,1.38.75,1.25S622.86,78.34,622.53,78.43Z" transform="translate(-123.32 -1.11)"/><path class="ab" d="M623.8,78.2c-.19,0,0,.89.43.86S624,78.15,623.8,78.2Z" transform="translate(-123.32 -1.11)"/><path class="ab" d="M625.21,78.1c-.46,0-.39,1.16,0,1.19S625.8,78.1,625.21,78.1Z" transform="translate(-123.32 -1.11)"/><path class="ab" d="M622.6,80.83c-.07-.14-1.88,0-1.73.31S622.8,81.15,622.6,80.83Z" transform="translate(-123.32 -1.11)"/><path class="ab" d="M624,81.88c.22,0,.17,1.2-.34,1.06S623.8,81.86,624,81.88Z" transform="translate(-123.32 -1.11)"/><path class="ab" d="M623.41,81.34c.21.11-1,1.29-1.56,1S623.19,81.24,623.41,81.34Z" transform="translate(-123.32 -1.11)"/><path class="ab" d="M626.57,80.59c.06-.28,2,0,1.9.27S626.49,81,626.57,80.59Z" transform="translate(-123.32 -1.11)"/><path class="ab" d="M626.9,80.12c.12.17,1.38,0,1.23-.25S626.8,80,626.9,80.12Z" transform="translate(-123.32 -1.11)"/><path class="ab" d="M626.1,81c-.09.09,1.31.83,1.42.62S626.32,80.81,626.1,81Z" transform="translate(-123.32 -1.11)"/><path class="ab" d="M625.6,81.34c-.31.13.11,1.13.47,1.06S626,81.18,625.6,81.34Z" transform="translate(-123.32 -1.11)"/><path class="ai" d="M646.14,77.34a.77.77,0,0,1-.84-.58c-.06-.39.3-.77.81-.85h.19a.81.81,0,0,1,.85.58.84.84,0,0,1-.81.86Zm.52-1.8a2,2,0,1,0,2,2,2,2,0,0,0-2-2h0Z" transform="translate(-123.32 -1.11)"/><path class="aj" d="M646.3,75.87h-.19c-.51.08-.87.46-.81.85a.77.77,0,0,0,.84.58h.2a.84.84,0,0,0,.81-.86A.83.83,0,0,0,646.3,75.87Z" transform="translate(-123.32 -1.11)"/><path class="ak" d="M630.8,84.17a.79.79,0,0,1-.85-.58c-.06-.39.3-.77.81-.85h.2a.79.79,0,0,1,.84.58.84.84,0,0,1-.81.86Zm.52-1.81a2,2,0,1,0,2,2,2,2,0,0,0-2-2h-.07Z" transform="translate(-123.32 -1.11)"/><path class="al" d="M630.91,82.72a.67.67,0,0,0-.2,0c-.51.08-.87.46-.81.85a.79.79,0,0,0,.85.58h.19a.84.84,0,0,0,.86-.81A.78.78,0,0,0,630.91,82.72Z" transform="translate(-123.32 -1.11)"/><path class="ak" d="M646.32,84.47c-.06-.39.3-.77.81-.85a.84.84,0,0,1,1,.56,1,1,0,0,1-1.85.29Zm-.67.8a2,2,0,1,0,2-2,2,2,0,0,0-2,2Z" transform="translate(-123.32 -1.11)"/><path class="al" d="M647.13,83.62c-.51.08-.87.46-.81.85a1,1,0,0,0,1.85-.29A.84.84,0,0,0,647.13,83.62Z" transform="translate(-123.32 -1.11)"/><path class="am" d="M629.37,71.6c.36.32.47.85.79,1.21.7.79,2.13.53,2.81,1.34a2.41,2.41,0,0,1,.22,2.09,3.27,3.27,0,0,0,0,2.14c.3.6,1,1,1.14,1.65a1.56,1.56,0,0,1-.36,1.23c-.27.35-.61.64-.89,1a3.71,3.71,0,0,1-.74.79.77.77,0,0,1-1-.06c-.31-.36,0-.9.24-1.29l.9-1.28a.7.7,0,0,0,.18-.48.76.76,0,0,0-.16-.29,2.57,2.57,0,0,0-.91-.65,2.47,2.47,0,0,1-.71-.35,1.47,1.47,0,0,1-.28-1.37,3,3,0,0,0,.09-1.45c-.25-.75-1.14-1-1.88-1.3a9.22,9.22,0,0,1-2.39-1.29,5.21,5.21,0,0,1-1.06-.93c-.33-.43-.12-.64.29-1a1.47,1.47,0,0,1,1.48-.37A5.64,5.64,0,0,1,629.37,71.6Z" transform="translate(-123.32 -1.11)"/><path class="an" d="M627.32,71.49a1.63,1.63,0,0,1,1.15.54.75.75,0,0,0,.09.51,2,2,0,0,0,1.37.87,4,4,0,0,1,1.55.6.85.85,0,0,1,.34.67c0,.27-.27.49-.26.76s.27.5.44.73a2.4,2.4,0,0,1,.32.64l.71,1.8c0,.11.08.26,0,.34a.28.28,0,0,1-.28,0,1.59,1.59,0,0,1-.63-.36.93.93,0,0,1-.3-.65c0-.28.16-.59,0-.83a1.52,1.52,0,0,0-.22-.22,1.75,1.75,0,0,1-.53-1.44,2.81,2.81,0,0,0,0-.58,1.33,1.33,0,0,0-.93-.91c-.43-.15-.9-.19-1.33-.34a4.68,4.68,0,0,1-1.09-.61c-.7-.46-1.44-.89-2.1-1.41.18-.25.4-.1.64-.07S627,71.46,627.32,71.49Z" transform="translate(-123.32 -1.11)"/><path class="ag" d="M643,85.92a11.37,11.37,0,0,1-1.43,0c-1,.19-1.57,1.55-2.61,1.71a2.38,2.38,0,0,1-1.9-.9,3.36,3.36,0,0,0-1.81-1.13c-.67-.06-1.37.34-2,.12a1.56,1.56,0,0,1-.86-1c-.17-.41-.24-.85-.38-1.27a3.72,3.72,0,0,1-.29-1,.79.79,0,0,1,.56-.82c.47-.08.79.44,1,.87l.63,1.44a.66.66,0,0,0,.32.41.62.62,0,0,0,.33,0,2.49,2.49,0,0,0,1-.44,2.42,2.42,0,0,1,.66-.43,1.51,1.51,0,0,1,1.32.47,2.92,2.92,0,0,0,1.19.83c.77.17,1.47-.44,2.09-.93a10,10,0,0,1,2.34-1.38,6.25,6.25,0,0,1,1.35-.43c.54-.06.61.24.71.78a1.43,1.43,0,0,1-.46,1.52C644.31,84.85,643.73,85.71,643,85.92Z" transform="translate(-123.32 -1.11)"/><path class="an" d="M644.2,84.23a1.59,1.59,0,0,1-1,.7.82.82,0,0,0-.48-.19,2,2,0,0,0-1.46.72,3.7,3.7,0,0,1-1.32,1,.75.75,0,0,1-.74,0c-.21-.17-.29-.48-.52-.62s-.57,0-.86,0a2.12,2.12,0,0,1-.71-.06l-1.91-.32c-.11,0-.26-.06-.28-.18s.06-.18.14-.25a2,2,0,0,1,.63-.35.92.92,0,0,1,.71.08c.24.15.42.44.7.44a.82.82,0,0,0,.3-.07,1.8,1.8,0,0,1,1.51.29,2.13,2.13,0,0,0,.49.31,1.29,1.29,0,0,0,1.26-.31c.35-.29.62-.67,1-1a5.7,5.7,0,0,1,1.1-.63c.75-.35,1.5-.76,2.28-1.06.13.29-.11.4-.26.59S644.4,84,644.2,84.23Z" transform="translate(-123.32 -1.11)"/><path class="ad" d="M658.1,83.1c-2.17,2.46-10.88,4.81-22.68,4.81s-20.5-2.35-22.68-4.81h-.64c2,3,11.69,5.32,23.32,5.32s21.3-2.29,23.33-5.32Z" transform="translate(-123.32 -1.11)"/><circle class="w" cx="410.82" cy="94.11" r="33.13"/><path class="am" d="M544,102.65a27.75,27.75,0,0,1-36-4.39,8.86,8.86,0,0,1-2.22-3.6,3.84,3.84,0,0,1,1-3.92c3.9-3.2,11.06,5.25,24.28,2,6-1.48,11.43-5.8,13.18-11.69.23-.76.4-1.55,1-3.56a1.62,1.62,0,0,1,1.9-1.12l.28.06a2.75,2.75,0,0,1,2.06,3.24c-.3,1.41-.6,2.06-.76,2.78a4.52,4.52,0,0,0,.69,2.73l.36.88a14.5,14.5,0,0,1,1.18,6.75C550.51,96.93,547.43,100.34,544,102.65Z" transform="translate(-123.32 -1.11)"/><path class="ao" d="M544,102.65a27.75,27.75,0,0,1-36-4.39,8.86,8.86,0,0,1-2.22-3.6,4.07,4.07,0,0,1,.6-3.48,54.18,54.18,0,0,0,6.46,4.26,27,27,0,0,0,13.82,3.81,26.34,26.34,0,0,0,13.83-4.91A57.63,57.63,0,0,0,549.8,86,14.5,14.5,0,0,1,551,92.79C550.51,96.93,547.43,100.34,544,102.65Z" transform="translate(-123.32 -1.11)"/><path class="ap" d="M507.54,92.51c-.31.89-.91,1.5-1.33,1.35s-.53-1-.23-1.88C506.72,89.83,508.27,90.34,507.54,92.51Z" transform="translate(-123.32 -1.11)"/><path class="aq" d="M549,104.34A27.74,27.74,0,0,1,512.91,107a8.83,8.83,0,0,1-2.87-3.11,4,4,0,0,1-.09-3.52,4.21,4.21,0,0,1,.34-.52,4.07,4.07,0,0,1,2.89-1.29,14.58,14.58,0,0,1,3.23.33c6.07,1,12.51.82,18.08-1.78s10.1-7.89,10.69-14c.07-.79.09-1.6.27-3.68a1.6,1.6,0,0,1,1.65-1.47h.29A2.75,2.75,0,0,1,550,80.7c0,1.44-.19,2.14-.21,2.88A4.42,4.42,0,0,0,551,86.12c.17.26.35.52.52.8A14.44,14.44,0,0,1,554,93.31C554.36,97.41,552,101.34,549,104.34Z" transform="translate(-123.32 -1.11)"/><path class="ar" d="M549,104.34A27.74,27.74,0,0,1,512.91,107a8.83,8.83,0,0,1-2.87-3.11,4,4,0,0,1-.09-3.52,54.3,54.3,0,0,0,7.11,2.94,27.08,27.08,0,0,0,14.3,1.08A26.46,26.46,0,0,0,544,96.84a57.91,57.91,0,0,0,7.56-9.92A14.44,14.44,0,0,1,554,93.31C554.36,97.41,552,101.34,549,104.34Z" transform="translate(-123.32 -1.11)"/><path class="ar" d="M559.07,99.18A28,28,0,0,1,546.69,114c-9.17,5.24-20,4-23,1.59a4,4,0,0,1-1.6-3.14,2.55,2.55,0,0,1,.08-.61,3.63,3.63,0,0,1,.22-.6,4.4,4.4,0,0,1,1.83-1.82,14.32,14.32,0,0,1,3.06-1.1c5.91-1.69,11.63-4.66,15.53-9.42s5.7-11.48,3.58-17.25c-.28-.75-.61-1.48-1.35-3.44a1.6,1.6,0,0,1,.86-2l.26-.12a2.84,2.84,0,0,1,3.64,1.34c.6,1.31.74,2,1.05,2.68.43.93,1.34,1.28,2.18,1.77.28.16.55.32.82.5a14.49,14.49,0,0,1,5,4.69C560.89,90.67,560.47,95.26,559.07,99.18Z" transform="translate(-123.32 -1.11)"/><path class="aq" d="M559.07,99.18A28,28,0,0,1,546.69,114c-9.17,5.24-20,4-23,1.59a4,4,0,0,1-1.6-3.14,2.55,2.55,0,0,1,.08-.61,3.63,3.63,0,0,1,.22-.6h.46a49.4,49.4,0,0,0,14.95-1.91,22.63,22.63,0,0,0,12.11-8.55c2.8-4.19,3.64-9.82,1.46-14.36-.9-1.86-2.24-3.47-3.19-5.31a7.29,7.29,0,0,1-.79-5.29,2.73,2.73,0,0,1,2.41,1.61c.6,1.31.74,2,1.05,2.68.43.93,1.34,1.28,2.18,1.77.28.16.55.32.82.5a14.49,14.49,0,0,1,5,4.69C560.89,90.67,560.47,95.26,559.07,99.18Z" transform="translate(-123.32 -1.11)"/><ellipse class="ap" cx="399.69" cy="111.54" rx="0.82" ry="1.71"/><path class="ap" d="M511.36,101.27c-.3.89-.9,1.49-1.33,1.34s-.53-1-.22-1.88.9-1.49,1.33-1.34S511.67,100.34,511.36,101.27Z" transform="translate(-123.32 -1.11)"/><circle class="w" cx="575.98" cy="147.28" r="33.13"/><path class="k" d="M689.36,169.12c.23,2.48,4.69,4.24,10.16,4.18s9.89-1.9,10.06-4.39Z" transform="translate(-123.32 -1.11)"/><ellipse class="g" cx="699.41" cy="169.03" rx="10.13" ry="3.91" transform="translate(-124.98 5.89) rotate(-0.57)"/><path class="g" d="M706.46,168.34c0,1.51-3.13,2.76-7,2.8s-7-1.15-7.07-2.65a1.89,1.89,0,0,1,1.07-1.46,8.28,8.28,0,0,0,3.41-4.29c.09-.26.17-.53.24-.79a8.63,8.63,0,0,0,.3-2.38v-.16h3.86v.16a8.9,8.9,0,0,0,.25,2,1.46,1.46,0,0,0,.11.41,8.37,8.37,0,0,0,3.75,5A1.87,1.87,0,0,1,706.46,168.34Z" transform="translate(-123.32 -1.11)"/><path class="k" d="M701.61,162c-.66.17-1.34.28-2,.39l-2.74.41c.09-.26.17-.53.24-.79a8.63,8.63,0,0,0,.3-2.38v-.16h3.86v.16a8.9,8.9,0,0,0,.25,2A2.18,2.18,0,0,0,701.61,162Z" transform="translate(-123.32 -1.11)"/><path class="ad" d="M713.67,146.94a13,13,0,0,1-3.7,9.29,13.54,13.54,0,0,1-9.89,3.83h-1.39a14.58,14.58,0,0,1-4.16-.43,12.67,12.67,0,0,1-9.73-12.39c-.06-3.86.66-10.36,4.33-19.69l19.78-.2C712.8,136.59,713.65,143.08,713.67,146.94Z" transform="translate(-123.32 -1.11)"/><path class="am" d="M711.18,135.09a10.3,10.3,0,0,1,.57,1.52,41.58,41.58,0,0,1,1.55,10.33,12.68,12.68,0,0,1-3.59,9,12.46,12.46,0,0,1-4.67,2.92,14.19,14.19,0,0,1-5,.79h-1.41a14.19,14.19,0,0,1-4-.43,12.41,12.41,0,0,1-5.66-3.09v0a8.65,8.65,0,0,1-2.47-7.5c.06-.47.13-1,.17-1.47a3.18,3.18,0,0,1,.26-1.25,1.15,1.15,0,0,1,1-.7c1.19,0,1.45,2.2,2.63,2.1.76-.06,1-1,1-1.8s-.1-1.67.51-2.11a1.69,1.69,0,0,1,1.63,0,9,9,0,0,0,1.53.74c1.35.33,2.66-.79,3.23-2.06a39,39,0,0,0,1-4c.41-1.33,1.37-2.67,2.74-2.81.89-.09,1.89.31,2.62-.18,1-.68.6-2.33,1.28-3.34a2.29,2.29,0,0,1,3.13-.28,4.81,4.81,0,0,1,1.58,2.51,8.43,8.43,0,0,0,.44,1.08Z" transform="translate(-123.32 -1.11)"/><g class="as"><path class="d" d="M691.8,143.62c-.07,6,1.63,11,.34,11.5s-5.28-4.58-5.23-11.52,4.1-12,5.33-11.52S691.8,137.63,691.8,143.62Z" transform="translate(-123.32 -1.11)"/></g><g class="at"><path d="M713.67,146.94a13,13,0,0,1-3.7,9.29,13.54,13.54,0,0,1-9.89,3.83h-1.39a14.58,14.58,0,0,1-4.16-.43,4.29,4.29,0,0,1,1.09-1.2,17.2,17.2,0,0,1,2.8-1.52,19.42,19.42,0,0,0,10.67-19.57,26.44,26.44,0,0,0-3.51-9.91h3.35C712.8,136.59,713.65,143.08,713.67,146.94Z" transform="translate(-123.32 -1.11)"/></g><ellipse class="ad" cx="699.05" cy="127.46" rx="9.89" ry="2.16" transform="translate(-124.6 6.09) rotate(-0.59)"/><path class="g" d="M708.39,127.34c0,.31-.5.64-1.38.94a28,28,0,0,1-7.94,1c-4.78,0-8.31-.63-9.16-1.37a.49.49,0,0,1-.2-.35c0-.87,3.82-1.87,9.32-1.93S708.38,126.49,708.39,127.34Z" transform="translate(-123.32 -1.11)"/><path class="an" d="M684.15,172.11c3.1,1.16,6.7-.81,8-4.39s-.09-7.42-3.19-8.57a5.35,5.35,0,0,0-2.54-.29v1a4.66,4.66,0,0,1,2.19.25c2.66,1,3.88,4.28,2.74,7.34s-4.23,4.75-6.88,3.76-3.88-4.28-2.74-7.35a2.44,2.44,0,0,1,.1-.24l-.8-.32-.11.26C679.62,167.11,681.05,171,684.15,172.11Z" transform="translate(-123.32 -1.11)"/><path class="ah" d="M681.86,163.59a2.44,2.44,0,0,0-.1.24c-1.14,3.07.08,6.36,2.74,7.35s5.73-.69,6.88-3.76-.08-6.35-2.74-7.34a4.66,4.66,0,0,0-2.19-.25v5.57Z" transform="translate(-123.32 -1.11)"/><path class="ag" d="M686.67,165.07l1.74-4.67a4.43,4.43,0,0,0-1.77-.22Z" transform="translate(-123.32 -1.11)"/><path class="ag" d="M687.1,165.47l4.37-.35a5.71,5.71,0,0,0-.28-1.78Z" transform="translate(-123.32 -1.11)"/><path class="ag" d="M686.87,165.12l3.16-3.7a4.21,4.21,0,0,0-1.43-.95Z" transform="translate(-123.32 -1.11)"/><path class="ag" d="M687,165.28l4.12-2.14a5,5,0,0,0-.94-1.57Z" transform="translate(-123.32 -1.11)"/><path class="ag" d="M687.08,165.7l4,1.5a6.53,6.53,0,0,0,.36-1.86Z" transform="translate(-123.32 -1.11)"/><path class="ag" d="M686.86,166.07l1.7,4.32a6,6,0,0,0,1.43-1.22Z" transform="translate(-123.32 -1.11)"/><path class="ag" d="M687,165.92l3.11,3.08a6.4,6.4,0,0,0,.9-1.59Z" transform="translate(-123.32 -1.11)"/><path class="ag" d="M686.71,171.05a4.66,4.66,0,0,0,1.66-.56l-1.69-4.3Z" transform="translate(-123.32 -1.11)"/><path class="ag" d="M686,165.78l-4.37.36a5.29,5.29,0,0,0,.28,1.77Z" transform="translate(-123.32 -1.11)"/><path class="ag" d="M686.27,166.14l-3.17,3.7a4.42,4.42,0,0,0,1.43.95Z" transform="translate(-123.32 -1.11)"/><path class="ag" d="M686.14,166,682,168.12a4.83,4.83,0,0,0,.94,1.57Z" transform="translate(-123.32 -1.11)"/><path class="ag" d="M686.47,166.19l-1.75,4.67a4.14,4.14,0,0,0,1.78.21Z" transform="translate(-123.32 -1.11)"/><path class="ag" d="M686.06,165.56l-4-1.51a6.08,6.08,0,0,0-.36,1.87Z" transform="translate(-123.32 -1.11)"/><path class="au" d="M687.57,159.82l.48-.93a5.36,5.36,0,0,0-1.6,0v1A6,6,0,0,1,687.57,159.82Z" transform="translate(-123.32 -1.11)"/><path class="av" d="M686.44,162.54q.09-.28.21-.6v-1.76a4.82,4.82,0,0,1,.76,0l.17-.36a5.24,5.24,0,0,0-1.12,0v2.71Z" transform="translate(-123.32 -1.11)"/><path class="aw" d="M686.65,161.94c.2-.54.46-1.13.75-1.76a4.82,4.82,0,0,0-.76,0Z" transform="translate(-123.32 -1.11)"/><path class="an" d="M688.72,159.05c-3.14-1-6.66,1.08-7.85,4.71s.4,7.41,3.55,8.44a5.1,5.1,0,0,0,2.54.19v-1a4.33,4.33,0,0,1-2.2-.15c-2.7-.88-4.06-4.12-3-7.23s4-4.92,6.72-4,4,4.11,3,7.22l-.09.25.81.28a1.14,1.14,0,0,0,.09-.26C693.45,163.86,691.87,160.08,688.72,159.05Z" transform="translate(-123.32 -1.11)"/><path class="ah" d="M691.36,167.47l.09-.25c1-3.11-.34-6.34-3-7.22s-5.7.92-6.72,4,.34,6.35,3,7.23a4.33,4.33,0,0,0,2.2.15l-.21-5.57Z" transform="translate(-123.32 -1.11)"/><path class="ag" d="M686.49,166.19l-1.55,4.74a4,4,0,0,0,1.78.14Z" transform="translate(-123.32 -1.11)"/><path class="ag" d="M686.05,165.8l-4.36.54a6.11,6.11,0,0,0,.35,1.76Z" transform="translate(-123.32 -1.11)"/><path class="ag" d="M686.29,166.15l-3,3.83a4,4,0,0,0,1.47.88Z" transform="translate(-123.32 -1.11)"/><path class="ag" d="M686.15,166l-4,2.31a5.06,5.06,0,0,0,1,1.53Z" transform="translate(-123.32 -1.11)"/><path class="ag" d="M686.05,165.58,682,164.24a6.34,6.34,0,0,0-.28,1.88Z" transform="translate(-123.32 -1.11)"/><path class="ag" d="M686.26,165.19,684.38,161a5.92,5.92,0,0,0-1.37,1.27Z" transform="translate(-123.32 -1.11)"/><path class="ag" d="M686.11,165.34l-3.24-3A6.71,6.71,0,0,0,682,164Z" transform="translate(-123.32 -1.11)"/><path class="ag" d="M686.21,160.22a5,5,0,0,0-1.64.62l1.87,4.23Z" transform="translate(-123.32 -1.11)"/><path class="ag" d="M687.09,165.45l4.36-.54a5.93,5.93,0,0,0-.36-1.76Z" transform="translate(-123.32 -1.11)"/><path class="ag" d="M686.85,165.11l3-3.83a4.33,4.33,0,0,0-1.47-.89Z" transform="translate(-123.32 -1.11)"/><path class="ag" d="M687,165.26l4-2.31a5.12,5.12,0,0,0-1-1.53Z" transform="translate(-123.32 -1.11)"/><path class="ag" d="M686.65,165.06l1.55-4.72a4.33,4.33,0,0,0-1.79-.14Z" transform="translate(-123.32 -1.11)"/><path class="ag" d="M687.08,165.68l4.09,1.33a6.51,6.51,0,0,0,.28-1.87Z" transform="translate(-123.32 -1.11)"/><path class="g" d="M370,147c-4.06,2.83,3.34-5.4,5.69-15.83a41.67,41.67,0,0,0,1.09-13.26h0c-18.92-.91-28.62,9-29.56,7.94s10.14-13.23,29.26-11.62C375.39,101,381.26,89.48,387,85.46c3.59-2.5-1.54,4.08-3.32,8.57a43.79,43.79,0,0,0-3.45,20.52l2.22.11c16.13.91,26.42-9,27.34-8.06s-9.87,13.15-29.26,11.63C381.54,131.78,375.74,143,370,147Z" transform="translate(-123.32 -1.11)"/><path class="l" d="M372.6,128.27c-.46.46-1.47.27-2.88-.75l-3.09-3.1c-1-1.4-1.22-2.42-.75-2.89s1.48-.27,2.9.74l3.09,3.1C372.88,126.78,373.08,127.79,372.6,128.27Z" transform="translate(-123.32 -1.11)"/><path class="v" d="M370.22,134.59c-.46.46-1.78,0-3.79-1.66l-4.63-4.59c-1.64-2-2.12-3.33-1.65-3.8s1.77,0,3.79,1.65l4.64,4.64C370.2,132.8,370.7,134.11,370.22,134.59Z" transform="translate(-123.32 -1.11)"/><path class="ac" d="M363,138.15l-6.39-6.38c-4.54-5.28-3.39-6.86,2.15-2.15L365.1,136C369.73,141.43,368.34,142.78,363,138.15Z" transform="translate(-123.32 -1.11)"/><path class="l" d="M384.45,104.13c.46-.46,1.48-.27,2.88.75l3.09,3.09c2,2.79.72,4.2-2.15,2.15L385.18,107C384.17,105.61,384,104.61,384.45,104.13Z" transform="translate(-123.32 -1.11)"/><path class="v" d="M390.62,99.47l4.64,4.63c3.23,4,1.93,5.42-2.15,2.15l-4.64-4.63C385.23,97.57,386.61,96.21,390.62,99.47Z" transform="translate(-123.32 -1.11)"/><path class="ac" d="M394.1,94.24l6.38,6.39c2.32,2.7,3.15,4.36,2.68,4.83s-2.11-.37-4.83-2.68L392,96.39C387.32,91,388.71,89.61,394.1,94.24Z" transform="translate(-123.32 -1.11)"/></svg>