<svg xmlns="http://www.w3.org/2000/svg" xmlns:xlink="http://www.w3.org/1999/xlink" viewBox="0 0 812.96 558.08"><defs><style>.a,.e{fill:none;}.b{isolation:isolate;}.ab,.c,.r{mix-blend-mode:multiply;}.d{clip-path:url(#a);}.e{stroke:#f8cf61;stroke-linecap:round;stroke-linejoin:round;stroke-width:49px;}.f{fill:#edf3ff;}.g{fill:#ffc5c5;}.h{fill:#fcafaf;}.i{fill:#d5e1fa;}.j{fill:#383838;}.k{fill:#2b2b2b;}.l{fill:#3fc4bd;}.m{fill:#c7d6f2;}.n{fill:#32b5b3;}.o{fill:#061437;}.p{fill:#f56139;}.q{fill:#d12626;}.r{opacity:0.4;}.s{fill:#faad9b;}.t{fill:#2e363a;}.u{fill:#4a5258;}.v{fill:#3a4146;}.w{fill:#1939d1;}.x{fill:#fe6b4d;}.y{fill:#e1ebff;}.z{fill:#596eea;}.aa{fill:#2943e2;}.ab{opacity:0.5;}.ac{fill:#f4573d;}.ad{fill:#ff8261;}.ae{fill:#4052f2;}.af{fill:#fff;}.ag{fill:#25a59f;}.ah{fill:#e88a23;}.ai{fill:#ffb612;}.aj{fill:#ffd964;}.ak{fill:#7b393b;}.al{fill:#844247;}.am{fill:#5e2424;}.an{fill:#75352c;}.ao{fill:#ffae1f;}.ap{fill:#ffc536;}.aq{fill:#f7a500;}.ar{fill:#393e46;}.as{fill:#ffbd39;}.at{fill:#ffcf4e;}.au{opacity:0.2;}.av{opacity:0.05;}.aw{fill:#cfde5f;}.ax{fill:#e5e982;}.ay{fill:#e8d33f;}</style><clipPath id="a" transform="translate(-80.52 -116.77)"><rect class="a" width="770.16" height="781.32"/></clipPath></defs><title>Asset 4</title><g class="b"><g class="c"><g class="d"><path class="e" d="M869,141.27H763.9a83.51,83.51,0,0,0-83.51,83.51V346c0,74.4-89.95,111.66-142.55,59.05L410.46,277.63C357.85,225,267.9,262.28,267.9,336.68V623.2" transform="translate(-80.52 -116.77)"/></g></g><ellipse class="f" cx="301.14" cy="530.71" rx="301.14" ry="27.37"/><path class="g" d="M309.56,603.86s0,4.73-.12,10c-.11,6.61-.3,14.09-.57,14.22-.5.23-14.51-.16-17.15-2.4-.92-.79-1.28-3.8-1.34-7.37-.09-4.93.37-10.94.6-13.66.08-.93.14-1.47.14-1.47l3.94.15Z" transform="translate(-80.52 -116.77)"/><path class="h" d="M309.56,603.86s0,4.73-.12,10c-6.44-2.92-14.36-.53-19.06,4.45-.09-4.93.37-10.94.6-13.66,1.21-.4,2.62-.86,4.08-1.32Z" transform="translate(-80.52 -116.77)"/><path class="i" d="M339.8,643.11c-1.11.15-47-1.38-48.85-2.09s-1.51-4-1.51-4l50.76,2.19S340.89,643,339.8,643.11Z" transform="translate(-80.52 -116.77)"/><path class="j" d="M340.2,639.2c-.78.72-50.76-2.19-50.76-2.19-3.73-5.33-.52-13.87.57-15.9.18-.34.3-.49.32-.44,2.23,4.94,16.48,7.62,16.81,6.08s1.78-7.32,3.56-6.7,18.26,11.23,23.71,13.39a12.85,12.85,0,0,1,5.07,3.23C340.49,637.84,340.61,638.82,340.2,639.2Z" transform="translate(-80.52 -116.77)"/><path class="k" d="M340.2,639.2c-.78.72-50.76-2.19-50.76-2.19-3.73-5.33-.52-13.87.57-15.9a11.56,11.56,0,0,0,4.1,9.28,21.84,21.84,0,0,0,10.43,4.8,68.74,68.74,0,0,0,11.75.95l23.19.53C340.49,637.84,340.61,638.82,340.2,639.2Z" transform="translate(-80.52 -116.77)"/><path class="l" d="M141.85,487.11a19.52,19.52,0,0,0,12.25,14.75c48.2,18.29,118.11,13,131.23,12.52,13.66-.53,14-3.7,12.14-8.76-.05-.16-.12-.32-.18-.49-2.07-5.33-44.92-8.65-62.54-18.74s-13.45-39.14-22.33-73.67S190.5,375.62,189.09,375c-19.88-8.43-33.73-6.95-48.88,13.07C127.84,404.44,138.17,466.92,141.85,487.11Z" transform="translate(-80.52 -116.77)"/><polygon class="m" points="193.97 509.51 165.67 392.17 177.47 392.17 199.18 509.51 193.97 509.51"/><polygon class="m" points="79.96 509.51 101.67 392.17 113.47 392.17 85.17 509.51 79.96 509.51"/><rect class="m" x="135.78" y="392.16" width="7.59" height="117.35"/><path class="g" d="M241.69,607s0,4.72-.12,10c-.11,6.61-.29,14.08-.57,14.21-.49.24-14.51-.15-17.14-2.39-.93-.79-1.28-3.8-1.34-7.37-.09-4.94.36-11,.59-13.67.09-.92.14-1.46.14-1.46l3.95.14Z" transform="translate(-80.52 -116.77)"/><path class="h" d="M241.69,607s0,4.72-.12,10c-6.43-2.92-14.35-.53-19,4.45-.09-4.94.36-11,.59-13.67l4.09-1.32Z" transform="translate(-80.52 -116.77)"/><path class="i" d="M271.93,646.24c-1.1.16-47-1.37-48.85-2.08s-1.5-4-1.5-4l50.76,2.19S273,646.09,271.93,646.24Z" transform="translate(-80.52 -116.77)"/><path class="j" d="M272.34,642.34c-.78.72-50.76-2.19-50.76-2.19-3.73-5.34-.52-13.88.56-15.9.18-.34.3-.49.33-.44,2.22,4.94,16.47,7.62,16.81,6.07s1.78-7.31,3.56-6.69,18.25,11.22,23.71,13.39a12.91,12.91,0,0,1,5.06,3.22C272.63,641,272.75,642,272.34,642.34Z" transform="translate(-80.52 -116.77)"/><path class="k" d="M272.34,642.34c-.78.72-50.76-2.19-50.76-2.19-3.73-5.34-.52-13.88.56-15.9a11.62,11.62,0,0,0,4.1,9.28,22,22,0,0,0,10.44,4.8,68.7,68.7,0,0,0,11.74.94l23.19.53C272.63,641,272.75,642,272.34,642.34Z" transform="translate(-80.52 -116.77)"/><path class="n" d="M141.85,486.77a19.5,19.5,0,0,0,12.25,14.74c48.2,18.29,118.11,13,131.23,12.53,13.66-.53,14-3.7,12.14-8.76-4.21.24-8.42.48-12.63.66-17.33.71-34.89.5-51.92-3.1a108.62,108.62,0,0,1-27.27-9.51c-22-11.36-38.84-31.15-50.75-52.91-7.61-13.92-13.41-28.71-18.53-43.75C130.71,419.36,138.07,466,141.85,486.77Z" transform="translate(-80.52 -116.77)"/><path class="j" d="M203.9,462.21c1.21,19.13,12.41,31.72,18.87,36.54a13.07,13.07,0,0,0,3.77,2.16c2.56.66,24.16,4.75,38.78,7.49,7.71,1.46,13.48,2.53,13.48,2.53l10.61,95.6a2.68,2.68,0,0,0,2.66,2.39l15.79,0a2.7,2.7,0,0,0,2.69-2.59c.59-16.43,3.67-105.92-.39-116.38-4.47-11.52-66.84-32.74-66.84-32.74C206.72,445.15,203.9,462.21,203.9,462.21Z" transform="translate(-80.52 -116.77)"/><path class="k" d="M213.55,488.22a40.08,40.08,0,0,0,9.22,10.53,13.07,13.07,0,0,0,3.77,2.16c2.56.66,24.16,4.75,38.78,7.49a56.65,56.65,0,0,0-10.25-20.71c-9.63-12.36-23.4-20.86-37.63-27.39L210.09,468A29.93,29.93,0,0,0,213.55,488.22Z" transform="translate(-80.52 -116.77)"/><path class="j" d="M155.14,464c2.1,18.87,14.14,31,17.38,32.24,3.75,1.52,50.59,16.51,50.59,16.51l-1.49,98.57,8.91,1.13.81.1,10.9,1.39s17.61-106.08,14.6-118.06-62.21-40.85-62.21-40.85c-13.27-8.54-23.63-8-30.43-5.69a13.47,13.47,0,0,0-7.57,6.54,5.84,5.84,0,0,0-.52,1.16A13.52,13.52,0,0,0,155.14,464Z" transform="translate(-80.52 -116.77)"/><path class="k" d="M156.11,457.06c4.21,17.06,15.15,28.16,18.67,29.59S213.29,499.3,227,503.71a7.27,7.27,0,0,1,5,7.05l-1.53,101.71.81.1,1.56-102.39a7.27,7.27,0,0,0-5-7.05c-13.52-4.34-49.34-15.86-52.75-17.23s-14.54-12.69-18.48-30A5.84,5.84,0,0,0,156.11,457.06Z" transform="translate(-80.52 -116.77)"/><path class="o" d="M163.59,317.2c-.14,0,9.28,8.44,14.62,9.14l4.78-3.66v8s18.43,4.5,24,3.94,18.43.7,18.43.7l2.67-8.16s1.26,6.33,3.09,8.16,20.53,0,20.53,0-10.4-8.72-10.83-27.14-1.54-38.25-20.81-42.33-31.08,7.31-34.88,16-6,18.71-8.15,21.38S163.59,317.2,163.59,317.2Z" transform="translate(-80.52 -116.77)"/><path class="g" d="M300.91,366.69l-29.66,32.67L268,379.7l-2.35-10.32-23.2,10.8a129,129,0,0,0,3.14,18.06c3.34,14.24,9.48,31.42,18.94,29.69C277.9,425.51,304,387.68,311.93,376A60.15,60.15,0,0,1,300.91,366.69Z" transform="translate(-80.52 -116.77)"/><path class="h" d="M268,379.7c-9.86,3.11-17.06,9.7-22.41,18.54a129,129,0,0,1-3.14-18.06l23.2-10.8Z" transform="translate(-80.52 -116.77)"/><path class="p" d="M267.8,374.73c0-2.26-9.71-33.39-21.63-37.2-5-2.71-42.56-11.76-58.41-9.06s-33.5,5.89-39.61,15.4-3.38,26.35-3.38,26.35,29.64-2.14,26.7.59c-.55.51-1.71,3.28-3.21,7.47-1.38,3.85-3,8.89-4.8,14.45a3.91,3.91,0,0,1,2.73,4.35c-1.65,10.54-6.1,19.84-8.84,30.37.22,1.75-1.07,5.67-1,14.68,11.77-1.93,39.37-7.69,47.07,5,9.51,15.61,35.64,9.7,38.82,7.44.79-.58.78-5.92.31-13.65-1.39-23.12,1.3-56.19,1.3-56.19S267.8,377,267.8,374.73Z" transform="translate(-80.52 -116.77)"/><path class="q" d="M242.51,441.54a.65.65,0,0,1-.65-.61c-1.37-22.9,1.28-55.95,1.31-56.28a.64.64,0,1,1,1.28.1c0,.33-2.66,33.29-1.3,56.1a.66.66,0,0,1-.6.69Z" transform="translate(-80.52 -116.77)"/><path class="q" d="M244,385.34a.65.65,0,0,1-.63-.5l-3.5-15.32a.64.64,0,0,1,.48-.77.63.63,0,0,1,.77.49l3.51,15.31a.65.65,0,0,1-.48.78Z" transform="translate(-80.52 -116.77)"/><path class="p" d="M242.41,454.54c-27.1,6.72-54.09,18.65-90.38,13.76-2.4-1.11,9.91-71.78,16.44-90l5.31-4c-1.17,4.59-2.36,9.24-2.07,13.95s2.27,9.56,6.22,12.13c4.32,2.8,10.19,2.53,14.16,5.73,4.69,3.77,5.22,11.06,9.8,14.95,5.6,4.73,14.21,2.27,21.19,4.46,7.23,2.25,11.81,9.06,17.06,14.51,2.86,2.94-.85-1.32,2.58.94C243.2,448.62,243.22,454,242.41,454.54Z" transform="translate(-80.52 -116.77)"/><g class="r"><path class="p" d="M242.41,454.54c-27.1,6.72-54.09,18.65-90.38,13.76-2.4-1.11,9.91-71.78,16.44-90l5.31-4c-1.17,4.59-2.36,9.24-2.07,13.95s2.27,9.56,6.22,12.13c4.32,2.8,10.19,2.53,14.16,5.73,4.69,3.77,5.22,11.06,9.8,14.95,5.6,4.73,14.21,2.27,21.19,4.46,7.23,2.25,11.81,9.06,17.06,14.51,2.86,2.94-.85-1.32,2.58.94C243.2,448.62,243.22,454,242.41,454.54Z" transform="translate(-80.52 -116.77)"/></g><path class="q" d="M242.42,455.18a.62.62,0,0,1-.52-.27.64.64,0,0,1,.14-.9c.15-.21.72-1.92,0-13.08a.64.64,0,0,1,.61-.68.61.61,0,0,1,.68.6c.81,13.21-.06,13.84-.57,14.21A.68.68,0,0,1,242.42,455.18Z" transform="translate(-80.52 -116.77)"/><path class="g" d="M194.7,304.38c.13.75,0,23.6,0,23.6a60.37,60.37,0,0,0-12.93,1.59s7.21,23,26.21,21,16-19.12,16-19.12c-4.21-.77-8.14-1.45-11.25-1.91l.82-4.79s10.8,1.24,13.78-10.06,3.23-34.38,2.48-36.37-20.23-12-29.91-2.6-9.19,19.73-9.56,21.84-1.12,7.95,5,6.83" transform="translate(-80.52 -116.77)"/><path class="j" d="M223.25,295a.49.49,0,0,0,.38-.11.52.52,0,0,0,.08-.73,2.68,2.68,0,0,0-.52-.49,2.8,2.8,0,0,0-2.87-.28,3.13,3.13,0,0,0-.58.36.52.52,0,0,0-.07.73.51.51,0,0,0,.73.07,1.65,1.65,0,0,1,.36-.22,1.76,1.76,0,0,1,1.81.17,1.64,1.64,0,0,1,.33.31A.51.51,0,0,0,223.25,295Z" transform="translate(-80.52 -116.77)"/><path class="j" d="M205.7,294.44a.54.54,0,0,0,.35-.18,1.5,1.5,0,0,1,.32-.3,1.76,1.76,0,0,1,1.81-.17,1.67,1.67,0,0,1,.38.25.52.52,0,0,0,.73-.07.51.51,0,0,0-.06-.73,3.51,3.51,0,0,0-.61-.39,2.8,2.8,0,0,0-3.36.74.52.52,0,0,0,.06.73A.54.54,0,0,0,205.7,294.44Z" transform="translate(-80.52 -116.77)"/><path class="j" d="M213.37,307.84a4.87,4.87,0,0,0,1.73-.12,1.1,1.1,0,0,0,.67-.57c1-1.87-.64-8.89-.66-9a.52.52,0,1,0-1,.31c.41,1.41,1.46,7.66.69,8.23a5.1,5.1,0,0,1-2.94-.33.52.52,0,0,0-.68.27.5.5,0,0,0,.27.68A6.67,6.67,0,0,0,213.37,307.84Z" transform="translate(-80.52 -116.77)"/><path class="h" d="M217.68,312.44a4.05,4.05,0,0,1-8.06-.83Z" transform="translate(-80.52 -116.77)"/><path class="j" d="M206.69,299.42c0,.7.46,1.26.93,1.23s.84-.62.8-1.33-.46-1.26-.95-1.23S206.65,298.71,206.69,299.42Z" transform="translate(-80.52 -116.77)"/><path class="j" d="M221,300.19c-.07.7.25,1.32.73,1.37s.92-.49,1-1.19-.25-1.32-.74-1.37S221.09,299.48,221,300.19Z" transform="translate(-80.52 -116.77)"/><path class="o" d="M213.68,287.78c-2.92,1.66-6.25,2.43-9.51,3.23s-6.59,1.7-9.38,3.57-5,4.91-5,8.27c-1.77-5.3-.64-11.26,2-16.15s5.17-10.79,9.56-14.24c3.21-2.51,8.38-2.91,12.38-3.63,3.65-.66,8.88.34,10.76,3.94-2.62,1.91-2.4,4.26-3.65,7.05A17.44,17.44,0,0,1,213.68,287.78Z" transform="translate(-80.52 -116.77)"/><path class="o" d="M232.73,300.23a15.76,15.76,0,0,0-4.51-9.57c-1.51-1.5-3.37-2.74-4.43-4.61a38.42,38.42,0,0,1-1.51-3.74,4.72,4.72,0,0,0-2.74-2.79l3.21-7.22c2.28-.14,7,3.48,8.71,4.95s2.09,4,2.24,6.26A72.58,72.58,0,0,1,232.73,300.23Z" transform="translate(-80.52 -116.77)"/><path class="h" d="M213.57,324.74l-.81,4.79c-9.14-.53-9.85-10.33-9.85-10.33C205.93,324.54,213.57,324.74,213.57,324.74Z" transform="translate(-80.52 -116.77)"/><path class="g" d="M232.12,375.68C217,401.94,196.4,429.07,179,428.36c-13.24-.56-26-33.85-31.36-49.8-1.69-5-2.65-8.34-2.65-8.34a182.92,182.92,0,0,1,27.93-.37l5.66,12.91,6.66,15.17c4.93-6.6,39.4-30.54,39.4-30.54Z" transform="translate(-80.52 -116.77)"/><path class="h" d="M178.57,382.76a77.67,77.67,0,0,0-30.94-4.2c-1.69-5-2.65-8.34-2.65-8.34a182.92,182.92,0,0,1,27.93-.37Z" transform="translate(-80.52 -116.77)"/><path class="s" d="M180.48,407.34h-.07a.65.65,0,0,1-.57-.71,13.15,13.15,0,0,1,5-9.23.65.65,0,1,1,.73,1.07,12.1,12.1,0,0,0-4.47,8.29A.63.63,0,0,1,180.48,407.34Z" transform="translate(-80.52 -116.77)"/><path class="s" d="M268.76,406.31h-.14a.64.64,0,0,1-.49-.77c1.24-5.64,2.5-6.6,2.85-6.76a.65.65,0,0,1,.59,1.15c-.09.08-1.1,1-2.18,5.89A.63.63,0,0,1,268.76,406.31Z" transform="translate(-80.52 -116.77)"/><path class="q" d="M172.91,370.5a.65.65,0,0,1-.62-.47l-2.59-8.82a.65.65,0,0,1,1.24-.37l2.59,8.83a.65.65,0,0,1-.44.8Z" transform="translate(-80.52 -116.77)"/><path class="g" d="M457.7,603.86s0,4.73.12,10c.11,6.61.29,14.09.57,14.22.5.23,14.51-.16,17.15-2.4.92-.79,1.28-3.8,1.33-7.37.1-4.93-.36-10.94-.59-13.66-.08-.93-.14-1.47-.14-1.47l-3.95.15Z" transform="translate(-80.52 -116.77)"/><path class="h" d="M457.7,603.86s0,4.73.12,10c6.44-2.92,14.36-.53,19.05,4.45.1-4.93-.36-10.94-.59-13.66-1.21-.4-2.62-.86-4.09-1.32Z" transform="translate(-80.52 -116.77)"/><path class="i" d="M427.46,643.11c1.1.15,47-1.38,48.85-2.09s1.51-4,1.51-4l-50.76,2.19S426.37,643,427.46,643.11Z" transform="translate(-80.52 -116.77)"/><path class="j" d="M427.06,639.2c.78.72,50.76-2.19,50.76-2.19,3.73-5.33.52-13.87-.57-15.9-.18-.34-.3-.49-.32-.44-2.23,4.94-16.48,7.62-16.82,6.08s-1.77-7.32-3.55-6.7-18.26,11.23-23.71,13.39a12.85,12.85,0,0,0-5.07,3.23C426.77,637.84,426.65,638.82,427.06,639.2Z" transform="translate(-80.52 -116.77)"/><path class="k" d="M427.06,639.2c.78.72,50.76-2.19,50.76-2.19,3.73-5.33.52-13.87-.57-15.9a11.59,11.59,0,0,1-4.1,9.28,21.84,21.84,0,0,1-10.43,4.8,68.74,68.74,0,0,1-11.75.95l-23.19.53C426.77,637.84,426.65,638.82,427.06,639.2Z" transform="translate(-80.52 -116.77)"/><path class="l" d="M625.41,487.11a19.52,19.52,0,0,1-12.25,14.75c-48.2,18.29-118.11,13-131.23,12.52-13.67-.53-14-3.7-12.14-8.76,0-.16.11-.32.18-.49,2.07-5.33,44.92-8.65,62.54-18.74s13.45-39.14,22.33-73.67,21.92-37.1,23.32-37.69c19.88-8.43,33.74-6.95,48.89,13.07a24.66,24.66,0,0,1,3.84,8.92C636.55,419.7,629.19,466.37,625.41,487.11Z" transform="translate(-80.52 -116.77)"/><polygon class="m" points="412.25 509.51 440.55 392.17 428.75 392.17 407.03 509.51 412.25 509.51"/><polygon class="m" points="526.25 509.51 504.54 392.17 492.74 392.17 521.04 509.51 526.25 509.51"/><rect class="m" x="462.85" y="392.16" width="7.59" height="117.35"/><path class="g" d="M525.57,607s0,4.72.11,10c.11,6.61.3,14.08.57,14.21.5.24,14.51-.15,17.15-2.39.93-.79,1.28-3.8,1.34-7.37.09-4.94-.37-11-.6-13.67-.08-.92-.14-1.46-.14-1.46l-3.94.14Z" transform="translate(-80.52 -116.77)"/><path class="h" d="M525.57,607s0,4.72.11,10c6.44-2.92,14.36-.53,19.06,4.45.09-4.94-.37-11-.6-13.67l-4.08-1.32Z" transform="translate(-80.52 -116.77)"/><path class="i" d="M495.33,646.24c1.1.16,47-1.37,48.85-2.08s1.5-4,1.5-4l-50.76,2.19S494.23,646.09,495.33,646.24Z" transform="translate(-80.52 -116.77)"/><path class="j" d="M494.92,642.34c.78.72,50.76-2.19,50.76-2.19,3.73-5.34.52-13.88-.57-15.9-.17-.34-.29-.49-.32-.44-2.23,4.94-16.48,7.62-16.81,6.07s-1.78-7.31-3.56-6.69-18.25,11.22-23.71,13.39a12.91,12.91,0,0,0-5.06,3.22C494.63,641,494.51,642,494.92,642.34Z" transform="translate(-80.52 -116.77)"/><path class="k" d="M494.92,642.34c.78.72,50.76-2.19,50.76-2.19,3.73-5.34.52-13.88-.57-15.9a11.58,11.58,0,0,1-4.09,9.28,22,22,0,0,1-10.44,4.8,68.7,68.7,0,0,1-11.74.94l-23.19.53C494.63,641,494.51,642,494.92,642.34Z" transform="translate(-80.52 -116.77)"/><path class="n" d="M625.41,486.77a19.5,19.5,0,0,1-12.25,14.74C565,519.8,495.05,514.54,481.93,514c-13.67-.53-14-3.7-12.14-8.76,4.21.24,8.42.48,12.63.66,17.32.71,34.88.5,51.91-3.1a108.55,108.55,0,0,0,27.28-9.51c22-11.36,38.84-31.15,50.75-52.91,7.61-13.92,13.41-28.71,18.53-43.75C636.55,419.36,629.19,466,625.41,486.77Z" transform="translate(-80.52 -116.77)"/><path class="j" d="M563.36,462.21c-1.21,19.13-12.42,31.72-18.87,36.54a13.21,13.21,0,0,1-3.77,2.16c-2.56.66-24.16,4.75-38.78,7.49-7.71,1.46-13.49,2.53-13.49,2.53l-10.6,95.6a2.68,2.68,0,0,1-2.66,2.39l-15.8,0a2.69,2.69,0,0,1-2.68-2.59c-.6-16.43-3.68-105.92.39-116.38,4.47-11.52,66.84-32.74,66.84-32.74C560.54,445.15,563.36,462.21,563.36,462.21Z" transform="translate(-80.52 -116.77)"/><path class="k" d="M553.71,488.22a40.08,40.08,0,0,1-9.22,10.53,13.21,13.21,0,0,1-3.77,2.16c-2.56.66-24.16,4.75-38.78,7.49a56.65,56.65,0,0,1,10.25-20.71c9.63-12.36,23.39-20.86,37.63-27.39l7.35,7.65A29.93,29.93,0,0,1,553.71,488.22Z" transform="translate(-80.52 -116.77)"/><path class="j" d="M612.12,464c-2.1,18.87-14.14,31-17.38,32.24-3.76,1.52-50.59,16.51-50.59,16.51l1.48,98.57-8.9,1.13-.81.1L525,614s-17.6-106.08-14.59-118.06,62.21-40.85,62.21-40.85c13.27-8.54,23.63-8,30.43-5.69a13.51,13.51,0,0,1,7.57,6.54,5.84,5.84,0,0,1,.52,1.16A13.63,13.63,0,0,1,612.12,464Z" transform="translate(-80.52 -116.77)"/><path class="k" d="M610.63,455.9c-4,17.31-15,28.61-18.48,30s-39.23,12.89-52.75,17.23a7.29,7.29,0,0,0-5,7.05l1.57,102.39.81-.1L535.2,510.76a7.27,7.27,0,0,1,5-7.05C554,499.3,589,488,592.47,486.65s14.47-12.53,18.68-29.59A5.84,5.84,0,0,0,610.63,455.9Z" transform="translate(-80.52 -116.77)"/><rect class="t" x="277.89" y="437.22" width="125.2" height="5.03" rx="0.95" transform="translate(600.45 762.7) rotate(180)"/><path class="u" d="M307.16,436.92h92.93l3.84-14.58L416.65,374a3.66,3.66,0,0,0-3.63-4.89H329.9a5.52,5.52,0,0,0-2.35.53,6.84,6.84,0,0,0-3.83,4.36Z" transform="translate(-80.52 -116.77)"/><path class="v" d="M307.46,437.23h92.93l3.85-14.59a73.24,73.24,0,0,1-8,.95,65.53,65.53,0,0,1-68.43-53.67,6.84,6.84,0,0,0-3.83,4.36Z" transform="translate(-80.52 -116.77)"/><path class="w" d="M278.74,344.61l-11.1,46.67a3.25,3.25,0,0,1-3,2.41H226.92a1.85,1.85,0,0,1-1.84-2.41l11.1-46.67a3.25,3.25,0,0,1,3-2.41H276.9A1.84,1.84,0,0,1,278.74,344.61Z" transform="translate(-80.52 -116.77)"/><path class="x" d="M254.2,360.58a1.84,1.84,0,0,0-.31.86,6,6,0,0,1-1.45,4.45,1.22,1.22,0,0,0-.17,1.69,1.47,1.47,0,0,1-.07,1.7,14,14,0,0,0-.87,1.4c-.33.69-.88,1.46-.78,2.08a3.93,3.93,0,0,1-1.91,4c-1.43.87-3,1.6-4.51,2.36s-3,1.47-4.58,2.2a37.83,37.83,0,0,1-4.73,2c-1.82.55-3.75.76-5.61,1.17a1.42,1.42,0,0,0-.22,0,20.36,20.36,0,0,0-2.48.76L231.59,364l5.78-.6c1.69-.18,3.34-.36,5-.52a10.77,10.77,0,0,0,2.29-.14c1.59-.53,3.12-1.22,4.67-1.86.2-.08.32-.32.5-.49a4.19,4.19,0,0,1,3.4-1.5C254.32,358.91,254.7,359.65,254.2,360.58Z" transform="translate(-80.52 -116.77)"/><path class="i" d="M254.36,342.19l-15.11.06a3.59,3.59,0,0,1,4-3.93C248.93,338.4,254.36,342.19,254.36,342.19Z" transform="translate(-80.52 -116.77)"/><path class="y" d="M269.5,391.13c-7.65-1.51-42.77-.76-42.77-.76s19.91-49.76,15.28-51.93l38.91-1.25C287.53,338.89,269.5,391.13,269.5,391.13Z" transform="translate(-80.52 -116.77)"/><path class="g" d="M321.07,367.41c-1.33,1.22-2.36,2.76-3.65,4a32.9,32.9,0,0,1-4.35,3.74,27.57,27.57,0,0,0-6,5.86c-.6.76-1.2,1.52-1.81,2.26l-4.83,5.87-.62.71-11.86-9c.88-.85,1.66-1.6,2.41-2.38,2.58-2.66,5.12-5.37,7.74-8a13,13,0,0,0,3.41-5.35c.84-2.84,1.57-5.7,2.4-8.55a4.81,4.81,0,0,1,2.41-2.87c1.38-.8,2.62-1.82,3.94-2.72a12.68,12.68,0,0,1,1.22-.62A1.64,1.64,0,0,0,312,350c.82-1,1.61-2.08,2.43-3.12l2.89-3.29c1.17-1.26,2.32-2.54,3.54-3.76a18.07,18.07,0,0,1,2.77-2.4,1.57,1.57,0,0,1,2.31.17,2,2,0,0,1,0,2.46,60.26,60.26,0,0,1-5,6c-.69.69-.72,1.62-1.47,2.22a7.22,7.22,0,0,0-1.71,2.43,3.9,3.9,0,0,0,.46-.12,11.47,11.47,0,0,1,1.08-.48c1.91-.54,3.2.62,2.85,2.57-.09.56-.09.9.53,1.21,1.29.66,1.56,1.87.93,3.41-.24.57-.51,1.14-.78,1.75,1.32,1,1.05,2.32.73,3.61A9.09,9.09,0,0,1,321.07,367.41Z" transform="translate(-80.52 -116.77)"/><path class="g" d="M254.2,360.58a1.84,1.84,0,0,0-.31.86,6,6,0,0,1-1.45,4.45,1.22,1.22,0,0,0-.17,1.69,1.47,1.47,0,0,1-.07,1.7,14,14,0,0,0-.87,1.4c-.33.69-.88,1.46-.78,2.08a3.93,3.93,0,0,1-1.91,4c-1.43.87-3,1.6-4.51,2.36s-3,1.47-4.58,2.2a37.83,37.83,0,0,1-4.73,2c-1.82.55-3.75.76-5.61,1.17a1.42,1.42,0,0,0-.22,0,20.36,20.36,0,0,0-2.48.76,15.79,15.79,0,0,0-4.65,2.68c-3.28,2.79-6.45,5.7-9.67,8.55-.63.57-1.29,1.11-2,1.72-1.41-5.38-2.8-10.66-4.14-15.72,2.65-1.6,5.18-3,7.55-4.6,2.07-1.39,3.94-3.08,5.94-4.59l.05,0a7.36,7.36,0,0,0,2.27-2.82c.57-1.2,1.14-2.43,1.81-3.56,1.15-2,2-4.08,3.82-5.59s2.54-3.77,4.88-4.58a3.4,3.4,0,0,0,1.12-.72l-1.86,7.86s0,.05,0,.07h0l5.78-.6c1.69-.18,3.34-.36,5-.52a10.77,10.77,0,0,0,2.29-.14c1.59-.53,3.12-1.22,4.67-1.86.2-.08.32-.32.5-.49a4.19,4.19,0,0,1,3.4-1.5C254.32,358.91,254.7,359.65,254.2,360.58Z" transform="translate(-80.52 -116.77)"/><path class="g" d="M484.38,381.41c-3.45,2.47-6.81,4.88-10.26,7.38l-1.75-2.86c-.7-1.13-1.38-2.25-2.07-3.38-1.14-1.81-2.23-3.66-3.43-5.42a15.83,15.83,0,0,1-1.46-2.38,6.19,6.19,0,0,1-.45-1.13,4.68,4.68,0,0,0-2.13-2.74,28.17,28.17,0,0,0-7.83-3.21,6.65,6.65,0,0,1-1.69-.78c-.74-.42-1.39-.94-2.14-1.33a26.46,26.46,0,0,0-2.94-1.29,2.19,2.19,0,0,1-1.35-1.69,1.13,1.13,0,0,0-.48-.62c-.32-.26-.75-.4-1.07-.67-.58-.48-1.52-.91-1.32-1.81s-.21-1.28-.89-1.65a1.4,1.4,0,0,1-.58-2.09c.31-.56.76-1,1-1.57.15-.3.23-.9.07-1-1.82-1.51-3.69-2.95-5.52-4.44-.28-.22-.64-.7-.54-.92a1.18,1.18,0,0,1,.92-.65,8,8,0,0,1,2.67.48,22,22,0,0,1,3.73,2,5,5,0,0,0,4.07,1.07c1-.21,1.39.31,1.31,1.36,0,.42,0,.7.48.82.81.23,1.63.49,2.44.76,1.31.43,2.62.87,3.94,1.28a1.35,1.35,0,0,0,.53,0,2,2,0,0,0,.17-.23,10.29,10.29,0,0,0-1.14-1.32c-1.2-1-2.48-1.95-3.68-3a4.37,4.37,0,0,1-1.78-4.06c.2-1.42,1.22-1.88,2.35-1a29.36,29.36,0,0,1,2.65,2.47,17,17,0,0,0,4.14,3.52,8.89,8.89,0,0,1,1.95,1.16,50.44,50.44,0,0,1,4.19,4,21.29,21.29,0,0,1,2.71,3.68c1.13,1.87,1.93,3.88,3.37,5.58a13.31,13.31,0,0,1,.94,1.26c.62.92,1.17,1.91,1.75,2.85a52.49,52.49,0,0,0,7.41,9.88C483.26,380.22,483.79,380.79,484.38,381.41Z" transform="translate(-80.52 -116.77)"/><path class="h" d="M484.38,381.41c-3.45,2.47-6.81,4.88-10.26,7.38l-1.75-2.86c-.7-1.13-1.38-2.25-2.07-3.38-1.14-1.81-2.23-3.66-3.43-5.42a15.83,15.83,0,0,1-1.46-2.38l.68-.14a10.79,10.79,0,0,0,6.64-5.63,14.37,14.37,0,0,0,.82-2.05c.62.92,1.17,1.91,1.75,2.85a52.49,52.49,0,0,0,7.41,9.88C483.26,380.22,483.79,380.79,484.38,381.41Z" transform="translate(-80.52 -116.77)"/><path class="o" d="M602.27,365h27.2a157,157,0,0,1-31.22-72.58L566.42,328a78.49,78.49,0,0,0,28.42,32.78A75.62,75.62,0,0,0,602.27,365Z" transform="translate(-80.52 -116.77)"/><path class="o" d="M581.82,315.77c.07,9.05-1.64,18.48-7.06,25.74a30.42,30.42,0,0,1-15.11,10.65,32.47,32.47,0,0,1-18.53.14c-1.36-.38-2.68-.86-4-1.36l-4.06-3.39c-.42.34-.85.67-1.29,1-2.21-1-4.37-2.07-6.61-3a50.73,50.73,0,0,0,16.9-38h8.29v-3.45Z" transform="translate(-80.52 -116.77)"/><path class="o" d="M599.82,297.57a.75.75,0,0,1,0-.16c-1.18-3.55-2.53-7.62-4.2-11.45-3.67-8.43-15.09-19.44-33.71-15.5s-19.72,23.12-20.13,40.93a43.93,43.93,0,0,1-.78,7.32h62.61C601.21,311.83,600.54,304.88,599.82,297.57Z" transform="translate(-80.52 -116.77)"/><path class="g" d="M586.43,308c-.09,1.23,0,17.17,1.24,35.78l-18.14,1.1-1.33-17.28s-10.44,1.2-13.32-9.72-3.12-33.24-2.4-35.16,19.56-11.64,28.92-2.52,8.88,19.08,9.24,21.12S591.65,308.57,586.43,308Z" transform="translate(-80.52 -116.77)"/><path class="j" d="M558.84,298.63a.56.56,0,0,1-.37-.11.51.51,0,0,1-.07-.71,2.84,2.84,0,0,1,.5-.48,2.71,2.71,0,0,1,2.77-.26,2.5,2.5,0,0,1,.56.35.49.49,0,0,1,.07.7.49.49,0,0,1-.7.07,2.56,2.56,0,0,0-.35-.22,1.74,1.74,0,0,0-1.76.17,2.2,2.2,0,0,0-.31.3A.53.53,0,0,1,558.84,298.63Z" transform="translate(-80.52 -116.77)"/><path class="j" d="M575.81,298.08a.48.48,0,0,1-.34-.18,2.06,2.06,0,0,0-.31-.28,1.72,1.72,0,0,0-1.75-.17,2.35,2.35,0,0,0-.37.24.51.51,0,0,1-.71-.06.49.49,0,0,1,.07-.7,2.76,2.76,0,0,1,.58-.38,2.71,2.71,0,0,1,2.77.26,2.56,2.56,0,0,1,.48.45.5.5,0,0,1-.42.82Z" transform="translate(-80.52 -116.77)"/><path class="j" d="M568.39,311a4.33,4.33,0,0,1-1.67-.11,1.06,1.06,0,0,1-.65-.55c-1-1.81.62-8.6.64-8.66a.5.5,0,0,1,1,.3c-.4,1.36-1.41,7.4-.67,7.95a4.94,4.94,0,0,0,2.84-.31.5.5,0,0,1,.66.26.5.5,0,0,1-.26.66A6.8,6.8,0,0,1,568.39,311Z" transform="translate(-80.52 -116.77)"/><path class="h" d="M564.22,315.49a3.92,3.92,0,0,0,7.8-.81Z" transform="translate(-80.52 -116.77)"/><path class="j" d="M574.85,302.9c0,.68-.44,1.22-.9,1.19s-.81-.61-.77-1.29.44-1.22.91-1.19S574.89,302.21,574.85,302.9Z" transform="translate(-80.52 -116.77)"/><path class="j" d="M561,303.64c.07.68-.24,1.28-.7,1.32s-.89-.47-1-1.15.24-1.27.71-1.32S560.93,303,561,303.64Z" transform="translate(-80.52 -116.77)"/><path class="o" d="M568.09,291.64a35.33,35.33,0,0,0,9.2,3.13,28.17,28.17,0,0,1,9.07,3.45c2.7,1.8,4.85,4.74,4.88,8,1.71-5.12.62-10.88-2-15.61s-5-10.43-9.24-13.76c-3.1-2.43-8.1-2.82-12-3.52-3.52-.64-8.58.33-10.39,3.82,2.52,1.84,2.31,4.11,3.52,6.81A16.87,16.87,0,0,0,568.09,291.64Z" transform="translate(-80.52 -116.77)"/><path class="o" d="M549.68,303.68a15.24,15.24,0,0,1,4.35-9.25c1.47-1.45,3.26-2.65,4.29-4.45a37,37,0,0,0,1.46-3.62,4.53,4.53,0,0,1,2.65-2.7l-3.1-7c-2.21-.13-6.73,3.36-8.43,4.79s-2,3.85-2.16,6A70,70,0,0,0,549.68,303.68Z" transform="translate(-80.52 -116.77)"/><path class="h" d="M578.5,322.23s-.68,9.47-9.52,10l-.79-4.62S575.58,327.4,578.5,322.23Z" transform="translate(-80.52 -116.77)"/><path class="z" d="M620.16,349.75c-1.45,8.77-4.69,32.62-5.92,43-.32-.52-.48-.8-.48-.8a34.93,34.93,0,0,0-1.34,4.19c-.28,1.06-.5,2.15-.72,3.29-3.87,20.85,2.06,53.71,2.06,53.71-4.56,6.51-74.45,15.68-70.8,0a73.79,73.79,0,0,0,1.55-13.76c.48-14.56-1.55-34.1-1.55-34.1s-.11.14-.31.43c-1,1.38-5,2-9.55,7.44l.48-47.75c.93-1.8,1.83-3.43,2.69-4.76,5.28-8.21,16.2-12.52,23.34-14.54,3-.85,5.26-1.29,6.23-1.47l.51-.09s26.61-2.71,30.54-2.9h.48a2.84,2.84,0,0,0,.84.27,16.45,16.45,0,0,1,1.88.32,107.73,107.73,0,0,1,13.66,4.11A25.59,25.59,0,0,1,620.16,349.75Z" transform="translate(-80.52 -116.77)"/><path class="aa" d="M542.65,406.36a.64.64,0,0,1-.61-.44c-3.14-9.54-1.28-17.47,6.05-25.72a.65.65,0,0,1,.91-.06.64.64,0,0,1,0,.91c-7,7.87-8.77,15.41-5.78,24.46a.65.65,0,0,1-.42.82A.64.64,0,0,1,542.65,406.36Z" transform="translate(-80.52 -116.77)"/><g class="ab"><path class="z" d="M613.76,453.15c-4.56,6.51-74.45,15.68-70.8,0a73.79,73.79,0,0,0,1.55-13.76,22.06,22.06,0,0,0,12.59,3.72c6.21,0,12.22-2.25,17.72-5.13a75.85,75.85,0,0,0,36.83-44l.77,2.17c-.27,1.06-.51,2.16-.72,3.29C607.83,420.3,613.76,453.15,613.76,453.15Z" transform="translate(-80.52 -116.77)"/></g><path class="z" d="M535.58,410.55s-19.8,21.58-29.89,23.16-39-55-39-55l10.69-8.32,31.29,35.86L533.4,366Z" transform="translate(-80.52 -116.77)"/><path class="g" d="M570.68,451.71a3.92,3.92,0,0,1,2.93-1.77,1.86,1.86,0,0,0,.63-.13c1.29-.82,2.61-1.62,3.83-2.54a9.62,9.62,0,0,0,1.31-1.64c1-1.19,2-2.35,3-3.52s2.27-2.63,3.49-4.05c-.4-.08-.8-.2-1.19-.24a7.71,7.71,0,0,0-3.42.45,3.76,3.76,0,0,1-3.61-1,1.4,1.4,0,0,1-.45-1.06c0-.25.56-.46.9-.6a9,9,0,0,0,1.95-.69c1.82-1.35,4-.79,6-1.31s4.15-.08,6.22.07c1.21.08,2.42.29,3.63.48a6.88,6.88,0,0,0,3.31-.21l.21-.06,5.47-2.63c2.81,4.11,5.44,8.33,8,12.62-5.38,1.88-9.39,3.16-10.68,3.57-1.13,1.08-2.18,2.26-3.4,3.22a36.56,36.56,0,0,1-4,2.5c-1.34.79-2.68,1.56-4,2.31s-2.71,1.54-4.14,2.14a3.55,3.55,0,0,1-4-.63c-.41-.41-1.28-.39-2-.5a11.21,11.21,0,0,0-1.53-.08,1.29,1.29,0,0,1-1.31-.84,1.13,1.13,0,0,0-1.37-.75,5.46,5.46,0,0,1-4.11-1.24,1.62,1.62,0,0,0-.81-.2C570.53,453.22,570.17,452.55,570.68,451.71Z" transform="translate(-80.52 -116.77)"/><path class="z" d="M673.59,410.76c-4.77,8.59-68,38.18-68,38.18L600.09,432,637,409.34l-22.75-16.43c1.88-16,3.82-30.75,5.92-43C621.57,350.63,678.36,402.18,673.59,410.76Z" transform="translate(-80.52 -116.77)"/><path class="aa" d="M600.09,432.65a.65.65,0,0,1-.33-1.2l36.07-22.16-22-15.86a.65.65,0,0,1,.76-1.05l22.75,16.43a.65.65,0,0,1,.26.55.62.62,0,0,1-.3.52l-36.9,22.67A.59.59,0,0,1,600.09,432.65Z" transform="translate(-80.52 -116.77)"/><path class="g" d="M597.54,344.7c0,6.47-8.45,22.33-19,22.33-9.73,0-17.83-15.11-19-20.92,3-.85,5.26-1.29,6.23-1.47l.51-.09s26.61-2.71,30.54-2.9A7.66,7.66,0,0,1,597.54,344.7Z" transform="translate(-80.52 -116.77)"/><path class="h" d="M597.54,344.7c0,6.47-8.45,22.33-19,22.33-3.38,0-6.54-1.82-9.29-4.42a12.32,12.32,0,0,0,7.36,2.79c10.51,0,19-15.85,19-22.33a7.17,7.17,0,0,0-.12-1.31c.62-.06,1.1-.1,1.42-.11A7.66,7.66,0,0,1,597.54,344.7Z" transform="translate(-80.52 -116.77)"/><path class="h" d="M557.91,444.56v6.22c0,2.38-1.93,4.31-3.5,5.13H153.09c-3.2-.82-5.13-2.75-5.13-5.13v-6.22a4.31,4.31,0,0,1,4.31-4.32H553.59A4.31,4.31,0,0,1,557.91,444.56Z" transform="translate(-80.52 -116.77)"/><path class="y" d="M548.42,455.64V464a6.05,6.05,0,0,1-6,6.06H163.5a6.06,6.06,0,0,1-6.06-6.06v-8.32Z" transform="translate(-80.52 -116.77)"/><rect class="m" x="76.92" y="338.86" width="390.98" height="5.34"/><polygon class="m" points="45.74 531.26 113.23 353.25 100.63 353.25 33.14 531.26 45.74 531.26"/><polygon class="m" points="234.6 531.26 167.11 353.25 154.51 353.25 222 531.26 234.6 531.26"/><rect class="m" x="73.12" y="425.79" width="119.63" height="10.51"/><polygon class="m" points="322.83 531.26 390.32 353.25 377.71 353.25 310.22 531.26 322.83 531.26"/><polygon class="m" points="511.69 531.26 444.2 353.25 431.59 353.25 499.08 531.26 511.69 531.26"/><rect class="m" x="350.21" y="425.79" width="119.63" height="10.51"/><circle class="y" cx="511.69" cy="83.91" r="33.13"/><circle class="y" cx="453.93" cy="297.18" r="33.13" transform="translate(-20.11 553.92) rotate(-76.72)"/><path class="n" d="M455.36,282.14h0a8.66,8.66,0,0,1-11.83-3.08h0A8.66,8.66,0,0,1,455.36,282.14Z" transform="translate(-80.52 -116.77)"/><path class="k" d="M458.21,276.81c.06.7-.67,1.15-1.16,1.65a5.7,5.7,0,0,0-1.19,3.18l-1.23,7.89-.55-2.11a19.84,19.84,0,0,1,1.18-9.59,4.57,4.57,0,0,1,.68-1.27,1.66,1.66,0,0,1,1.26-.61A1.05,1.05,0,0,1,458.21,276.81Z" transform="translate(-80.52 -116.77)"/><path class="x" d="M472.78,296.4a23.78,23.78,0,0,1-4.65,14.48,8.93,8.93,0,0,1-3.83,3.26,8.76,8.76,0,0,1-3.6.37,26.56,26.56,0,0,1-3.07-.39,16.3,16.3,0,0,0-6.07,0,26.56,26.56,0,0,1-3.07.39,8.75,8.75,0,0,1-3.6-.37,8.93,8.93,0,0,1-3.83-3.26,13.68,13.68,0,0,1-.81-1.18,23.69,23.69,0,0,1-3.84-13.3,15.92,15.92,0,0,1,1.11-5.92,9.73,9.73,0,0,1,3.76-4.61,11,11,0,0,1,6.67-1.38,32.2,32.2,0,0,1,6.64,1.48,32.49,32.49,0,0,1,6.64-1.48,11.06,11.06,0,0,1,6.68,1.38,7.47,7.47,0,0,1,1,.72,10.23,10.23,0,0,1,2.78,3.89A15.92,15.92,0,0,1,472.78,296.4Z" transform="translate(-80.52 -116.77)"/><path class="ac" d="M472.78,296.4a23.78,23.78,0,0,1-4.65,14.48,8.93,8.93,0,0,1-3.83,3.26,8.76,8.76,0,0,1-3.6.37,26.56,26.56,0,0,1-3.07-.39,16.3,16.3,0,0,0-6.07,0,26.56,26.56,0,0,1-3.07.39,8.75,8.75,0,0,1-3.6-.37,8.93,8.93,0,0,1-3.83-3.26,13.68,13.68,0,0,1-.81-1.18,19.86,19.86,0,0,0,12-1.17,26.79,26.79,0,0,0,16.66-21.94,10.23,10.23,0,0,1,2.78,3.89A15.92,15.92,0,0,1,472.78,296.4Z" transform="translate(-80.52 -116.77)"/><path class="ad" d="M438.26,296.62a11.56,11.56,0,0,1,2.94-7.37,8.4,8.4,0,0,1,7.32-2.65,3.63,3.63,0,0,1,2.06,1,1.85,1.85,0,0,1,.39,2.12c-.51.9-1.72,1-2.73,1.22a9.36,9.36,0,0,0-6.09,5.35,18.16,18.16,0,0,0-1.28,3.92c-.16.69-.18,3.16-.88,3.43C438.62,304.12,438.22,297.54,438.26,296.62Z" transform="translate(-80.52 -116.77)"/><path class="ae" d="M616.35,197.74a13.66,13.66,0,0,1-.2,1.43,23.89,23.89,0,0,1-40.85,12.24,22.68,22.68,0,0,1-1.84-2.19,23.87,23.87,0,0,1-4.56-11.35.56.56,0,0,1,0-.13Z" transform="translate(-80.52 -116.77)"/><path class="af" d="M592.62,191.09c-13.1,0-23.72,2.91-23.72,6.49s10.62,6.5,23.72,6.5,23.73-2.91,23.73-6.5S605.73,191.09,592.62,191.09Zm0,12.48c-13.68,0-23.21-3.16-23.21-6s9.53-6,23.21-6,23.22,3.15,23.22,6S606.3,203.57,592.62,203.57Z" transform="translate(-80.52 -116.77)"/><path class="ag" d="M592.62,191.6c-13.68,0-23.21,3.15-23.21,6s9.53,6,23.21,6,23.22-3.16,23.22-6S606.3,191.6,592.62,191.6Z" transform="translate(-80.52 -116.77)"/><path class="l" d="M588.16,193.56l-.55.46a1.78,1.78,0,0,1-.1.83.76.76,0,0,1-.12.19c1.87-.83,3.89-2.57,3.24-.69-.77,2.28-4.84,3.54-7,3l-.14-.07a21.9,21.9,0,0,1-3.13-2.73c-2.28-2.24-1.73-3-.17-1.93,1,.69,1.92,1.4,2.44,1.71a5.08,5.08,0,0,1-.58-.82,2.25,2.25,0,0,1-.3-1.47s0,0,0,0c-1.39-2.31-1.73-3.58-.66-3.61.59,0,1.17.9,1.64,1.85,0,0,0-.09.07-.14a2.93,2.93,0,0,0,.36-1.41h0q-.18-.63-.36-1.17c-.63-1.89.22-2.63,1.53-.85a.52.52,0,0,1,.37-.05.92.92,0,0,1,.57.64,2.34,2.34,0,0,0,.39.81.64.64,0,0,0,.28.16,4.8,4.8,0,0,0-.48-3.73c-1.07-2.1-.81-3.87,1.21-2.29a3.12,3.12,0,0,1,1.15,1.83,1,1,0,0,1,.79.42h0a1.63,1.63,0,0,1,0,1.3,2.83,2.83,0,0,0-.19,1.31v0c1-1.34,2-2.91,2.43-1.75s-1.19,3.29-2.56,4.94c0,.11.07.23.11.35l.09.31c1.07-.89,2.26-1.82,2.67-1.8C592,189.24,591.18,191,588.16,193.56Z" transform="translate(-80.52 -116.77)"/><path class="n" d="M588.16,193.56l-.55.46a1.78,1.78,0,0,1-.1.83.76.76,0,0,1-.12.19c1.87-.83,3.89-2.57,3.24-.69-.77,2.28-4.84,3.54-7,3l-.14-.07a3.16,3.16,0,0,0,.75-1.56,4.72,4.72,0,0,1,.76-2c.41-.49,1-.76,1.41-1.26a3.86,3.86,0,0,0,.55-1.36c.49-2,1-3.93,1.48-5.89q.11-.37.18-.75h0a1.63,1.63,0,0,1,0,1.3,2.83,2.83,0,0,0-.19,1.31v0c1-1.34,2-2.91,2.43-1.75s-1.19,3.29-2.56,4.94c0,.11.07.23.11.35l.09.31c1.07-.89,2.26-1.82,2.67-1.8C592,189.24,591.18,191,588.16,193.56Z" transform="translate(-80.52 -116.77)"/><path class="aa" d="M616.15,199.17a23.89,23.89,0,0,1-40.85,12.24c7,1.72,14.24,2.56,21.29,1.24C604.65,211.15,612.43,206.42,616.15,199.17Z" transform="translate(-80.52 -116.77)"/><path class="l" d="M614,195.65v0a2.77,2.77,0,0,1,1.09-.75A1.63,1.63,0,0,0,616,194h0a1,1,0,0,0-.24-.87,3.05,3.05,0,0,0,.57-2.09c-.21-2.56-1.68-1.54-2.51.67a4.79,4.79,0,0,1-2.4,2.88c-.37-.69,1.1-1.87.05-2.24.42-2.17-.71-2.29-1.66-.55l-.62,1.06h0a3.14,3.14,0,0,1-1.29.71l-.15,0c.38-1,.67-2,.25-2.46-.75-.76-1.45.35-2.2,2.94h0a2.21,2.21,0,0,0-.88,1.21,4.76,4.76,0,0,0-.21,1c-.13-.58-.22-1.73-.4-2.95-.28-1.87-1.21-1.76-1.3,1.44a21.7,21.7,0,0,0,.12,4.15.64.64,0,0,0,0,.15,7.91,7.91,0,0,0,4.56,3.18,18.05,18.05,0,0,0,3-.62c-.09-.45-1.91-.77-3.31-1.38a1.41,1.41,0,0,0,.89-.53l.71.09c3.9.52,5.81-.08,5.26-.72-.26-.32-1.75-.56-3.13-.75a6.11,6.11,0,0,0,.35-.59c2.15-.11,4.82-.39,5.37-1.47S615.61,195.46,614,195.65Z" transform="translate(-80.52 -116.77)"/><path class="n" d="M614,195.65v0a2.77,2.77,0,0,1,1.09-.75A1.63,1.63,0,0,0,616,194h0l-.67.37L610,197.25a3.76,3.76,0,0,1-1.36.52c-.63.06-1.25-.22-1.89-.19a4.93,4.93,0,0,0-2,.8,3.11,3.11,0,0,1-1.65.51.64.64,0,0,0,0,.15,7.88,7.88,0,0,0,5.05,3.28.62.62,0,0,1,.61-.27,2.7,2.7,0,0,0,1.14-.25c.26-.08.52-.17.77-.27-.24-.42-2-.73-3.27-1.31a1.41,1.41,0,0,0,.89-.53l.71.09c3.9.52,5.81-.08,5.26-.72-.26-.32-1.75-.56-3.13-.75a6.11,6.11,0,0,0,.35-.59c2.15-.11,4.82-.39,5.37-1.47S615.61,195.46,614,195.65Z" transform="translate(-80.52 -116.77)"/><path class="l" d="M601.64,193.91l-.21.69a1.69,1.69,0,0,1,.36.75.81.81,0,0,1,0,.22c1.13-1.71,1.88-4.26,2.36-2.33.57,2.33-2.17,5.6-4.27,6.35h-.16a21.19,21.19,0,0,1-4.11-.6c-3.13-.65-3.07-1.58-1.19-1.53,1.24,0,2.38.14,3,.12a5.34,5.34,0,0,1-.93-.38,2.23,2.23,0,0,1-1-1.08s0,0,0,0c-2.42-1.2-3.39-2.08-2.51-2.69.49-.34,1.47.13,2.38.68,0-.06,0-.11,0-.16a3.07,3.07,0,0,0-.47-1.38h0c-.33-.29-.64-.55-.94-.79-1.55-1.25-1.23-2.33.83-1.54A.53.53,0,0,1,595,190a.93.93,0,0,1,.83.23,2.37,2.37,0,0,0,.75.47.66.66,0,0,0,.34,0,4.85,4.85,0,0,0-2.43-2.87c-2-1.2-2.77-2.83-.22-2.59a3.1,3.1,0,0,1,2,.93,1,1,0,0,1,.9-.09h0a1.63,1.63,0,0,1,.73,1.06,2.85,2.85,0,0,0,.55,1.21l0,0c.1-1.65.1-3.52,1.1-2.78s.78,3.41.51,5.54l.29.23a2.39,2.39,0,0,1,.23.22,8.85,8.85,0,0,1,1.28-3C602.57,188.18,602.83,190.16,601.64,193.91Z" transform="translate(-80.52 -116.77)"/><path class="n" d="M601.64,193.91l-.21.69a1.69,1.69,0,0,1,.36.75.81.81,0,0,1,0,.22c1.13-1.71,1.88-4.26,2.36-2.33.57,2.33-2.17,5.6-4.27,6.35h-.16a3.27,3.27,0,0,0-.2-1.71,4.66,4.66,0,0,1-.45-2.09c.08-.63.46-1.19.51-1.82a3.79,3.79,0,0,0-.27-1.44q-1-2.88-1.93-5.76c-.08-.24-.16-.48-.25-.73h0a1.63,1.63,0,0,1,.73,1.06,2.85,2.85,0,0,0,.55,1.21l0,0c.1-1.65.1-3.52,1.1-2.78s.78,3.41.51,5.54l.29.23a2.39,2.39,0,0,1,.23.22,8.85,8.85,0,0,1,1.28-3C602.57,188.18,602.83,190.16,601.64,193.91Z" transform="translate(-80.52 -116.77)"/><path class="l" d="M573,195.87c-.12-.24-.23-.46-.33-.64a1.59,1.59,0,0,1-.78-.28.81.81,0,0,1-.16-.16c.39,2,1.64,4.36,0,3.31-2-1.26-2.38-5.51-1.41-7.52l.11-.12a21.89,21.89,0,0,1,3.35-2.45c2.69-1.73,3.3-1,1.92.26-.9.84-1.8,1.57-2.21,2a5.39,5.39,0,0,1,.93-.39,2.27,2.27,0,0,1,1.5,0h0c2.57-.84,3.87-.89,3.68.16-.12.58-1.15.94-2.18,1.18l.12.11a3.07,3.07,0,0,0,1.31.66h0c.43,0,.84-.05,1.22-.09,2-.2,2.51.8.49,1.68a.59.59,0,0,1,0,.37,1,1,0,0,1-.76.42,2.17,2.17,0,0,0-.87.2.57.57,0,0,0-.22.24,4.8,4.8,0,0,0,3.74.35c2.29-.57,4,.07,2,1.69a3.08,3.08,0,0,1-2,.71,1,1,0,0,1-.59.69h0a1.62,1.62,0,0,1-1.27-.25,2.87,2.87,0,0,0-1.24-.48h0c1.09,1.25,2.4,2.58,1.17,2.75s-2.94-1.89-4.25-3.59a2.19,2.19,0,0,0-.36,0,1.82,1.82,0,0,1-.33,0c.63,1.25,1.27,2.62,1.16,3C576.3,200.61,574.73,199.38,573,195.87Z" transform="translate(-80.52 -116.77)"/><path class="n" d="M573,195.87c-.12-.24-.23-.46-.33-.64a1.59,1.59,0,0,1-.78-.28.81.81,0,0,1-.16-.16c.39,2,1.64,4.36,0,3.31-2-1.26-2.38-5.51-1.41-7.52l.11-.12a3.14,3.14,0,0,0,1.35,1.08,4.59,4.59,0,0,1,1.77,1.18c.39.51.51,1.17.92,1.66a3.63,3.63,0,0,0,1.2.83L581,198l.69.34h0a1.62,1.62,0,0,1-1.27-.25,2.87,2.87,0,0,0-1.24-.48h0c1.09,1.25,2.4,2.58,1.17,2.75s-2.94-1.89-4.25-3.59a2.19,2.19,0,0,0-.36,0,1.82,1.82,0,0,1-.33,0c.63,1.25,1.27,2.62,1.16,3C576.3,200.61,574.73,199.38,573,195.87Z" transform="translate(-80.52 -116.77)"/><path class="l" d="M588.52,199.93a4.86,4.86,0,0,1-3.56,1.2.59.59,0,0,1,.11-.32,2.36,2.36,0,0,1,.71-.53.94.94,0,0,0,.52-.68.56.56,0,0,0-.12-.36c1.49-1.63.6-2.32-1.13-1.34-.33.19-.69.38-1.08.58h0a3,3,0,0,1-1.46-.07l-.16,0c.85-.64,1.65-1.38,1.51-2-.24-1-1.42-.46-3.42,1.35,0,0,0,0,0,0a2.21,2.21,0,0,0-1.39.57,4.77,4.77,0,0,0-.69.73c.19-.57.72-1.6,1.2-2.73.74-1.73-.11-2.13-1.86.54a21.78,21.78,0,0,0-2.07,3.6,1.27,1.27,0,0,0,0,.16,5.12,5.12,0,0,0,.14,1.24,30.17,30.17,0,0,0,8.49,1.29,34.32,34.32,0,0,1,4.41.14,1,1,0,0,0,.56-.26h0a1,1,0,0,0,.25-.86,3.18,3.18,0,0,0,1.58-1.48C592.17,198.39,590.38,198.48,588.52,199.93Z" transform="translate(-80.52 -116.77)"/><path class="n" d="M584.2,203.14a34.32,34.32,0,0,1,4.41.14,1,1,0,0,0,.56-.26h0l-.77,0-6.07-.33a3.69,3.69,0,0,1-1.44-.27c-.56-.28-.95-.84-1.51-1.14a4.78,4.78,0,0,0-2.1-.36,3.07,3.07,0,0,1-1.67-.44,1.27,1.27,0,0,0,0,.16,5.12,5.12,0,0,0,.14,1.24A30.17,30.17,0,0,0,584.2,203.14Z" transform="translate(-80.52 -116.77)"/><path class="ac" d="M594.91,196.73a3.54,3.54,0,0,1-.79,1c-.28.23-.82.13-1.37-.13s-.69-.55-.79-1.26a1.31,1.31,0,0,1,.59-1.2,2.48,2.48,0,0,0-.4.21,1.56,1.56,0,0,0,.15,2.15,1.83,1.83,0,0,0,.27.21c.44.27,1.18.54,1.58.15a4.26,4.26,0,0,0,.89-1.15c.05-.15.23-.5.38-.52C595.32,196.16,595.08,196.39,594.91,196.73Z" transform="translate(-80.52 -116.77)"/><polygon class="ah" points="517.58 77.45 517.58 77.45 517.58 77.45 517.58 77.45"/><path class="ac" d="M597.11,196.65a1.12,1.12,0,0,1-1.28-.23.5.5,0,0,0-.33-.21l0,0c.17.2.35.85,1.27.65.64-.14,1.71-.79,1.78-1.66a1.13,1.13,0,0,0-.3-.8,1,1,0,0,1,.19.74A2.24,2.24,0,0,1,597.11,196.65Z" transform="translate(-80.52 -116.77)"/><path class="ac" d="M597.33,191.71c-.06.44-.43.7-.85.89a.64.64,0,0,0-.44.53.57.57,0,0,1,.28-.27,5.23,5.23,0,0,1,.69-.31.91.91,0,0,0,.4-.54c0-.1.05-.2.07-.32a1.27,1.27,0,0,0-.11-.8,2.25,2.25,0,0,0-.33-.43A1.72,1.72,0,0,1,597.33,191.71Z" transform="translate(-80.52 -116.77)"/><path class="ac" d="M592.28,194.49A1.33,1.33,0,0,1,591,194c-.37-.42-.5-.76-.15-1.62s1-1.64,1.24-1.62a1.88,1.88,0,0,1,.88.44,1.9,1.9,0,0,0-.8-.54h-.12l-.14,0a.54.54,0,0,0-.2.1,4.1,4.1,0,0,0-1.18,2,1.66,1.66,0,0,0,0,.65,1.6,1.6,0,0,0,1.54,1.26c.38,0,.6-.17.72-.15h0C592.67,194.47,592.76,194.43,592.28,194.49Z" transform="translate(-80.52 -116.77)"/><path class="x" d="M595.5,196.21h0Z" transform="translate(-80.52 -116.77)"/><path class="x" d="M598.1,194.22a1.68,1.68,0,0,1,.18.21A.84.84,0,0,0,598.1,194.22Z" transform="translate(-80.52 -116.77)"/><path class="x" d="M597,193s.52,0,1-1.24c.27-.75-.4-1.7-1.25-2.31h0a2.53,2.53,0,0,0-1.9-.55c-.91.25-1.33,2-1.33,2l-1-.71-.1-.07c-.87-.63-2.23,1.12-2.44,2.81a1.48,1.48,0,0,0,0,.56c.26,1.2,1.92,1.45,1.92,1.45a1.87,1.87,0,0,0,.2,3l.18.1c2.52,1.24,2.91-1.29,3.21-1,1,.86,3,.1,3.52-1.65S597,193,597,193Zm-4.91-2.42h.12a1.9,1.9,0,0,1,.8.54c.12.11.22.21.31.28.36.29.51-.26.51-.26a1.88,1.88,0,0,1,1.43-1.67,2.25,2.25,0,0,1,1.61.76l.18.19a2.25,2.25,0,0,1,.33.43,1.27,1.27,0,0,1,.11.8,1.65,1.65,0,0,1-.07.32.91.91,0,0,1-.4.54,5.23,5.23,0,0,0-.69.31.57.57,0,0,0-.28.27.2.2,0,0,0,0,.13.3.3,0,0,0,.06.14c.17.18.6.1.83.08a2.55,2.55,0,0,1,1.18.74h0a.84.84,0,0,1,.18.21,1.13,1.13,0,0,1,.3.8c-.07.87-1.14,1.52-1.78,1.66-.92.2-1.1-.45-1.27-.65l0,0h-.08c-.15,0-.33.37-.38.52a4.26,4.26,0,0,1-.89,1.15c-.4.39-1.14.12-1.58-.15a1.83,1.83,0,0,1-.27-.21,1.56,1.56,0,0,1-.15-2.15,2.48,2.48,0,0,1,.4-.21c.19-.1.36-.21.34-.44s-.06-.19-.12-.2-.34.1-.72.15a1.6,1.6,0,0,1-1.54-1.26,1.66,1.66,0,0,1,0-.65,4.1,4.1,0,0,1,1.18-2,.54.54,0,0,1,.2-.1Z" transform="translate(-80.52 -116.77)"/><path class="x" d="M596.73,189.48c.85.61,1.52,1.56,1.25,2.31-.47,1.28-1,1.24-1,1.24s2.59.66,2,2.4-2.56,2.51-3.52,1.65c-.3-.27-.69,2.26-3.21,1l-.18-.1a4.64,4.64,0,0,0,.45-.28c.44.27,1.18.54,1.58.15a4.26,4.26,0,0,0,.89-1.15c.06-.18.32-.67.49-.48s.35.85,1.27.65c.64-.14,1.71-.79,1.78-1.66s-1.37-1.77-1.66-1.75-.66.1-.83-.08l.23-.54a5.23,5.23,0,0,1,.69-.31,1.39,1.39,0,0,0,.36-1.66,2.85,2.85,0,0,0-.51-.62A4.34,4.34,0,0,0,596.73,189.48Z" transform="translate(-80.52 -116.77)"/><path class="x" d="M592.42,190.18l.1.07-.32.37a.53.53,0,0,0-.46.11,4.1,4.1,0,0,0-1.18,2c-.21.28-.4.56-.56.8a1.48,1.48,0,0,1,0-.56C590.19,191.3,591.55,189.55,592.42,190.18Z" transform="translate(-80.52 -116.77)"/><path class="ai" d="M609.06,200.39c-.28.23-.81.13-1.35-.13s-.68-.54-.78-1.24a1.29,1.29,0,0,1,.58-1.18,1.39,1.39,0,0,0-.25,2.32c.37.38,1.38.81,1.83.36a4.07,4.07,0,0,0,.88-1.14c0-.14.22-.48.38-.51C610.08,198.76,609.79,199.78,609.06,200.39Z" transform="translate(-80.52 -116.77)"/><polygon class="ah" points="532.47 80.15 532.47 80.15 532.47 80.15 532.47 80.15"/><path class="ai" d="M610.74,199.09a.4.4,0,0,0-.32-.2,1.06,1.06,0,0,0,1.28.67c1.09-.24,2.3-1.37,1.47-2.43a1,1,0,0,1,.18.72C613.18,199.07,611.25,199.91,610.74,199.09Z" transform="translate(-80.52 -116.77)"/><path class="ai" d="M612.23,194.44c-.06.44-.43.69-.84.88a.63.63,0,0,0-.43.52c.1-.27.65-.44.95-.57s.41-.62.47-.85a1.32,1.32,0,0,0-.11-.79,2.22,2.22,0,0,0-.33-.42A1.67,1.67,0,0,1,612.23,194.44Z" transform="translate(-80.52 -116.77)"/><path class="ai" d="M606,196.67c-.37-.42-.49-.76-.15-1.61s.95-1.61,1.23-1.6a2,2,0,0,1,.87.44,1.87,1.87,0,0,0-.8-.53h-.25a.54.54,0,0,0-.2.1,4.14,4.14,0,0,0-1.17,2,1.81,1.81,0,0,0,0,.64,1.56,1.56,0,0,0,1.52,1.24c.37,0,.59-.17.7-.15h0C607.27,197.07,606.73,197.48,606,196.67Z" transform="translate(-80.52 -116.77)"/><path class="aj" d="M610.42,198.89l0,0Z" transform="translate(-80.52 -116.77)"/><path class="aj" d="M613,196.92l.18.21A1.68,1.68,0,0,0,613,196.92Z" transform="translate(-80.52 -116.77)"/><path class="aj" d="M611.89,195.74s.51,0,1-1.22c.26-.74-.39-1.68-1.24-2.27h0a2.48,2.48,0,0,0-1.87-.54c-.9.25-1.31,2-1.31,2l-1-.69-.1-.08c-.87-.62-2.21,1.1-2.42,2.77a2,2,0,0,0,0,.56c.26,1.19,1.9,1.43,1.9,1.43a1.83,1.83,0,0,0,.2,3c2.26,1.4,3.24-1,3.34-.91,1,.85,2.94.1,3.48-1.62S611.89,195.74,611.89,195.74Zm-4.84-2.38h.11a1.87,1.87,0,0,1,.8.53c1.27,1.2.28-1.2,2.21-1.63a2.21,2.21,0,0,1,1.59.75,1.57,1.57,0,0,1,.18.19,2.22,2.22,0,0,1,.33.42,1.32,1.32,0,0,1,.11.79,1.65,1.65,0,0,1-.07.32.91.91,0,0,1-.4.53c-.2.09-.47.18-.68.3a.63.63,0,0,0-.27.27.22.22,0,0,0,0,.14.23.23,0,0,0,.06.12c.17.18.59.11.83.09a2.56,2.56,0,0,1,1.16.73h0a1.68,1.68,0,0,1,.18.21,1.19,1.19,0,0,1,.3.79c-.08.85-1.14,1.5-1.77,1.64-.9.19-1.08-.45-1.25-.65l0,0,0,0h0c-.16,0-.34.37-.38.51a4.07,4.07,0,0,1-.88,1.14c-.39.39-1.12.12-1.56-.15a1.7,1.7,0,0,1-.27-.21,1.52,1.52,0,0,1-.14-2.11,1.45,1.45,0,0,1,.39-.21c.19-.1.36-.21.33-.44s-.05-.19-.12-.2-.33.11-.7.15a1.56,1.56,0,0,1-1.52-1.24,1.81,1.81,0,0,1,0-.64,4.14,4.14,0,0,1,1.17-2,.54.54,0,0,1,.2-.1Z" transform="translate(-80.52 -116.77)"/><path class="aj" d="M611.63,192.25c.85.59,1.5,1.53,1.24,2.27-.47,1.27-1,1.22-1,1.22s2.56.65,2,2.38-2.53,2.47-3.48,1.62c-.29-.26-.68,2.24-3.17,1l-.17-.09a4.54,4.54,0,0,0,.44-.28c.44.27,1.17.54,1.56.15a4.07,4.07,0,0,0,.88-1.14c0-.17.32-.66.48-.47s.35.84,1.25.65c.63-.14,1.69-.79,1.77-1.64s-1.36-1.75-1.64-1.73-.66.09-.83-.09a5.27,5.27,0,0,0,.23-.53c.21-.12.48-.21.68-.3a1.38,1.38,0,0,0,.36-1.64,2.61,2.61,0,0,0-.51-.61A2.89,2.89,0,0,0,611.63,192.25Z" transform="translate(-80.52 -116.77)"/><path class="aj" d="M607.39,192.93l.1.08-.33.36a.54.54,0,0,0-.45.1,4.14,4.14,0,0,0-1.17,2l-.55.79a2,2,0,0,1,0-.56C605.18,194,606.52,192.31,607.39,192.93Z" transform="translate(-80.52 -116.77)"/><path class="ai" d="M582.46,197.74a3.46,3.46,0,0,1-.78,1c-.28.24-.81.13-1.35-.12s-.68-.54-.79-1.25a1.33,1.33,0,0,1,.58-1.18,2.7,2.7,0,0,0-.38.21,1.53,1.53,0,0,0,.14,2.12,1.83,1.83,0,0,0,.27.21c.43.26,1.16.53,1.55.15a4.34,4.34,0,0,0,.89-1.14c0-.15.22-.49.37-.51C582.86,197.17,582.62,197.41,582.46,197.74Z" transform="translate(-80.52 -116.77)"/><polygon class="ah" points="505.08 78.5 505.08 78.5 505.08 78.5 505.08 78.5"/><path class="ai" d="M584.62,197.66a1.1,1.1,0,0,1-1.26-.23.42.42,0,0,0-.32-.2l0,0c.16.19.35.84,1.25.64.63-.14,1.69-.78,1.76-1.64a1.11,1.11,0,0,0-.3-.79,1.07,1.07,0,0,1,.19.73A2.2,2.2,0,0,1,584.62,197.66Z" transform="translate(-80.52 -116.77)"/><path class="ai" d="M584.85,192.79a1.22,1.22,0,0,1-.84.87.64.64,0,0,0-.44.52.65.65,0,0,1,.28-.26,5.93,5.93,0,0,1,.68-.31.87.87,0,0,0,.39-.53l.08-.32a1.28,1.28,0,0,0-.12-.78,2.16,2.16,0,0,0-.32-.43A1.74,1.74,0,0,1,584.85,192.79Z" transform="translate(-80.52 -116.77)"/><path class="ai" d="M579.86,195.53a1.31,1.31,0,0,1-1.23-.52c-.37-.42-.49-.76-.16-1.6s1-1.62,1.23-1.6a2,2,0,0,1,.88.43,2,2,0,0,0-.8-.52l-.11,0-.15,0a.75.75,0,0,0-.2.1,4.18,4.18,0,0,0-1.16,2,1.44,1.44,0,0,0,0,.64,1.57,1.57,0,0,0,1.52,1.25c.37,0,.58-.17.7-.15h0C580.24,195.51,580.33,195.47,579.86,195.53Z" transform="translate(-80.52 -116.77)"/><path class="aj" d="M583,197.23h0Z" transform="translate(-80.52 -116.77)"/><path class="aj" d="M585.6,195.27a1.12,1.12,0,0,1,.18.2A.81.81,0,0,0,585.6,195.27Z" transform="translate(-80.52 -116.77)"/><path class="aj" d="M584.51,194.09s.51,0,1-1.23c.27-.73-.39-1.67-1.23-2.27h0a2.41,2.41,0,0,0-1.87-.54c-.91.24-1.31,2-1.31,2l-1-.7-.1-.07c-.86-.62-2.2,1.1-2.41,2.77a1.42,1.42,0,0,0,0,.55c.26,1.19,1.9,1.43,1.9,1.43a1.84,1.84,0,0,0,.19,3l.18.1c2.49,1.23,2.88-1.27,3.16-1,1,.86,2.94.11,3.48-1.62S584.51,194.09,584.51,194.09Zm-4.84-2.39.11,0a2,2,0,0,1,.8.52,3.58,3.58,0,0,0,.3.28c.35.28.5-.26.5-.26a1.84,1.84,0,0,1,1.41-1.64c.45-.1,1.11.31,1.59.75l.18.18a2.16,2.16,0,0,1,.32.43,1.28,1.28,0,0,1,.12.78,1.67,1.67,0,0,1-.08.32.87.87,0,0,1-.39.53,5.93,5.93,0,0,0-.68.31.65.65,0,0,0-.28.26.23.23,0,0,0,0,.14.26.26,0,0,0,.06.13c.16.18.59.11.82.09a2.35,2.35,0,0,1,1.16.73h0a.81.81,0,0,1,.18.2,1.11,1.11,0,0,1,.3.79c-.07.86-1.13,1.5-1.76,1.64-.9.2-1.09-.45-1.25-.64l0,0H583c-.15,0-.33.36-.37.51a4.34,4.34,0,0,1-.89,1.14c-.39.38-1.12.11-1.55-.15a1.83,1.83,0,0,1-.27-.21,1.53,1.53,0,0,1-.14-2.12,2.7,2.7,0,0,1,.38-.21c.2-.09.37-.21.34-.43s-.05-.19-.12-.2-.33.1-.7.15a1.57,1.57,0,0,1-1.52-1.25,1.44,1.44,0,0,1,0-.64,4.18,4.18,0,0,1,1.16-2,.75.75,0,0,1,.2-.1Z" transform="translate(-80.52 -116.77)"/><path class="aj" d="M584.25,190.59c.84.6,1.5,1.54,1.23,2.27-.46,1.27-1,1.23-1,1.23s2.56.65,2,2.37-2.53,2.48-3.48,1.62c-.28-.26-.67,2.24-3.16,1l-.18-.1c.14-.07.29-.17.45-.27.43.26,1.16.53,1.55.15a4.34,4.34,0,0,0,.89-1.14c0-.18.31-.66.48-.47s.35.84,1.25.64c.63-.14,1.69-.78,1.76-1.64s-1.36-1.75-1.64-1.72-.66.09-.82-.09c.08-.17.15-.35.23-.53a5.93,5.93,0,0,1,.68-.31,1.36,1.36,0,0,0,.35-1.63,2.53,2.53,0,0,0-.5-.61A4.24,4.24,0,0,0,584.25,190.59Z" transform="translate(-80.52 -116.77)"/><path class="aj" d="M580,191.28l.1.07-.32.37a.53.53,0,0,0-.46.1,4.18,4.18,0,0,0-1.16,2c-.2.28-.39.55-.55.79a1.42,1.42,0,0,1,0-.55C577.8,192.38,579.14,190.66,580,191.28Z" transform="translate(-80.52 -116.77)"/><path class="x" d="M597.18,194.91c-2.38.17-6.84,2.3-3.07,5.35s8.88.57,9.39-1.53C603.91,197.07,601.61,194.6,597.18,194.91Z" transform="translate(-80.52 -116.77)"/><path class="ac" d="M594.28,197.24c-.25-.23.31-1.26,2.31-1.69s3.49.18,3.34.38a2.61,2.61,0,0,1-2.34,1.48C595.79,197.67,594.59,197.51,594.28,197.24Z" transform="translate(-80.52 -116.77)"/><path class="ac" d="M601.24,196.79c.29-.11,2,1.08,1.15,2.23s-2,1.86-2.84,1.63-1.08-1.48-.46-2.36A4.76,4.76,0,0,1,601.24,196.79Z" transform="translate(-80.52 -116.77)"/><path class="ac" d="M593.71,198a6,6,0,0,1,3.53.25c1.08.52,1.49,2.25,1.18,2.58s-2.68-.19-3.6-.79S593.44,198.37,593.71,198Z" transform="translate(-80.52 -116.77)"/><path class="ad" d="M595,196.47c-.33.2.66.92.81.74S595.28,196.31,595,196.47Z" transform="translate(-80.52 -116.77)"/><path class="ad" d="M596.07,196c-.19,0,.29,1.39.75,1.26S596.41,195.91,596.07,196Z" transform="translate(-80.52 -116.77)"/><path class="ad" d="M597.36,195.76c-.2.05,0,.88.42.85S597.55,195.7,597.36,195.76Z" transform="translate(-80.52 -116.77)"/><path class="ad" d="M598.75,195.65c-.46,0-.39,1.17,0,1.2S599.38,195.66,598.75,195.65Z" transform="translate(-80.52 -116.77)"/><path class="ad" d="M596.14,198.39c-.07-.15-1.88,0-1.73.31S596.29,198.7,596.14,198.39Z" transform="translate(-80.52 -116.77)"/><path class="ad" d="M597.55,199.44c.22,0,.17,1.2-.34,1.05S597.34,199.41,597.55,199.44Z" transform="translate(-80.52 -116.77)"/><path class="ad" d="M597,198.91c.21.1-1,1.28-1.56,1S596.74,198.8,597,198.91Z" transform="translate(-80.52 -116.77)"/><path class="ad" d="M600.11,198.14c.07-.27,2,0,1.9.28S600,198.51,600.11,198.14Z" transform="translate(-80.52 -116.77)"/><path class="ad" d="M600.45,197.68c.11.16,1.37,0,1.23-.25S600.33,197.51,600.45,197.68Z" transform="translate(-80.52 -116.77)"/><path class="ad" d="M599.64,198.59c-.09.09,1.31.84,1.42.62S599.86,198.37,599.64,198.59Z" transform="translate(-80.52 -116.77)"/><path class="ad" d="M599.14,198.92c-.31.12.12,1.12.47,1.05S599.58,198.74,599.14,198.92Z" transform="translate(-80.52 -116.77)"/><path class="x" d="M580.84,193c-2.38.17-6.84,2.31-3.07,5.36s8.87.56,9.39-1.54C587.57,195.18,585.27,192.71,580.84,193Z" transform="translate(-80.52 -116.77)"/><path class="ac" d="M577.94,195.34c-.26-.23.31-1.25,2.31-1.68s3.49.18,3.34.38a2.63,2.63,0,0,1-2.34,1.48C579.45,195.78,578.25,195.62,577.94,195.34Z" transform="translate(-80.52 -116.77)"/><path class="ac" d="M584.9,194.89c.28-.1,2,1.08,1.15,2.24s-2,1.85-2.85,1.63-1.07-1.49-.46-2.37A4.91,4.91,0,0,1,584.9,194.89Z" transform="translate(-80.52 -116.77)"/><path class="ac" d="M577.37,196.15a5.88,5.88,0,0,1,3.53.24c1.08.53,1.48,2.26,1.18,2.58s-2.68-.19-3.6-.79S577.1,196.47,577.37,196.15Z" transform="translate(-80.52 -116.77)"/><path class="ad" d="M578.67,194.58c-.33.2.65.91.81.74S578.94,194.42,578.67,194.58Z" transform="translate(-80.52 -116.77)"/><path class="ad" d="M579.73,194.09c-.19,0,.29,1.38.75,1.25S580.06,194,579.73,194.09Z" transform="translate(-80.52 -116.77)"/><path class="ad" d="M581,193.86c-.19,0,0,.89.43.86S581.21,193.81,581,193.86Z" transform="translate(-80.52 -116.77)"/><path class="ad" d="M582.41,193.76c-.46,0-.39,1.16,0,1.19S583,193.76,582.41,193.76Z" transform="translate(-80.52 -116.77)"/><path class="ad" d="M579.8,196.49c-.07-.14-1.88,0-1.73.31S580,196.81,579.8,196.49Z" transform="translate(-80.52 -116.77)"/><path class="ad" d="M581.21,197.54c.22,0,.17,1.2-.34,1.06S581,197.52,581.21,197.54Z" transform="translate(-80.52 -116.77)"/><path class="ad" d="M580.61,197c.21.11-1,1.29-1.56,1S580.39,196.9,580.61,197Z" transform="translate(-80.52 -116.77)"/><path class="ad" d="M583.77,196.25c.06-.28,2,0,1.9.27S583.69,196.61,583.77,196.25Z" transform="translate(-80.52 -116.77)"/><path class="ad" d="M584.1,195.78c.12.17,1.38,0,1.23-.25S584,195.61,584.1,195.78Z" transform="translate(-80.52 -116.77)"/><path class="ad" d="M583.3,196.7c-.09.09,1.31.83,1.42.62S583.52,196.47,583.3,196.7Z" transform="translate(-80.52 -116.77)"/><path class="ad" d="M582.8,197c-.31.13.11,1.13.47,1.06S583.24,196.84,582.8,197Z" transform="translate(-80.52 -116.77)"/><path class="ak" d="M603.34,193a.78.78,0,0,1-.84-.58c-.06-.39.3-.77.81-.85l.19,0a.81.81,0,0,1,.85.58.85.85,0,0,1-.81.86Zm.52-1.8a2,2,0,1,0,2,2A2,2,0,0,0,603.86,191.18Z" transform="translate(-80.52 -116.77)"/><path class="al" d="M603.5,191.53l-.19,0c-.51.08-.87.46-.81.85a.78.78,0,0,0,.84.58h.2a.85.85,0,0,0,.81-.86A.81.81,0,0,0,603.5,191.53Z" transform="translate(-80.52 -116.77)"/><path class="am" d="M588,199.83a.81.81,0,0,1-.85-.58c-.06-.39.3-.77.81-.85a.68.68,0,0,1,.2,0,.78.78,0,0,1,.84.58.85.85,0,0,1-.81.86Zm.52-1.81a2,2,0,1,0,2,2A2,2,0,0,0,588.47,198Z" transform="translate(-80.52 -116.77)"/><path class="an" d="M588.11,198.38a.68.68,0,0,0-.2,0c-.51.08-.87.46-.81.85a.81.81,0,0,0,.85.58h.19A.85.85,0,0,0,589,199,.78.78,0,0,0,588.11,198.38Z" transform="translate(-80.52 -116.77)"/><path class="am" d="M603.52,200.13c-.06-.39.3-.77.81-.85a.84.84,0,0,1,1,.56,1,1,0,0,1-1.85.29Zm-.67.8a2,2,0,1,0,4.06,0A2,2,0,0,0,602.85,200.93Z" transform="translate(-80.52 -116.77)"/><path class="an" d="M604.33,199.28c-.51.08-.87.46-.81.85a1,1,0,0,0,1.85-.29A.84.84,0,0,0,604.33,199.28Z" transform="translate(-80.52 -116.77)"/><path class="ao" d="M586.57,187.26c.36.32.47.85.79,1.21.7.79,2.13.53,2.81,1.34a2.41,2.41,0,0,1,.22,2.09,3.21,3.21,0,0,0,0,2.14c.3.6,1,1,1.14,1.65a1.59,1.59,0,0,1-.36,1.23c-.27.35-.61.64-.89,1a3.71,3.71,0,0,1-.74.79.78.78,0,0,1-1-.06c-.31-.36,0-.9.24-1.29l.9-1.28a.69.69,0,0,0,.18-.48.64.64,0,0,0-.16-.29,2.46,2.46,0,0,0-.91-.65,2.61,2.61,0,0,1-.71-.35,1.47,1.47,0,0,1-.28-1.37,3,3,0,0,0,.09-1.45c-.25-.75-1.14-1-1.88-1.3a9.53,9.53,0,0,1-2.39-1.29,5.24,5.24,0,0,1-1.06-.93c-.33-.43-.12-.64.29-1a1.46,1.46,0,0,1,1.48-.37A5.49,5.49,0,0,1,586.57,187.26Z" transform="translate(-80.52 -116.77)"/><path class="ap" d="M584.52,187.15a1.59,1.59,0,0,1,1.15.54.77.77,0,0,0,.09.51,2.05,2.05,0,0,0,1.37.87,3.81,3.81,0,0,1,1.55.6.84.84,0,0,1,.34.67c0,.27-.27.49-.26.76s.27.5.44.73a2.26,2.26,0,0,1,.32.64l.71,1.8c0,.11.08.26,0,.34a.3.3,0,0,1-.28,0,1.72,1.72,0,0,1-.63-.36.92.92,0,0,1-.3-.65c0-.28.16-.59,0-.83a1.15,1.15,0,0,0-.22-.22,1.77,1.77,0,0,1-.53-1.44,2.82,2.82,0,0,0,0-.58,1.31,1.31,0,0,0-.93-.91c-.43-.15-.9-.19-1.33-.34a5.07,5.07,0,0,1-1.09-.61c-.7-.46-1.44-.89-2.1-1.41.18-.25.4-.1.64-.07S584.18,187.12,584.52,187.15Z" transform="translate(-80.52 -116.77)"/><path class="ai" d="M600.24,201.58a13.57,13.57,0,0,1-1.43,0c-1,.19-1.57,1.55-2.61,1.71a2.4,2.4,0,0,1-1.9-.9,3.29,3.29,0,0,0-1.81-1.13c-.67-.06-1.37.34-2,.12a1.59,1.59,0,0,1-.86-1c-.17-.41-.24-.85-.38-1.27a3.84,3.84,0,0,1-.29-1,.79.79,0,0,1,.56-.82c.47-.08.79.44,1,.87l.63,1.44a.7.7,0,0,0,.32.41.61.61,0,0,0,.33,0,2.62,2.62,0,0,0,1-.44,2.34,2.34,0,0,1,.66-.43,1.48,1.48,0,0,1,1.32.47,3,3,0,0,0,1.19.83c.77.17,1.47-.44,2.09-.93a9.67,9.67,0,0,1,2.34-1.38,5.74,5.74,0,0,1,1.35-.43c.54-.06.61.24.71.78A1.44,1.44,0,0,1,602,200C601.51,200.51,600.93,201.37,600.24,201.58Z" transform="translate(-80.52 -116.77)"/><path class="ap" d="M601.4,199.89a1.62,1.62,0,0,1-1,.7.78.78,0,0,0-.48-.19,2,2,0,0,0-1.46.72,3.79,3.79,0,0,1-1.32,1,.8.8,0,0,1-.74,0c-.21-.17-.29-.48-.52-.62s-.57,0-.86,0a2.12,2.12,0,0,1-.71-.06l-1.91-.32c-.11,0-.26-.06-.28-.18s.06-.18.14-.25a1.78,1.78,0,0,1,.63-.35.88.88,0,0,1,.71.08c.24.15.42.44.7.44a.94.94,0,0,0,.3-.07,1.78,1.78,0,0,1,1.51.29,2.53,2.53,0,0,0,.49.31,1.3,1.3,0,0,0,1.26-.31c.35-.29.62-.67,1-1a5,5,0,0,1,1.1-.63c.75-.35,1.5-.76,2.28-1.06.13.29-.11.4-.26.59S601.6,199.61,601.4,199.89Z" transform="translate(-80.52 -116.77)"/><path class="af" d="M615.3,198.76c-2.17,2.46-10.88,4.81-22.68,4.81s-20.5-2.35-22.68-4.81h-.64c2,3,11.69,5.32,23.32,5.32s21.3-2.29,23.33-5.32Z" transform="translate(-80.52 -116.77)"/><circle class="y" cx="410.82" cy="94.11" r="33.13"/><path class="ao" d="M501.16,218.31a27.76,27.76,0,0,1-36-4.39,8.91,8.91,0,0,1-2.22-3.6,3.84,3.84,0,0,1,1-3.92c3.9-3.2,11.06,5.25,24.28,2,6-1.48,11.43-5.8,13.18-11.69.23-.76.4-1.55,1-3.56a1.61,1.61,0,0,1,1.9-1.12l.28.06a2.75,2.75,0,0,1,2.06,3.24c-.3,1.41-.6,2.06-.76,2.78a4.54,4.54,0,0,0,.69,2.73l.36.88a14.5,14.5,0,0,1,1.18,6.75C507.71,212.59,504.63,216,501.16,218.31Z" transform="translate(-80.52 -116.77)"/><path class="aq" d="M501.16,218.31a27.76,27.76,0,0,1-36-4.39,8.91,8.91,0,0,1-2.22-3.6,4.07,4.07,0,0,1,.6-3.48A54.83,54.83,0,0,0,470,211.1a27.09,27.09,0,0,0,13.82,3.81A26.44,26.44,0,0,0,497.65,210,58.16,58.16,0,0,0,507,201.7a14.5,14.5,0,0,1,1.18,6.75C507.71,212.59,504.63,216,501.16,218.31Z" transform="translate(-80.52 -116.77)"/><path class="ar" d="M464.74,208.17c-.31.89-.91,1.5-1.33,1.35s-.53-1-.23-1.88C463.92,205.49,465.47,206,464.74,208.17Z" transform="translate(-80.52 -116.77)"/><path class="as" d="M506.24,220a27.75,27.75,0,0,1-36.13,2.62,8.9,8.9,0,0,1-2.87-3.11,4,4,0,0,1-.09-3.52,3.58,3.58,0,0,1,.34-.52,4,4,0,0,1,2.89-1.29,14.06,14.06,0,0,1,3.23.33c6.07,1,12.51.82,18.08-1.78s10.1-7.89,10.69-14c.07-.79.09-1.6.27-3.68a1.6,1.6,0,0,1,1.65-1.47h.29a2.74,2.74,0,0,1,2.64,2.78c0,1.44-.19,2.14-.21,2.88a4.47,4.47,0,0,0,1.21,2.54c.17.26.35.52.52.8a14.4,14.4,0,0,1,2.46,6.39C511.56,213.07,509.2,217,506.24,220Z" transform="translate(-80.52 -116.77)"/><path class="at" d="M506.24,220a27.75,27.75,0,0,1-36.13,2.62,8.9,8.9,0,0,1-2.87-3.11,4,4,0,0,1-.09-3.52,55.71,55.71,0,0,0,7.11,2.94,27.14,27.14,0,0,0,14.3,1.08,26.5,26.5,0,0,0,12.63-7.51,58.54,58.54,0,0,0,7.56-9.92,14.4,14.4,0,0,1,2.46,6.39C511.56,213.07,509.2,217,506.24,220Z" transform="translate(-80.52 -116.77)"/><path class="at" d="M516.27,214.84a28.06,28.06,0,0,1-12.38,14.83c-9.17,5.24-20,4-23,1.59a4,4,0,0,1-1.6-3.14,2.49,2.49,0,0,1,.08-.61,3.33,3.33,0,0,1,.22-.6,4.34,4.34,0,0,1,1.83-1.82,14.13,14.13,0,0,1,3.06-1.1c5.91-1.69,11.63-4.66,15.53-9.42s5.7-11.48,3.58-17.25c-.28-.75-.61-1.48-1.35-3.44a1.6,1.6,0,0,1,.86-2l.26-.12a2.66,2.66,0,0,1,1.2-.22A2.73,2.73,0,0,1,507,193.1c.6,1.31.74,2,1.05,2.68.43.93,1.34,1.28,2.18,1.77.28.16.55.32.82.5a14.44,14.44,0,0,1,5,4.69C518.09,206.33,517.67,210.92,516.27,214.84Z" transform="translate(-80.52 -116.77)"/><path class="as" d="M516.27,214.84a28.06,28.06,0,0,1-12.38,14.83c-9.17,5.24-20,4-23,1.59a4,4,0,0,1-1.6-3.14,2.49,2.49,0,0,1,.08-.61,3.33,3.33,0,0,1,.22-.6h.46A49.62,49.62,0,0,0,495,225a22.64,22.64,0,0,0,12.11-8.55c2.8-4.19,3.64-9.82,1.46-14.36-.9-1.86-2.24-3.47-3.19-5.31a7.28,7.28,0,0,1-.79-5.29A2.73,2.73,0,0,1,507,193.1c.6,1.31.74,2,1.05,2.68.43.93,1.34,1.28,2.18,1.77.28.16.55.32.82.5a14.44,14.44,0,0,1,5,4.69C518.09,206.33,517.67,210.92,516.27,214.84Z" transform="translate(-80.52 -116.77)"/><ellipse class="ar" cx="399.69" cy="111.54" rx="0.82" ry="1.71"/><path class="ar" d="M468.56,216.93c-.3.89-.9,1.49-1.33,1.34s-.53-1-.22-1.88.9-1.49,1.33-1.34S468.87,216,468.56,216.93Z" transform="translate(-80.52 -116.77)"/><circle class="y" cx="575.98" cy="147.28" r="33.13"/><path class="m" d="M646.56,284.78c.23,2.48,4.69,4.24,10.16,4.18s9.89-1.9,10.06-4.39Z" transform="translate(-80.52 -116.77)"/><ellipse class="i" cx="656.67" cy="284.46" rx="10.13" ry="3.91" transform="matrix(1, -0.01, 0.01, 1, -83.42, -109.98)"/><path class="i" d="M663.66,284c0,1.51-3.13,2.76-7,2.8s-7-1.15-7.07-2.65a1.87,1.87,0,0,1,1.07-1.46,8.33,8.33,0,0,0,3.41-4.29c.09-.26.17-.53.24-.79a9,9,0,0,0,.3-2.38v-.16l3.86,0v.16a8.83,8.83,0,0,0,.25,2c0,.14.07.28.11.41a8.37,8.37,0,0,0,3.75,5A1.87,1.87,0,0,1,663.66,284Z" transform="translate(-80.52 -116.77)"/><path class="m" d="M658.81,277.62c-.66.17-1.34.28-2,.39l-2.74.41c.09-.26.17-.53.24-.79a9,9,0,0,0,.3-2.38v-.16l3.86,0v.16a8.83,8.83,0,0,0,.25,2C658.73,277.35,658.77,277.49,658.81,277.62Z" transform="translate(-80.52 -116.77)"/><path class="af" d="M670.87,262.6a13,13,0,0,1-3.7,9.29,13.61,13.61,0,0,1-9.89,3.83c-.46,0-.93,0-1.39,0a14.78,14.78,0,0,1-4.16-.43A12.68,12.68,0,0,1,642,262.9c-.06-3.86.66-10.36,4.33-19.69l19.78-.2C670,252.25,670.85,258.74,670.87,262.6Z" transform="translate(-80.52 -116.77)"/><path class="ao" d="M668.38,250.75a9.28,9.28,0,0,1,.57,1.52,41.35,41.35,0,0,1,1.55,10.33,12.72,12.72,0,0,1-3.59,9,12.48,12.48,0,0,1-4.67,2.92,14.47,14.47,0,0,1-5,.79c-.47,0-.93,0-1.41,0a14.6,14.6,0,0,1-4-.43,12.53,12.53,0,0,1-5.66-3.09l0-.05a8.66,8.66,0,0,1-2.47-7.5c.06-.47.13-1,.17-1.47a3.18,3.18,0,0,1,.26-1.25,1.14,1.14,0,0,1,1-.7c1.19,0,1.45,2.2,2.63,2.1.76-.06,1-1,1-1.8s-.1-1.67.51-2.11a1.66,1.66,0,0,1,1.63,0,9.36,9.36,0,0,0,1.53.74c1.35.33,2.66-.79,3.23-2.06a38.73,38.73,0,0,0,1-4c.41-1.33,1.37-2.67,2.74-2.81.89-.09,1.89.31,2.62-.18,1-.68.6-2.33,1.28-3.34a2.28,2.28,0,0,1,3.13-.28,4.78,4.78,0,0,1,1.58,2.51,8.43,8.43,0,0,0,.44,1.08Z" transform="translate(-80.52 -116.77)"/><g class="au"><path class="f" d="M649,259.28c-.07,6,1.63,11.05.34,11.5s-5.28-4.58-5.23-11.52,4.1-12,5.33-11.52S649,253.29,649,259.28Z" transform="translate(-80.52 -116.77)"/></g><g class="av"><path d="M670.87,262.6a13,13,0,0,1-3.7,9.29,13.61,13.61,0,0,1-9.89,3.83c-.46,0-.93,0-1.39,0a14.78,14.78,0,0,1-4.16-.43,4.17,4.17,0,0,1,1.09-1.2,16.1,16.1,0,0,1,2.8-1.52A19.43,19.43,0,0,0,666.29,253a26.34,26.34,0,0,0-3.51-9.91l3.35,0C670,252.25,670.85,258.74,670.87,262.6Z" transform="translate(-80.52 -116.77)"/></g><ellipse class="af" cx="656.25" cy="243.11" rx="9.89" ry="2.16" transform="translate(-82.99 -109.99) rotate(-0.59)"/><path class="i" d="M665.59,243c0,.31-.5.64-1.38.94a28.33,28.33,0,0,1-7.94,1c-4.78,0-8.31-.63-9.16-1.37a.49.49,0,0,1-.2-.35c0-.87,3.82-1.87,9.32-1.93S665.58,242.15,665.59,243Z" transform="translate(-80.52 -116.77)"/><path class="ap" d="M641.35,287.77c3.1,1.16,6.7-.81,8-4.39s-.09-7.42-3.19-8.57a5.27,5.27,0,0,0-2.54-.29v1a4.57,4.57,0,0,1,2.19.25c2.66,1,3.88,4.28,2.74,7.34s-4.23,4.75-6.88,3.76-3.88-4.28-2.74-7.35a2.44,2.44,0,0,1,.1-.24l-.8-.32-.11.26C636.82,282.77,638.25,286.61,641.35,287.77Z" transform="translate(-80.52 -116.77)"/><path class="aj" d="M639.06,279.25a2.44,2.44,0,0,0-.1.24c-1.14,3.07.08,6.36,2.74,7.35s5.73-.69,6.88-3.76-.08-6.35-2.74-7.34a4.57,4.57,0,0,0-2.19-.25l0,5.57Z" transform="translate(-80.52 -116.77)"/><path class="ai" d="M643.87,280.73l1.74-4.67a4.3,4.3,0,0,0-1.77-.22Z" transform="translate(-80.52 -116.77)"/><path class="ai" d="M644.3,281.13l4.37-.35a5.82,5.82,0,0,0-.28-1.78Z" transform="translate(-80.52 -116.77)"/><path class="ai" d="M644.07,280.78l3.16-3.7a4.12,4.12,0,0,0-1.43-.95Z" transform="translate(-80.52 -116.77)"/><path class="ai" d="M644.2,280.94l4.12-2.14a5,5,0,0,0-.94-1.57Z" transform="translate(-80.52 -116.77)"/><path class="ai" d="M644.28,281.36l4,1.5a6.51,6.51,0,0,0,.36-1.86Z" transform="translate(-80.52 -116.77)"/><path class="ai" d="M644.06,281.73l1.7,4.32a6.1,6.1,0,0,0,1.43-1.22Z" transform="translate(-80.52 -116.77)"/><path class="ai" d="M644.22,281.58l3.11,3.08a6.49,6.49,0,0,0,.9-1.59Z" transform="translate(-80.52 -116.77)"/><path class="ai" d="M643.91,286.71a4.8,4.8,0,0,0,1.66-.56l-1.69-4.3Z" transform="translate(-80.52 -116.77)"/><path class="ai" d="M643.24,281.44l-4.37.36a5.43,5.43,0,0,0,.28,1.77Z" transform="translate(-80.52 -116.77)"/><path class="ai" d="M643.47,281.8l-3.17,3.7a4.47,4.47,0,0,0,1.43.95Z" transform="translate(-80.52 -116.77)"/><path class="ai" d="M643.34,281.63l-4.12,2.15a5,5,0,0,0,.94,1.57Z" transform="translate(-80.52 -116.77)"/><path class="ai" d="M643.67,281.85l-1.75,4.67a4.19,4.19,0,0,0,1.78.21Z" transform="translate(-80.52 -116.77)"/><path class="ai" d="M643.26,281.22l-4-1.51a6.19,6.19,0,0,0-.36,1.87Z" transform="translate(-80.52 -116.77)"/><path class="aw" d="M644.77,275.48l.48-.93a5.37,5.37,0,0,0-1.6,0v1A5.24,5.24,0,0,1,644.77,275.48Z" transform="translate(-80.52 -116.77)"/><path class="ax" d="M643.64,278.2q.09-.29.21-.6v-1.76a4.82,4.82,0,0,1,.76,0l.17-.36a5.24,5.24,0,0,0-1.12,0v2.71Z" transform="translate(-80.52 -116.77)"/><path class="ay" d="M643.85,277.6c.2-.54.46-1.13.75-1.76a4.82,4.82,0,0,0-.76,0Z" transform="translate(-80.52 -116.77)"/><path class="ap" d="M645.92,274.71c-3.14-1-6.66,1.08-7.85,4.71s.4,7.41,3.55,8.44a5.24,5.24,0,0,0,2.54.19l0-1a4.45,4.45,0,0,1-2.2-.15c-2.7-.88-4.06-4.12-3-7.23s4-4.92,6.72-4,4,4.11,3,7.22l-.09.25.81.28a2,2,0,0,0,.09-.26C650.65,279.52,649.07,275.74,645.92,274.71Z" transform="translate(-80.52 -116.77)"/><path class="aj" d="M648.56,283.13l.09-.25c1-3.11-.34-6.34-3-7.22s-5.7.92-6.72,4,.34,6.35,3,7.23a4.45,4.45,0,0,0,2.2.15l-.21-5.57Z" transform="translate(-80.52 -116.77)"/><path class="ai" d="M643.69,281.85l-1.55,4.74a4.15,4.15,0,0,0,1.78.14Z" transform="translate(-80.52 -116.77)"/><path class="ai" d="M643.25,281.46l-4.36.54a6,6,0,0,0,.35,1.76Z" transform="translate(-80.52 -116.77)"/><path class="ai" d="M643.49,281.81l-3,3.83a4.21,4.21,0,0,0,1.47.88Z" transform="translate(-80.52 -116.77)"/><path class="ai" d="M643.35,281.65l-4,2.31a5,5,0,0,0,1,1.53Z" transform="translate(-80.52 -116.77)"/><path class="ai" d="M643.25,281.24l-4.08-1.34a6.17,6.17,0,0,0-.28,1.88Z" transform="translate(-80.52 -116.77)"/><path class="ai" d="M643.46,280.85l-1.88-4.23a5.66,5.66,0,0,0-1.37,1.27Z" transform="translate(-80.52 -116.77)"/><path class="ai" d="M643.31,281l-3.24-2.95a6.51,6.51,0,0,0-.83,1.62Z" transform="translate(-80.52 -116.77)"/><path class="ai" d="M643.41,275.88a4.75,4.75,0,0,0-1.64.62l1.87,4.23Z" transform="translate(-80.52 -116.77)"/><path class="ai" d="M644.29,281.11l4.36-.54a5.75,5.75,0,0,0-.36-1.76Z" transform="translate(-80.52 -116.77)"/><path class="ai" d="M644.05,280.77l3-3.83a4.23,4.23,0,0,0-1.47-.89Z" transform="translate(-80.52 -116.77)"/><path class="ai" d="M644.19,280.92l4-2.31a4.94,4.94,0,0,0-1-1.53Z" transform="translate(-80.52 -116.77)"/><path class="ai" d="M643.85,280.72,645.4,276a4.19,4.19,0,0,0-1.79-.14Z" transform="translate(-80.52 -116.77)"/><path class="ai" d="M644.28,281.34l4.09,1.33a6.48,6.48,0,0,0,.28-1.87Z" transform="translate(-80.52 -116.77)"/><path class="i" d="M327.22,262.68c-4.06,2.83,3.34-5.4,5.69-15.83A41.65,41.65,0,0,0,334,233.59h0c-18.92-.91-28.62,9-29.56,7.94s10.14-13.23,29.26-11.62c-1.11-13.27,4.76-24.77,10.46-28.79,3.59-2.5-1.54,4.08-3.32,8.57a43.76,43.76,0,0,0-3.45,20.52l2.22.11c16.13.91,26.42-9,27.34-8.06s-9.87,13.15-29.26,11.63C338.74,247.44,332.94,258.66,327.22,262.68Z" transform="translate(-80.52 -116.77)"/><path class="n" d="M329.8,243.93c-.46.46-1.47.27-2.88-.75l-3.09-3.1c-1-1.4-1.22-2.42-.75-2.89s1.48-.27,2.9.74l3.09,3.1C330.08,242.44,330.28,243.45,329.8,243.93Z" transform="translate(-80.52 -116.77)"/><path class="x" d="M327.42,250.25c-.46.46-1.78,0-3.79-1.66L319,244c-1.64-2-2.12-3.33-1.65-3.8s1.77,0,3.79,1.65l4.64,4.64C327.4,248.46,327.9,249.77,327.42,250.25Z" transform="translate(-80.52 -116.77)"/><path class="ae" d="M320.16,253.81l-6.39-6.38c-4.54-5.28-3.39-6.86,2.15-2.15l6.38,6.38C326.93,257.09,325.54,258.44,320.16,253.81Z" transform="translate(-80.52 -116.77)"/><path class="n" d="M341.65,219.79c.46-.46,1.48-.27,2.88.75l3.09,3.09c2,2.79.72,4.2-2.15,2.15l-3.09-3.09C341.37,221.27,341.17,220.27,341.65,219.79Z" transform="translate(-80.52 -116.77)"/><path class="x" d="M347.82,215.13l4.64,4.63c3.23,4,1.93,5.42-2.15,2.15l-4.64-4.63C342.43,213.23,343.81,211.87,347.82,215.13Z" transform="translate(-80.52 -116.77)"/><path class="ae" d="M351.3,209.9l6.38,6.39c2.32,2.7,3.15,4.36,2.68,4.83s-2.11-.37-4.83-2.68l-6.38-6.39C344.52,206.62,345.91,205.27,351.3,209.9Z" transform="translate(-80.52 -116.77)"/></g></svg>